  0
SECTION
  2
HEADER
  9
$ACADVER
  1
AC1014
  9
$HANDSEED
  5
FFFF
  9
$INSUNITS
 70
     4
  9
$MEASUREMENT
 70
     1
  0
ENDSEC
  0
SECTION
  2
TABLES
  0
TABLE
  2
VPORT
  5
8
330
0
100
AcDbSymbolTable
 70
     4
  0
VPORT
  5
2E
330
8
100
AcDbSymbolTableRecord
100
AcDbViewportTableRecord
  2
*ACTIVE
 70
     0
 10
0.0
 20
0.0
 11
1.0
 21
1.0
 12
210.0
 22
148.5
 13
0.0
 23
0.0
 14
10.0
 24
10.0
 15
10.0
 25
10.0
 16
0.0
 26
0.0
 36
1.0
 17
0.0
 27
0.0
 37
0.0
 40
341.0
 41
1.24
 42
50.0
 43
0.0
 44
0.0
 50
0.0
 51
0.0
 71
     0
 72
   100
 73
     1
 74
     3
 75
     0
 76
     0
 77
     0
 78
     0
  0
ENDTAB
  0
TABLE
  2
LTYPE
  5
5
330
0
100
AcDbSymbolTable
 70
     1
  0
LTYPE
  5
14
330
5
100
AcDbSymbolTableRecord
100
AcDbLinetypeTableRecord
  2
BYBLOCK
 70
     0
  3

 72
    65
 73
     0
 40
0.0
  0
LTYPE
  5
15
330
5
100
AcDbSymbolTableRecord
100
AcDbLinetypeTableRecord
  2
BYLAYER
 70
     0
  3

 72
    65
 73
     0
 40
0.0
  0
LTYPE
  5
16
330
5
100
AcDbSymbolTableRecord
100
AcDbLinetypeTableRecord
  2
CONTINUOUS
 70
     0
  3
Solid line
 72
    65
 73
     0
 40
0.0
  0
ENDTAB
  0
TABLE
  2
LAYER
  5
2
100
AcDbSymbolTable
 70
2
  0
LAYER
  5
50
100
AcDbSymbolTableRecord
100
AcDbLayerTableRecord
  2
0
 70
0
  6
CONTINUOUS
  0
LAYER
  5
51
100
AcDbSymbolTableRecord
100
AcDbLayerTableRecord
  2
Шар_1
 70
0
  6
CONTINUOUS
  0
ENDTAB
  0
TABLE
  2
STYLE
  5
3
330
0
100
AcDbSymbolTable
 70
     1
  0
STYLE
  5
11
330
3
100
AcDbSymbolTableRecord
100
AcDbTextStyleTableRecord
  2
STANDARD
 70
     0
 40
0.0
 41
1.0
 50
0.0
 71
     0
 42
2.5
  3
txt
  4

  0
ENDTAB
  0
TABLE
  2
VIEW
  5
6
330
0
100
AcDbSymbolTable
 70
     0
  0
ENDTAB
  0
TABLE
  2
UCS
  5
7
330
0
100
AcDbSymbolTable
 70
     0
  0
ENDTAB
  0
TABLE
  2
APPID
  5
9
330
0
100
AcDbSymbolTable
 70
     2
  0
APPID
  5
12
330
9
100
AcDbSymbolTableRecord
100
AcDbRegAppTableRecord
  2
ACAD
 70
     0
  0
ENDTAB
  0
TABLE
  2
DIMSTYLE
  5
A
330
0
100
AcDbSymbolTable
 70
     1
  0
DIMSTYLE
105
27
330
A
100
AcDbSymbolTableRecord
100
AcDbDimStyleTableRecord
  2
ISO-25
 70
     0
  3

  4

  5

  6

  7

 40
1.0
 41
2.5
 42
0.625
 43
3.75
 44
1.25
 45
0.0
 46
0.0
 47
0.0
 48
0.0
140
2.5
141
2.5
142
0.0
143
0.03937007874016
144
1.0
145
0.0
146
1.0
147
0.625
 71
     0
 72
     0
 73
     0
 74
     0
 75
     0
 76
     0
 77
     1
 78
     8
170
     0
171
     3
172
     1
173
     0
174
     0
175
     0
176
     0
177
     0
178
     0
270
     2
271
     2
272
     2
273
     2
274
     3
340
11
275
     0
280
     0
281
     0
282
     0
283
     0
284
     8
285
     0
286
     0
287
     3
288
     0
  0
ENDTAB
  0
TABLE
  2
BLOCK_RECORD
  5
1
330
0
100
AcDbSymbolTable
 70
     1
  0
BLOCK_RECORD
  5
1F
330
1
100
AcDbSymbolTableRecord
100
AcDbBlockTableRecord
  2
*MODEL_SPACE
  0
BLOCK_RECORD
  5
1B
330
1
100
AcDbSymbolTableRecord
100
AcDbBlockTableRecord
  2
*PAPER_SPACE
  0
ENDTAB
  0
ENDSEC
  0
SECTION
  2
BLOCKS
  0
BLOCK
  5
20
330
1F
100
AcDbEntity
  8
0
100
AcDbBlockBegin
  2
*MODEL_SPACE
 70
     0
 10
0.0
 20
0.0
 30
0.0
  3
*MODEL_SPACE
  1

  0
ENDBLK
  5
21
330
1F
100
AcDbEntity
  8
0
100
AcDbBlockEnd
  0
BLOCK
  5
1C
330
1B
100
AcDbEntity
 67
     1
  8
0
100
AcDbBlockBegin
  2
*PAPER_SPACE
  1

  0
ENDBLK
  5
1D
330
1B
100
AcDbEntity
 67
     1
  8
0
100
AcDbBlockEnd
  0
ENDSEC
  0
SECTION
  2
ENTITIES
  0
LWPOLYLINE
  5
100
100
AcDbEntity
  8
Шар_1
 62
7
100
AcDbPolyline
 90
4
 70
1
 10
30.823958
 20
193.947900
 30
0.0
 10
65.823940
 20
193.947900
 30
0.0
 10
65.823940
 20
243.948855
 30
0.0
 10
30.823958
 20
243.948855
 30
0.0
  0
SPLINE
  5
101
100
AcDbEntity
  8
Шар_1
 62
1
100
AcDbSpline
 70
8
 71
3
 72
8
 73
4
 74
0
 40
0
 40
0
 40
0
 40
0
 40
1
 40
1
 40
1
 40
1
 10
62.423949
 20
238.948468
 30
0.0
 10
62.423637
 20
239.831903
 30
0.0
 10
61.707384
 20
240.547902
 30
0.0
 10
60.823949
 20
240.547902
 30
0.0
  0
SPLINE
  5
102
100
AcDbEntity
  8
Шар_1
 62
1
100
AcDbSpline
 70
8
 71
3
 72
8
 73
4
 74
0
 40
0
 40
0
 40
0
 40
0
 40
1
 40
1
 40
1
 40
1
 10
60.823949
 20
240.547902
 30
0.0
 10
59.940514
 20
240.547902
 30
0.0
 10
59.224261
 20
239.831903
 30
0.0
 10
59.223949
 20
238.948468
 30
0.0
  0
SPLINE
  5
103
100
AcDbEntity
  8
Шар_1
 62
1
100
AcDbSpline
 70
8
 71
3
 72
8
 73
4
 74
0
 40
0
 40
0
 40
0
 40
0
 40
1
 40
1
 40
1
 40
1
 10
59.223949
 20
238.948468
 30
0.0
 10
59.224261
 20
238.065033
 30
0.0
 10
59.940514
 20
237.349034
 30
0.0
 10
60.823949
 20
237.349034
 30
0.0
  0
SPLINE
  5
104
100
AcDbEntity
  8
Шар_1
 62
1
100
AcDbSpline
 70
8
 71
3
 72
8
 73
4
 74
0
 40
0
 40
0
 40
0
 40
0
 40
1
 40
1
 40
1
 40
1
 10
60.823949
 20
237.349034
 30
0.0
 10
61.707384
 20
237.349034
 30
0.0
 10
62.423637
 20
238.065033
 30
0.0
 10
62.423949
 20
238.948468
 30
0.0
  0
LWPOLYLINE
  5
105
100
AcDbEntity
  8
Шар_1
 62
7
100
AcDbPolyline
 90
4
 70
0
 10
135.841790
 20
193.944210
 30
0.0
 10
170.841770
 20
193.944210
 30
0.0
 10
170.841770
 20
243.945185
 30
0.0
 10
135.841790
 20
243.945185
 30
0.0
  0
SPLINE
  5
106
100
AcDbEntity
  8
Шар_1
 62
1
100
AcDbSpline
 70
8
 71
3
 72
8
 73
4
 74
0
 40
0
 40
0
 40
0
 40
0
 40
1
 40
1
 40
1
 40
1
 10
37.423949
 20
238.948468
 30
0.0
 10
37.423637
 20
239.831903
 30
0.0
 10
36.707384
 20
240.547902
 30
0.0
 10
35.823949
 20
240.547902
 30
0.0
  0
SPLINE
  5
107
100
AcDbEntity
  8
Шар_1
 62
1
100
AcDbSpline
 70
8
 71
3
 72
8
 73
4
 74
0
 40
0
 40
0
 40
0
 40
0
 40
1
 40
1
 40
1
 40
1
 10
35.823949
 20
240.547902
 30
0.0
 10
34.940514
 20
240.547902
 30
0.0
 10
34.224261
 20
239.831903
 30
0.0
 10
34.223949
 20
238.948468
 30
0.0
  0
SPLINE
  5
108
100
AcDbEntity
  8
Шар_1
 62
1
100
AcDbSpline
 70
8
 71
3
 72
8
 73
4
 74
0
 40
0
 40
0
 40
0
 40
0
 40
1
 40
1
 40
1
 40
1
 10
34.223949
 20
238.948468
 30
0.0
 10
34.224261
 20
238.065033
 30
0.0
 10
34.940514
 20
237.349034
 30
0.0
 10
35.823949
 20
237.349034
 30
0.0
  0
SPLINE
  5
109
100
AcDbEntity
  8
Шар_1
 62
1
100
AcDbSpline
 70
8
 71
3
 72
8
 73
4
 74
0
 40
0
 40
0
 40
0
 40
0
 40
1
 40
1
 40
1
 40
1
 10
35.823949
 20
237.349034
 30
0.0
 10
36.707384
 20
237.349034
 30
0.0
 10
37.423637
 20
238.065033
 30
0.0
 10
37.423949
 20
238.948468
 30
0.0
  0
LWPOLYLINE
  5
10a
100
AcDbEntity
  8
Шар_1
 62
1
100
AcDbPolyline
 90
1
 70
1
 10
62.423949
 20
238.948468
 30
0.0
  0
SPLINE
  5
10b
100
AcDbEntity
  8
Шар_1
 62
1
100
AcDbSpline
 70
8
 71
3
 72
8
 73
4
 74
0
 40
0
 40
0
 40
0
 40
0
 40
1
 40
1
 40
1
 40
1
 10
62.423949
 20
198.948470
 30
0.0
 10
62.423637
 20
199.831905
 30
0.0
 10
61.707384
 20
200.547904
 30
0.0
 10
60.823949
 20
200.547904
 30
0.0
  0
SPLINE
  5
10c
100
AcDbEntity
  8
Шар_1
 62
1
100
AcDbSpline
 70
8
 71
3
 72
8
 73
4
 74
0
 40
0
 40
0
 40
0
 40
0
 40
1
 40
1
 40
1
 40
1
 10
60.823949
 20
200.547904
 30
0.0
 10
59.940514
 20
200.547904
 30
0.0
 10
59.224261
 20
199.831905
 30
0.0
 10
59.223949
 20
198.948470
 30
0.0
  0
SPLINE
  5
10d
100
AcDbEntity
  8
Шар_1
 62
1
100
AcDbSpline
 70
8
 71
3
 72
8
 73
4
 74
0
 40
0
 40
0
 40
0
 40
0
 40
1
 40
1
 40
1
 40
1
 10
59.223949
 20
198.948470
 30
0.0
 10
59.224261
 20
198.065035
 30
0.0
 10
59.940514
 20
197.349036
 30
0.0
 10
60.823949
 20
197.349036
 30
0.0
  0
SPLINE
  5
10e
100
AcDbEntity
  8
Шар_1
 62
1
100
AcDbSpline
 70
8
 71
3
 72
8
 73
4
 74
0
 40
0
 40
0
 40
0
 40
0
 40
1
 40
1
 40
1
 40
1
 10
60.823949
 20
197.349036
 30
0.0
 10
61.707384
 20
197.349036
 30
0.0
 10
62.423637
 20
198.065035
 30
0.0
 10
62.423949
 20
198.948470
 30
0.0
  0
LWPOLYLINE
  5
10f
100
AcDbEntity
  8
Шар_1
 62
1
100
AcDbPolyline
 90
1
 70
1
 10
37.423949
 20
238.948468
 30
0.0
  0
SPLINE
  5
110
100
AcDbEntity
  8
Шар_1
 62
1
100
AcDbSpline
 70
8
 71
3
 72
8
 73
4
 74
0
 40
0
 40
0
 40
0
 40
0
 40
1
 40
1
 40
1
 40
1
 10
37.423949
 20
198.948470
 30
0.0
 10
37.423637
 20
199.831905
 30
0.0
 10
36.707384
 20
200.547904
 30
0.0
 10
35.823949
 20
200.547904
 30
0.0
  0
SPLINE
  5
111
100
AcDbEntity
  8
Шар_1
 62
1
100
AcDbSpline
 70
8
 71
3
 72
8
 73
4
 74
0
 40
0
 40
0
 40
0
 40
0
 40
1
 40
1
 40
1
 40
1
 10
35.823949
 20
200.547904
 30
0.0
 10
34.940514
 20
200.547904
 30
0.0
 10
34.224261
 20
199.831905
 30
0.0
 10
34.223949
 20
198.948470
 30
0.0
  0
SPLINE
  5
112
100
AcDbEntity
  8
Шар_1
 62
1
100
AcDbSpline
 70
8
 71
3
 72
8
 73
4
 74
0
 40
0
 40
0
 40
0
 40
0
 40
1
 40
1
 40
1
 40
1
 10
34.223949
 20
198.948470
 30
0.0
 10
34.224261
 20
198.065035
 30
0.0
 10
34.940514
 20
197.349036
 30
0.0
 10
35.823949
 20
197.349036
 30
0.0
  0
SPLINE
  5
113
100
AcDbEntity
  8
Шар_1
 62
1
100
AcDbSpline
 70
8
 71
3
 72
8
 73
4
 74
0
 40
0
 40
0
 40
0
 40
0
 40
1
 40
1
 40
1
 40
1
 10
35.823949
 20
197.349036
 30
0.0
 10
36.707384
 20
197.349036
 30
0.0
 10
37.423637
 20
198.065035
 30
0.0
 10
37.423949
 20
198.948470
 30
0.0
  0
LWPOLYLINE
  5
114
100
AcDbEntity
  8
Шар_1
 62
1
100
AcDbPolyline
 90
1
 70
1
 10
62.423949
 20
198.948470
 30
0.0
  0
LWPOLYLINE
  5
115
100
AcDbEntity
  8
Шар_1
 62
1
100
AcDbPolyline
 90
1
 70
1
 10
37.423949
 20
198.948470
 30
0.0
  0
LWPOLYLINE
  5
116
100
AcDbEntity
  8
Шар_1
 62
1
100
AcDbPolyline
 90
2
 70
0
 10
155.841770
 20
234.443998
 30
0.0
 10
156.578790
 20
235.195415
 30
0.0
  0
LWPOLYLINE
  5
117
100
AcDbEntity
  8
Шар_1
 62
1
100
AcDbPolyline
 90
2
 70
0
 10
155.841770
 20
234.443998
 30
0.0
 10
155.051440
 20
235.195415
 30
0.0
  0
LWPOLYLINE
  5
118
100
AcDbEntity
  8
Шар_1
 62
1
100
AcDbPolyline
 90
2
 70
0
 10
151.632100
 20
235.195415
 30
0.0
 10
155.051440
 20
235.195415
 30
0.0
  0
LWPOLYLINE
  5
119
100
AcDbEntity
  8
Шар_1
 62
1
100
AcDbPolyline
 90
2
 70
0
 10
150.841770
 20
234.443998
 30
0.0
 10
151.632100
 20
235.195415
 30
0.0
  0
LWPOLYLINE
  5
11a
100
AcDbEntity
  8
Шар_1
 62
1
100
AcDbPolyline
 90
5
 70
0
 10
150.841770
 20
234.443998
 30
0.0
 10
150.104750
 20
235.195415
 30
0.0
 10
149.841780
 20
235.195415
 30
0.0
 10
149.841780
 20
230.694852
 30
0.0
 10
150.104750
 20
230.694852
 30
0.0
  0
LWPOLYLINE
  5
11b
100
AcDbEntity
  8
Шар_1
 62
1
100
AcDbPolyline
 90
2
 70
0
 10
150.841770
 20
231.443623
 30
0.0
 10
150.104750
 20
230.694852
 30
0.0
  0
LWPOLYLINE
  5
11c
100
AcDbEntity
  8
Шар_1
 62
1
100
AcDbPolyline
 90
3
 70
0
 10
150.841770
 20
231.443623
 30
0.0
 10
151.632100
 20
230.694852
 30
0.0
 10
155.078560
 20
230.694852
 30
0.0
  0
LWPOLYLINE
  5
11d
100
AcDbEntity
  8
Шар_1
 62
1
100
AcDbPolyline
 90
2
 70
0
 10
155.841770
 20
231.443623
 30
0.0
 10
155.078560
 20
230.694852
 30
0.0
  0
LWPOLYLINE
  5
11e
100
AcDbEntity
  8
Шар_1
 62
1
100
AcDbPolyline
 90
2
 70
0
 10
155.841770
 20
231.443623
 30
0.0
 10
156.604980
 20
230.694852
 30
0.0
  0
LWPOLYLINE
  5
11f
100
AcDbEntity
  8
Шар_1
 62
1
100
AcDbPolyline
 90
2
 70
0
 10
156.841760
 20
230.694852
 30
0.0
 10
156.604980
 20
230.694852
 30
0.0
  0
LWPOLYLINE
  5
120
100
AcDbEntity
  8
Шар_1
 62
1
100
AcDbPolyline
 90
2
 70
0
 10
156.841760
 20
235.195415
 30
0.0
 10
156.841760
 20
230.694852
 30
0.0
  0
LWPOLYLINE
  5
121
100
AcDbEntity
  8
Шар_1
 62
1
100
AcDbPolyline
 90
2
 70
0
 10
156.579400
 20
235.195415
 30
0.0
 10
156.841760
 20
235.195415
 30
0.0
  0
LWPOLYLINE
  5
122
100
AcDbEntity
  8
Шар_1
 62
1
100
AcDbPolyline
 90
2
 70
0
 10
150.920270
 20
217.497438
 30
0.0
 10
151.786910
 20
216.674578
 30
0.0
  0
LWPOLYLINE
  5
123
100
AcDbEntity
  8
Шар_1
 62
1
100
AcDbPolyline
 90
2
 70
0
 10
155.053640
 20
216.674578
 30
0.0
 10
151.786910
 20
216.674578
 30
0.0
  0
LWPOLYLINE
  5
124
100
AcDbEntity
  8
Шар_1
 62
1
100
AcDbPolyline
 90
2
 70
0
 10
155.920270
 20
217.497438
 30
0.0
 10
155.053640
 20
216.674578
 30
0.0
  0
LWPOLYLINE
  5
125
100
AcDbEntity
  8
Шар_1
 62
1
100
AcDbPolyline
 90
2
 70
0
 10
155.920270
 20
217.497438
 30
0.0
 10
156.728450
 20
216.674578
 30
0.0
  0
LWPOLYLINE
  5
126
100
AcDbEntity
  8
Шар_1
 62
1
100
AcDbPolyline
 90
2
 70
0
 10
156.807150
 20
216.674578
 30
0.0
 10
156.728450
 20
216.674578
 30
0.0
  0
LWPOLYLINE
  5
127
100
AcDbEntity
  8
Шар_1
 62
1
100
AcDbPolyline
 90
2
 70
0
 10
156.807150
 20
221.175148
 30
0.0
 10
156.807150
 20
216.674578
 30
0.0
  0
LWPOLYLINE
  5
128
100
AcDbEntity
  8
Шар_1
 62
1
100
AcDbPolyline
 90
2
 70
0
 10
156.684410
 20
221.175148
 30
0.0
 10
156.807150
 20
221.175148
 30
0.0
  0
LWPOLYLINE
  5
129
100
AcDbEntity
  8
Шар_1
 62
1
100
AcDbPolyline
 90
2
 70
0
 10
155.920260
 20
220.397268
 30
0.0
 10
156.684410
 20
221.175148
 30
0.0
  0
LWPOLYLINE
  5
12a
100
AcDbEntity
  8
Шар_1
 62
1
100
AcDbPolyline
 90
2
 70
0
 10
155.920260
 20
220.397268
 30
0.0
 10
155.100850
 20
221.175148
 30
0.0
  0
LWPOLYLINE
  5
12b
100
AcDbEntity
  8
Шар_1
 62
1
100
AcDbPolyline
 90
2
 70
0
 10
151.739680
 20
221.175148
 30
0.0
 10
155.100850
 20
221.175148
 30
0.0
  0
LWPOLYLINE
  5
12c
100
AcDbEntity
  8
Шар_1
 62
1
100
AcDbPolyline
 90
2
 70
0
 10
150.920260
 20
220.397268
 30
0.0
 10
151.739680
 20
221.175148
 30
0.0
  0
LWPOLYLINE
  5
12d
100
AcDbEntity
  8
Шар_1
 62
1
100
AcDbPolyline
 90
2
 70
0
 10
150.920260
 20
220.397268
 30
0.0
 10
150.156110
 20
221.175148
 30
0.0
  0
LWPOLYLINE
  5
12e
100
AcDbEntity
  8
Шар_1
 62
1
100
AcDbPolyline
 90
2
 70
0
 10
149.807150
 20
221.175148
 30
0.0
 10
150.156110
 20
221.175148
 30
0.0
  0
LWPOLYLINE
  5
12f
100
AcDbEntity
  8
Шар_1
 62
1
100
AcDbPolyline
 90
2
 70
0
 10
149.807150
 20
216.674578
 30
0.0
 10
149.807150
 20
221.175148
 30
0.0
  0
LWPOLYLINE
  5
130
100
AcDbEntity
  8
Шар_1
 62
1
100
AcDbPolyline
 90
2
 70
0
 10
150.112080
 20
216.674578
 30
0.0
 10
149.807150
 20
216.674578
 30
0.0
  0
LWPOLYLINE
  5
131
100
AcDbEntity
  8
Шар_1
 62
1
100
AcDbPolyline
 90
2
 70
0
 10
150.920260
 20
217.497438
 30
0.0
 10
150.112080
 20
216.674578
 30
0.0
  0
LWPOLYLINE
  5
132
100
AcDbEntity
  8
Шар_1
 62
1
100
AcDbPolyline
 90
2
 70
0
 10
150.841780
 20
206.345248
 30
0.0
 10
149.946060
 20
207.194558
 30
0.0
  0
LWPOLYLINE
  5
133
100
AcDbEntity
  8
Шар_1
 62
1
100
AcDbPolyline
 90
2
 70
0
 10
149.841790
 20
207.194558
 30
0.0
 10
149.946060
 20
207.194558
 30
0.0
  0
LWPOLYLINE
  5
134
100
AcDbEntity
  8
Шар_1
 62
1
100
AcDbPolyline
 90
2
 70
0
 10
149.841790
 20
202.693998
 30
0.0
 10
149.841790
 20
207.194558
 30
0.0
  0
LWPOLYLINE
  5
135
100
AcDbEntity
  8
Шар_1
 62
1
100
AcDbPolyline
 90
2
 70
0
 10
149.946060
 20
202.693998
 30
0.0
 10
149.841790
 20
202.693998
 30
0.0
  0
LWPOLYLINE
  5
136
100
AcDbEntity
  8
Шар_1
 62
1
100
AcDbPolyline
 90
2
 70
0
 10
150.841780
 20
203.545958
 30
0.0
 10
149.946060
 20
202.693998
 30
0.0
  0
LWPOLYLINE
  5
137
100
AcDbEntity
  8
Шар_1
 62
1
100
AcDbPolyline
 90
2
 70
0
 10
150.841780
 20
203.545958
 30
0.0
 10
151.677070
 20
202.693998
 30
0.0
  0
LWPOLYLINE
  5
138
100
AcDbEntity
  8
Шар_1
 62
1
100
AcDbPolyline
 90
2
 70
0
 10
155.006490
 20
202.693998
 30
0.0
 10
151.677070
 20
202.693998
 30
0.0
  0
LWPOLYLINE
  5
139
100
AcDbEntity
  8
Шар_1
 62
1
100
AcDbPolyline
 90
2
 70
0
 10
155.841780
 20
203.545958
 30
0.0
 10
155.006490
 20
202.693998
 30
0.0
  0
LWPOLYLINE
  5
13a
100
AcDbEntity
  8
Шар_1
 62
1
100
AcDbPolyline
 90
2
 70
0
 10
155.841780
 20
203.545958
 30
0.0
 10
156.737500
 20
202.693998
 30
0.0
  0
LWPOLYLINE
  5
13b
100
AcDbEntity
  8
Шар_1
 62
1
100
AcDbPolyline
 90
2
 70
0
 10
156.841770
 20
202.693998
 30
0.0
 10
156.737500
 20
202.693998
 30
0.0
  0
LWPOLYLINE
  5
13c
100
AcDbEntity
  8
Шар_1
 62
1
100
AcDbPolyline
 90
2
 70
0
 10
156.841770
 20
207.194558
 30
0.0
 10
156.841770
 20
202.693998
 30
0.0
  0
LWPOLYLINE
  5
13d
100
AcDbEntity
  8
Шар_1
 62
1
100
AcDbPolyline
 90
2
 70
0
 10
156.737500
 20
207.194558
 30
0.0
 10
156.841770
 20
207.194558
 30
0.0
  0
LWPOLYLINE
  5
13e
100
AcDbEntity
  8
Шар_1
 62
1
100
AcDbPolyline
 90
2
 70
0
 10
155.841780
 20
206.345248
 30
0.0
 10
156.737500
 20
207.194558
 30
0.0
  0
LWPOLYLINE
  5
13f
100
AcDbEntity
  8
Шар_1
 62
1
100
AcDbPolyline
 90
2
 70
0
 10
155.841780
 20
206.345248
 30
0.0
 10
155.006490
 20
207.194558
 30
0.0
  0
LWPOLYLINE
  5
140
100
AcDbEntity
  8
Шар_1
 62
1
100
AcDbPolyline
 90
2
 70
0
 10
151.677070
 20
207.194558
 30
0.0
 10
155.006490
 20
207.194558
 30
0.0
  0
SPLINE
  5
141
100
AcDbEntity
  8
Шар_1
 62
1
100
AcDbSpline
 70
8
 71
3
 72
8
 73
4
 74
0
 40
0
 40
0
 40
0
 40
0
 40
1
 40
1
 40
1
 40
1
 10
167.441780
 20
238.944798
 30
0.0
 10
167.441468
 20
239.828233
 30
0.0
 10
166.725215
 20
240.544232
 30
0.0
 10
165.841780
 20
240.544232
 30
0.0
  0
SPLINE
  5
142
100
AcDbEntity
  8
Шар_1
 62
1
100
AcDbSpline
 70
8
 71
3
 72
8
 73
4
 74
0
 40
0
 40
0
 40
0
 40
0
 40
1
 40
1
 40
1
 40
1
 10
165.841780
 20
240.544232
 30
0.0
 10
164.958345
 20
240.544232
 30
0.0
 10
164.242092
 20
239.828233
 30
0.0
 10
164.241780
 20
238.944798
 30
0.0
  0
SPLINE
  5
143
100
AcDbEntity
  8
Шар_1
 62
1
100
AcDbSpline
 70
8
 71
3
 72
8
 73
4
 74
0
 40
0
 40
0
 40
0
 40
0
 40
1
 40
1
 40
1
 40
1
 10
164.241780
 20
238.944798
 30
0.0
 10
164.242092
 20
238.061363
 30
0.0
 10
164.958345
 20
237.345364
 30
0.0
 10
165.841780
 20
237.345364
 30
0.0
  0
SPLINE
  5
144
100
AcDbEntity
  8
Шар_1
 62
1
100
AcDbSpline
 70
8
 71
3
 72
8
 73
4
 74
0
 40
0
 40
0
 40
0
 40
0
 40
1
 40
1
 40
1
 40
1
 10
165.841780
 20
237.345364
 30
0.0
 10
166.725215
 20
237.345364
 30
0.0
 10
167.441468
 20
238.061363
 30
0.0
 10
167.441780
 20
238.944798
 30
0.0
  0
LWPOLYLINE
  5
145
100
AcDbEntity
  8
Шар_1
 62
1
100
AcDbPolyline
 90
2
 70
0
 10
150.841780
 20
206.345248
 30
0.0
 10
151.677070
 20
207.194558
 30
0.0
  0
SPLINE
  5
146
100
AcDbEntity
  8
Шар_1
 62
1
100
AcDbSpline
 70
8
 71
3
 72
8
 73
4
 74
0
 40
0
 40
0
 40
0
 40
0
 40
1
 40
1
 40
1
 40
1
 10
142.441780
 20
238.944798
 30
0.0
 10
142.441468
 20
239.828233
 30
0.0
 10
141.725215
 20
240.544232
 30
0.0
 10
140.841780
 20
240.544232
 30
0.0
  0
SPLINE
  5
147
100
AcDbEntity
  8
Шар_1
 62
1
100
AcDbSpline
 70
8
 71
3
 72
8
 73
4
 74
0
 40
0
 40
0
 40
0
 40
0
 40
1
 40
1
 40
1
 40
1
 10
140.841780
 20
240.544232
 30
0.0
 10
139.958345
 20
240.544232
 30
0.0
 10
139.242092
 20
239.828233
 30
0.0
 10
139.241780
 20
238.944798
 30
0.0
  0
SPLINE
  5
148
100
AcDbEntity
  8
Шар_1
 62
1
100
AcDbSpline
 70
8
 71
3
 72
8
 73
4
 74
0
 40
0
 40
0
 40
0
 40
0
 40
1
 40
1
 40
1
 40
1
 10
139.241780
 20
238.944798
 30
0.0
 10
139.242092
 20
238.061363
 30
0.0
 10
139.958345
 20
237.345364
 30
0.0
 10
140.841780
 20
237.345364
 30
0.0
  0
SPLINE
  5
149
100
AcDbEntity
  8
Шар_1
 62
1
100
AcDbSpline
 70
8
 71
3
 72
8
 73
4
 74
0
 40
0
 40
0
 40
0
 40
0
 40
1
 40
1
 40
1
 40
1
 10
140.841780
 20
237.345364
 30
0.0
 10
141.725215
 20
237.345364
 30
0.0
 10
142.441468
 20
238.061363
 30
0.0
 10
142.441780
 20
238.944798
 30
0.0
  0
LWPOLYLINE
  5
14a
100
AcDbEntity
  8
Шар_1
 62
1
100
AcDbPolyline
 90
1
 70
1
 10
167.441780
 20
238.944798
 30
0.0
  0
SPLINE
  5
14b
100
AcDbEntity
  8
Шар_1
 62
1
100
AcDbSpline
 70
8
 71
3
 72
8
 73
4
 74
0
 40
0
 40
0
 40
0
 40
0
 40
1
 40
1
 40
1
 40
1
 10
167.441780
 20
198.944798
 30
0.0
 10
167.441468
 20
199.828233
 30
0.0
 10
166.725215
 20
200.544232
 30
0.0
 10
165.841780
 20
200.544232
 30
0.0
  0
SPLINE
  5
14c
100
AcDbEntity
  8
Шар_1
 62
1
100
AcDbSpline
 70
8
 71
3
 72
8
 73
4
 74
0
 40
0
 40
0
 40
0
 40
0
 40
1
 40
1
 40
1
 40
1
 10
165.841780
 20
200.544232
 30
0.0
 10
164.958345
 20
200.544232
 30
0.0
 10
164.242092
 20
199.828233
 30
0.0
 10
164.241780
 20
198.944798
 30
0.0
  0
SPLINE
  5
14d
100
AcDbEntity
  8
Шар_1
 62
1
100
AcDbSpline
 70
8
 71
3
 72
8
 73
4
 74
0
 40
0
 40
0
 40
0
 40
0
 40
1
 40
1
 40
1
 40
1
 10
164.241780
 20
198.944798
 30
0.0
 10
164.242092
 20
198.061363
 30
0.0
 10
164.958345
 20
197.345364
 30
0.0
 10
165.841780
 20
197.345364
 30
0.0
  0
SPLINE
  5
14e
100
AcDbEntity
  8
Шар_1
 62
1
100
AcDbSpline
 70
8
 71
3
 72
8
 73
4
 74
0
 40
0
 40
0
 40
0
 40
0
 40
1
 40
1
 40
1
 40
1
 10
165.841780
 20
197.345364
 30
0.0
 10
166.725215
 20
197.345364
 30
0.0
 10
167.441468
 20
198.061363
 30
0.0
 10
167.441780
 20
198.944798
 30
0.0
  0
LWPOLYLINE
  5
14f
100
AcDbEntity
  8
Шар_1
 62
1
100
AcDbPolyline
 90
1
 70
1
 10
142.441780
 20
238.944798
 30
0.0
  0
SPLINE
  5
150
100
AcDbEntity
  8
Шар_1
 62
1
100
AcDbSpline
 70
8
 71
3
 72
8
 73
4
 74
0
 40
0
 40
0
 40
0
 40
0
 40
1
 40
1
 40
1
 40
1
 10
142.441780
 20
198.944798
 30
0.0
 10
142.441468
 20
199.828233
 30
0.0
 10
141.725215
 20
200.544232
 30
0.0
 10
140.841780
 20
200.544232
 30
0.0
  0
SPLINE
  5
151
100
AcDbEntity
  8
Шар_1
 62
1
100
AcDbSpline
 70
8
 71
3
 72
8
 73
4
 74
0
 40
0
 40
0
 40
0
 40
0
 40
1
 40
1
 40
1
 40
1
 10
140.841780
 20
200.544232
 30
0.0
 10
139.958345
 20
200.544232
 30
0.0
 10
139.242092
 20
199.828233
 30
0.0
 10
139.241780
 20
198.944798
 30
0.0
  0
SPLINE
  5
152
100
AcDbEntity
  8
Шар_1
 62
1
100
AcDbSpline
 70
8
 71
3
 72
8
 73
4
 74
0
 40
0
 40
0
 40
0
 40
0
 40
1
 40
1
 40
1
 40
1
 10
139.241780
 20
198.944798
 30
0.0
 10
139.242092
 20
198.061363
 30
0.0
 10
139.958345
 20
197.345364
 30
0.0
 10
140.841780
 20
197.345364
 30
0.0
  0
SPLINE
  5
153
100
AcDbEntity
  8
Шар_1
 62
1
100
AcDbSpline
 70
8
 71
3
 72
8
 73
4
 74
0
 40
0
 40
0
 40
0
 40
0
 40
1
 40
1
 40
1
 40
1
 10
140.841780
 20
197.345364
 30
0.0
 10
141.725215
 20
197.345364
 30
0.0
 10
142.441468
 20
198.061363
 30
0.0
 10
142.441780
 20
198.944798
 30
0.0
  0
LWPOLYLINE
  5
154
100
AcDbEntity
  8
Шар_1
 62
1
100
AcDbPolyline
 90
1
 70
1
 10
167.441780
 20
198.944798
 30
0.0
  0
SPLINE
  5
155
100
AcDbEntity
  8
Шар_1
 62
7
100
AcDbSpline
 70
8
 71
3
 72
8
 73
4
 74
0
 40
0
 40
0
 40
0
 40
0
 40
1
 40
1
 40
1
 40
1
 10
48.788179
 20
181.561870
 30
0.0
 10
48.788176
 20
181.031435
 30
0.0
 10
48.998889
 20
180.522725
 30
0.0
 10
49.373962
 20
180.147650
 30
0.0
  0
SPLINE
  5
156
100
AcDbEntity
  8
Шар_1
 62
7
100
AcDbSpline
 70
8
 71
3
 72
8
 73
4
 74
0
 40
0
 40
0
 40
0
 40
0
 40
1
 40
1
 40
1
 40
1
 10
49.373962
 20
180.147650
 30
0.0
 10
49.749035
 20
179.772575
 30
0.0
 10
50.257745
 20
179.561860
 30
0.0
 10
50.788180
 20
179.561860
 30
0.0
  0
LWPOLYLINE
  5
157
100
AcDbEntity
  8
Шар_1
 62
1
100
AcDbPolyline
 90
1
 70
1
 10
142.441780
 20
198.944798
 30
0.0
  0
SPLINE
  5
158
100
AcDbEntity
  8
Шар_1
 62
7
100
AcDbSpline
 70
8
 71
3
 72
8
 73
4
 74
0
 40
0
 40
0
 40
0
 40
0
 40
1
 40
1
 40
1
 40
1
 10
50.788180
 20
191.561870
 30
0.0
 10
50.257745
 20
191.561870
 30
0.0
 10
49.749035
 20
191.351155
 30
0.0
 10
49.373962
 20
190.976080
 30
0.0
  0
SPLINE
  5
159
100
AcDbEntity
  8
Шар_1
 62
7
100
AcDbSpline
 70
8
 71
3
 72
8
 73
4
 74
0
 40
0
 40
0
 40
0
 40
0
 40
1
 40
1
 40
1
 40
1
 10
49.373962
 20
190.976080
 30
0.0
 10
48.998889
 20
190.601005
 30
0.0
 10
48.788176
 20
190.092295
 30
0.0
 10
48.788179
 20
189.561860
 30
0.0
  0
LWPOLYLINE
  5
15a
100
AcDbEntity
  8
Шар_1
 62
7
100
AcDbPolyline
 90
2
 70
0
 10
48.788094
 20
189.560940
 30
0.0
 10
48.788094
 20
181.562580
 30
0.0
  0
SPLINE
  5
15b
100
AcDbEntity
  8
Шар_1
 62
7
100
AcDbSpline
 70
8
 71
3
 72
8
 73
4
 74
0
 40
0
 40
0
 40
0
 40
0
 40
1
 40
1
 40
1
 40
1
 10
58.788180
 20
189.561860
 30
0.0
 10
58.788183
 20
190.092295
 30
0.0
 10
58.577470
 20
190.601005
 30
0.0
 10
58.202397
 20
190.976080
 30
0.0
  0
SPLINE
  5
15c
100
AcDbEntity
  8
Шар_1
 62
7
100
AcDbSpline
 70
8
 71
3
 72
8
 73
4
 74
0
 40
0
 40
0
 40
0
 40
0
 40
1
 40
1
 40
1
 40
1
 10
58.202397
 20
190.976080
 30
0.0
 10
57.827324
 20
191.351155
 30
0.0
 10
57.318614
 20
191.561870
 30
0.0
 10
56.788179
 20
191.561870
 30
0.0
  0
LWPOLYLINE
  5
15d
100
AcDbEntity
  8
Шар_1
 62
7
100
AcDbPolyline
 90
2
 70
0
 10
56.788301
 20
191.561190
 30
0.0
 10
50.788080
 20
191.561190
 30
0.0
  0
SPLINE
  5
15e
100
AcDbEntity
  8
Шар_1
 62
7
100
AcDbSpline
 70
8
 71
3
 72
8
 73
4
 74
0
 40
0
 40
0
 40
0
 40
0
 40
1
 40
1
 40
1
 40
1
 10
56.788179
 20
179.561860
 30
0.0
 10
57.318614
 20
179.561860
 30
0.0
 10
57.827324
 20
179.772575
 30
0.0
 10
58.202397
 20
180.147650
 30
0.0
  0
SPLINE
  5
15f
100
AcDbEntity
  8
Шар_1
 62
7
100
AcDbSpline
 70
8
 71
3
 72
8
 73
4
 74
0
 40
0
 40
0
 40
0
 40
0
 40
1
 40
1
 40
1
 40
1
 10
58.202397
 20
180.147650
 30
0.0
 10
58.577470
 20
180.522725
 30
0.0
 10
58.788183
 20
181.031435
 30
0.0
 10
58.788180
 20
181.561870
 30
0.0
  0
LWPOLYLINE
  5
160
100
AcDbEntity
  8
Шар_1
 62
7
100
AcDbPolyline
 90
2
 70
0
 10
58.788286
 20
181.562580
 30
0.0
 10
58.788286
 20
189.560940
 30
0.0
  0
SPLINE
  5
161
100
AcDbEntity
  8
Шар_1
 62
7
100
AcDbSpline
 70
8
 71
3
 72
8
 73
4
 74
0
 40
0
 40
0
 40
0
 40
0
 40
1
 40
1
 40
1
 40
1
 10
79.419756
 20
181.679340
 30
0.0
 10
79.419767
 20
180.574779
 30
0.0
 10
80.315193
 20
179.679361
 30
0.0
 10
81.419754
 20
179.679360
 30
0.0
  0
LWPOLYLINE
  5
162
100
AcDbEntity
  8
Шар_1
 62
7
100
AcDbPolyline
 90
2
 70
0
 10
50.788080
 20
179.562330
 30
0.0
 10
56.788301
 20
179.562330
 30
0.0
  0
SPLINE
  5
163
100
AcDbEntity
  8
Шар_1
 62
7
100
AcDbSpline
 70
8
 71
3
 72
8
 73
4
 74
0
 40
0
 40
0
 40
0
 40
0
 40
1
 40
1
 40
1
 40
1
 10
81.419754
 20
191.679350
 30
0.0
 10
80.315189
 20
191.679349
 30
0.0
 10
79.419761
 20
190.783925
 30
0.0
 10
79.419756
 20
189.679360
 30
0.0
  0
LWPOLYLINE
  5
164
100
AcDbEntity
  8
Шар_1
 62
7
100
AcDbPolyline
 90
2
 70
0
 10
79.419700
 20
189.680000
 30
0.0
 10
79.419700
 20
181.679000
 30
0.0
  0
SPLINE
  5
165
100
AcDbEntity
  8
Шар_1
 62
7
100
AcDbSpline
 70
8
 71
3
 72
8
 73
4
 74
0
 40
0
 40
0
 40
0
 40
0
 40
1
 40
1
 40
1
 40
1
 10
89.419754
 20
189.679360
 30
0.0
 10
89.419749
 20
190.783925
 30
0.0
 10
88.524321
 20
191.679349
 30
0.0
 10
87.419756
 20
191.679350
 30
0.0
  0
LWPOLYLINE
  5
166
100
AcDbEntity
  8
Шар_1
 62
7
100
AcDbPolyline
 90
2
 70
0
 10
87.419642
 20
191.680250
 30
0.0
 10
81.419686
 20
191.680250
 30
0.0
  0
SPLINE
  5
167
100
AcDbEntity
  8
Шар_1
 62
7
100
AcDbSpline
 70
8
 71
3
 72
8
 73
4
 74
0
 40
0
 40
0
 40
0
 40
0
 40
1
 40
1
 40
1
 40
1
 10
87.419756
 20
179.679360
 30
0.0
 10
88.524317
 20
179.679361
 30
0.0
 10
89.419743
 20
180.574779
 30
0.0
 10
89.419754
 20
181.679340
 30
0.0
  0
LWPOLYLINE
  5
168
100
AcDbEntity
  8
Шар_1
 62
7
100
AcDbPolyline
 90
2
 70
0
 10
89.419627
 20
181.679000
 30
0.0
 10
89.419627
 20
189.680000
 30
0.0
  0
SPLINE
  5
169
100
AcDbEntity
  8
Шар_1
 62
7
100
AcDbSpline
 70
8
 71
3
 72
8
 73
4
 74
0
 40
0
 40
0
 40
0
 40
0
 40
1
 40
1
 40
1
 40
1
 10
107.621870
 20
181.803330
 30
0.0
 10
107.621875
 20
180.698764
 30
0.0
 10
108.517304
 20
179.803340
 30
0.0
 10
109.621870
 20
179.803340
 30
0.0
  0
LWPOLYLINE
  5
16a
100
AcDbEntity
  8
Шар_1
 62
7
100
AcDbPolyline
 90
2
 70
0
 10
81.419686
 20
179.678750
 30
0.0
 10
87.419642
 20
179.678750
 30
0.0
  0
SPLINE
  5
16b
100
AcDbEntity
  8
Шар_1
 62
7
100
AcDbSpline
 70
8
 71
3
 72
8
 73
4
 74
0
 40
0
 40
0
 40
0
 40
0
 40
1
 40
1
 40
1
 40
1
 10
109.621870
 20
191.803330
 30
0.0
 10
108.517308
 20
191.803330
 30
0.0
 10
107.621881
 20
190.907912
 30
0.0
 10
107.621870
 20
189.803350
 30
0.0
  0
LWPOLYLINE
  5
16c
100
AcDbEntity
  8
Шар_1
 62
7
100
AcDbPolyline
 90
2
 70
0
 10
107.621900
 20
189.804350
 30
0.0
 10
107.621900
 20
181.803350
 30
0.0
  0
SPLINE
  5
16d
100
AcDbEntity
  8
Шар_1
 62
7
100
AcDbSpline
 70
8
 71
3
 72
8
 73
4
 74
0
 40
0
 40
0
 40
0
 40
0
 40
1
 40
1
 40
1
 40
1
 10
117.621870
 20
189.803350
 30
0.0
 10
117.621859
 20
190.907912
 30
0.0
 10
116.726432
 20
191.803330
 30
0.0
 10
115.621870
 20
191.803330
 30
0.0
  0
LWPOLYLINE
  5
16e
100
AcDbEntity
  8
Шар_1
 62
7
100
AcDbPolyline
 90
2
 70
0
 10
115.621840
 20
191.804600
 30
0.0
 10
109.621880
 20
191.804600
 30
0.0
  0
SPLINE
  5
16f
100
AcDbEntity
  8
Шар_1
 62
7
100
AcDbSpline
 70
8
 71
3
 72
8
 73
4
 74
0
 40
0
 40
0
 40
0
 40
0
 40
1
 40
1
 40
1
 40
1
 10
115.621870
 20
179.803340
 30
0.0
 10
116.726436
 20
179.803340
 30
0.0
 10
117.621865
 20
180.698764
 30
0.0
 10
117.621870
 20
181.803330
 30
0.0
  0
LWPOLYLINE
  5
170
100
AcDbEntity
  8
Шар_1
 62
7
100
AcDbPolyline
 90
2
 70
0
 10
117.621820
 20
181.803350
 30
0.0
 10
117.621820
 20
189.804350
 30
0.0
  0
LWPOLYLINE
  5
171
100
AcDbEntity
  8
Шар_1
 62
7
100
AcDbPolyline
 90
2
 70
0
 10
109.621880
 20
179.803100
 30
0.0
 10
115.621840
 20
179.803100
 30
0.0
  0
LWPOLYLINE
  5
172
100
AcDbEntity
  8
Шар_1
 62
1
100
AcDbPolyline
 90
2
 70
0
 10
111.121810
 20
187.304040
 30
0.0
 10
109.221830
 20
187.304040
 30
0.0
  0
LWPOLYLINE
  5
173
100
AcDbEntity
  8
Шар_1
 62
1
100
AcDbPolyline
 90
2
 70
0
 10
111.121810
 20
184.303670
 30
0.0
 10
111.121810
 20
187.304040
 30
0.0
  0
LWPOLYLINE
  5
174
100
AcDbEntity
  8
Шар_1
 62
1
100
AcDbPolyline
 90
2
 70
0
 10
109.221830
 20
184.303670
 30
0.0
 10
111.121810
 20
184.303670
 30
0.0
  0
LWPOLYLINE
  5
175
100
AcDbEntity
  8
Шар_1
 62
1
100
AcDbPolyline
 90
2
 70
0
 10
109.221830
 20
187.304040
 30
0.0
 10
109.221830
 20
184.303670
 30
0.0
  0
LWPOLYLINE
  5
176
100
AcDbEntity
  8
Шар_1
 62
1
100
AcDbPolyline
 90
2
 70
0
 10
116.021890
 20
184.303670
 30
0.0
 10
116.021890
 20
187.304040
 30
0.0
  0
LWPOLYLINE
  5
177
100
AcDbEntity
  8
Шар_1
 62
1
100
AcDbPolyline
 90
2
 70
0
 10
114.121920
 20
184.303670
 30
0.0
 10
116.021890
 20
184.303670
 30
0.0
  0
LWPOLYLINE
  5
178
100
AcDbEntity
  8
Шар_1
 62
1
100
AcDbPolyline
 90
2
 70
0
 10
114.121920
 20
187.304040
 30
0.0
 10
114.121920
 20
184.303670
 30
0.0
  0
LWPOLYLINE
  5
179
100
AcDbEntity
  8
Шар_1
 62
1
100
AcDbPolyline
 90
2
 70
0
 10
116.021890
 20
187.304040
 30
0.0
 10
114.121920
 20
187.304040
 30
0.0
  0
LWPOLYLINE
  5
17a
100
AcDbEntity
  8
Шар_1
 62
1
100
AcDbPolyline
 90
2
 70
0
 10
82.919873
 20
187.179690
 30
0.0
 10
81.019636
 20
187.179690
 30
0.0
  0
LWPOLYLINE
  5
17b
100
AcDbEntity
  8
Шар_1
 62
1
100
AcDbPolyline
 90
2
 70
0
 10
82.919873
 20
184.179310
 30
0.0
 10
82.919873
 20
187.179690
 30
0.0
  0
LWPOLYLINE
  5
17c
100
AcDbEntity
  8
Шар_1
 62
1
100
AcDbPolyline
 90
2
 70
0
 10
81.019636
 20
184.179310
 30
0.0
 10
82.919873
 20
184.179310
 30
0.0
  0
LWPOLYLINE
  5
17d
100
AcDbEntity
  8
Шар_1
 62
1
100
AcDbPolyline
 90
2
 70
0
 10
81.019636
 20
187.179690
 30
0.0
 10
81.019636
 20
184.179310
 30
0.0
  0
LWPOLYLINE
  5
17e
100
AcDbEntity
  8
Шар_1
 62
1
100
AcDbPolyline
 90
2
 70
0
 10
87.819692
 20
184.179310
 30
0.0
 10
87.819692
 20
187.179690
 30
0.0
  0
LWPOLYLINE
  5
17f
100
AcDbEntity
  8
Шар_1
 62
1
100
AcDbPolyline
 90
2
 70
0
 10
85.919719
 20
184.179310
 30
0.0
 10
87.819692
 20
184.179310
 30
0.0
  0
LWPOLYLINE
  5
180
100
AcDbEntity
  8
Шар_1
 62
1
100
AcDbPolyline
 90
2
 70
0
 10
85.919719
 20
187.179690
 30
0.0
 10
85.919719
 20
184.179310
 30
0.0
  0
LWPOLYLINE
  5
181
100
AcDbEntity
  8
Шар_1
 62
1
100
AcDbPolyline
 90
2
 70
0
 10
87.819692
 20
187.179690
 30
0.0
 10
85.919719
 20
187.179690
 30
0.0
  0
LWPOLYLINE
  5
182
100
AcDbEntity
  8
Шар_1
 62
1
100
AcDbPolyline
 90
2
 70
0
 10
52.388280
 20
187.060630
 30
0.0
 10
50.388294
 20
187.060630
 30
0.0
  0
LWPOLYLINE
  5
183
100
AcDbEntity
  8
Шар_1
 62
1
100
AcDbPolyline
 90
2
 70
0
 10
52.388280
 20
184.160790
 30
0.0
 10
52.388280
 20
187.060630
 30
0.0
  0
LWPOLYLINE
  5
184
100
AcDbEntity
  8
Шар_1
 62
1
100
AcDbPolyline
 90
2
 70
0
 10
50.388294
 20
184.160790
 30
0.0
 10
52.388280
 20
184.160790
 30
0.0
  0
LWPOLYLINE
  5
185
100
AcDbEntity
  8
Шар_1
 62
1
100
AcDbPolyline
 90
2
 70
0
 10
50.388294
 20
187.060630
 30
0.0
 10
50.388294
 20
184.160790
 30
0.0
  0
LWPOLYLINE
  5
186
100
AcDbEntity
  8
Шар_1
 62
1
100
AcDbPolyline
 90
2
 70
0
 10
57.188086
 20
184.160790
 30
0.0
 10
57.188086
 20
187.060630
 30
0.0
  0
LWPOLYLINE
  5
187
100
AcDbEntity
  8
Шар_1
 62
1
100
AcDbPolyline
 90
2
 70
0
 10
55.188101
 20
184.160790
 30
0.0
 10
57.188086
 20
184.160790
 30
0.0
  0
LWPOLYLINE
  5
188
100
AcDbEntity
  8
Шар_1
 62
1
100
AcDbPolyline
 90
2
 70
0
 10
55.188101
 20
187.060630
 30
0.0
 10
55.188101
 20
184.160790
 30
0.0
  0
SPLINE
  5
189
100
AcDbEntity
  8
Шар_1
 62
3
100
AcDbSpline
 70
8
 71
3
 72
8
 73
4
 74
0
 40
0
 40
0
 40
0
 40
0
 40
1
 40
1
 40
1
 40
1
 10
51.082098
 20
207.523405
 30
0.0
 10
51.082098
 20
206.991484
 30
0.0
 10
50.874014
 20
206.549134
 30
0.0
 10
50.457845
 20
206.196356
 30
0.0
  0
SPLINE
  5
18a
100
AcDbEntity
  8
Шар_1
 62
3
100
AcDbSpline
 70
8
 71
3
 72
8
 73
4
 74
0
 40
0
 40
0
 40
0
 40
0
 40
1
 40
1
 40
1
 40
1
 10
50.457845
 20
206.196356
 30
0.0
 10
50.044434
 20
205.843578
 30
0.0
 10
49.523535
 20
205.667189
 30
0.0
 10
48.895150
 20
205.667189
 30
0.0
  0
SPLINE
  5
18b
100
AcDbEntity
  8
Шар_1
 62
3
100
AcDbSpline
 70
8
 71
3
 72
8
 73
4
 74
0
 40
0
 40
0
 40
0
 40
0
 40
1
 40
1
 40
1
 40
1
 10
48.895150
 20
205.667189
 30
0.0
 10
48.228179
 20
205.667189
 30
0.0
 10
47.696257
 20
205.839443
 30
0.0
 10
47.299382
 20
206.183952
 30
0.0
  0
SPLINE
  5
18c
100
AcDbEntity
  8
Шар_1
 62
3
100
AcDbSpline
 70
8
 71
3
 72
8
 73
4
 74
0
 40
0
 40
0
 40
0
 40
0
 40
1
 40
1
 40
1
 40
1
 10
47.299382
 20
206.183952
 30
0.0
 10
46.905264
 20
206.528463
 30
0.0
 10
46.708205
 20
206.969435
 30
0.0
 10
46.708205
 20
207.506869
 30
0.0
  0
SPLINE
  5
18d
100
AcDbEntity
  8
Шар_1
 62
3
100
AcDbSpline
 70
8
 71
3
 72
8
 73
4
 74
0
 40
0
 40
0
 40
0
 40
0
 40
1
 40
1
 40
1
 40
1
 10
46.708205
 20
207.506869
 30
0.0
 10
46.708205
 20
207.848622
 30
0.0
 10
46.807424
 20
208.157303
 30
0.0
 10
47.005861
 20
208.432911
 30
0.0
  0
SPLINE
  5
18e
100
AcDbEntity
  8
Шар_1
 62
3
100
AcDbSpline
 70
8
 71
3
 72
8
 73
4
 74
0
 40
0
 40
0
 40
0
 40
0
 40
1
 40
1
 40
1
 40
1
 10
47.005861
 20
208.432911
 30
0.0
 10
47.204298
 20
208.711276
 30
0.0
 10
47.484040
 20
208.931762
 30
0.0
 10
47.845085
 20
209.094369
 30
0.0
  0
LWPOLYLINE
  5
18f
100
AcDbEntity
  8
Шар_1
 62
1
100
AcDbPolyline
 90
2
 70
0
 10
57.188086
 20
187.060630
 30
0.0
 10
55.188101
 20
187.060630
 30
0.0
  0
SPLINE
  5
190
100
AcDbEntity
  8
Шар_1
 62
3
100
AcDbSpline
 70
8
 71
3
 72
8
 73
4
 74
0
 40
0
 40
0
 40
0
 40
0
 40
1
 40
1
 40
1
 40
1
 10
47.845085
 20
209.119159
 30
0.0
 10
47.514356
 20
209.295548
 30
0.0
 10
47.269065
 20
209.488474
 30
0.0
 10
47.109213
 20
209.697935
 30
0.0
  0
SPLINE
  5
191
100
AcDbEntity
  8
Шар_1
 62
3
100
AcDbSpline
 70
8
 71
3
 72
8
 73
4
 74
0
 40
0
 40
0
 40
0
 40
0
 40
1
 40
1
 40
1
 40
1
 10
47.109213
 20
209.697935
 30
0.0
 10
46.952118
 20
209.907397
 30
0.0
 10
46.873570
 20
210.169224
 30
0.0
 10
46.873570
 20
210.483417
 30
0.0
  0
SPLINE
  5
192
100
AcDbEntity
  8
Шар_1
 62
3
100
AcDbSpline
 70
8
 71
3
 72
8
 73
4
 74
0
 40
0
 40
0
 40
0
 40
0
 40
1
 40
1
 40
1
 40
1
 10
46.873570
 20
210.483417
 30
0.0
 10
46.873570
 20
210.946438
 30
0.0
 10
47.063739
 20
211.332288
 30
0.0
 10
47.444077
 20
211.640969
 30
0.0
  0
SPLINE
  5
193
100
AcDbEntity
  8
Шар_1
 62
3
100
AcDbSpline
 70
8
 71
3
 72
8
 73
4
 74
0
 40
0
 40
0
 40
0
 40
0
 40
1
 40
1
 40
1
 40
1
 10
47.444077
 20
211.640969
 30
0.0
 10
47.824416
 20
211.949650
 30
0.0
 10
48.308107
 20
212.103990
 30
0.0
 10
48.895150
 20
212.103990
 30
0.0
  0
SPLINE
  5
194
100
AcDbEntity
  8
Шар_1
 62
3
100
AcDbSpline
 70
8
 71
3
 72
8
 73
4
 74
0
 40
0
 40
0
 40
0
 40
0
 40
1
 40
1
 40
1
 40
1
 10
48.895150
 20
212.103990
 30
0.0
 10
49.509756
 20
212.103990
 30
0.0
 10
50.000338
 20
211.956540
 30
0.0
 10
50.366895
 20
211.661641
 30
0.0
  0
SPLINE
  5
195
100
AcDbEntity
  8
Шар_1
 62
3
100
AcDbSpline
 70
8
 71
3
 72
8
 73
4
 74
0
 40
0
 40
0
 40
0
 40
0
 40
1
 40
1
 40
1
 40
1
 10
50.366895
 20
211.661641
 30
0.0
 10
50.733454
 20
211.366740
 30
0.0
 10
50.916734
 20
210.991914
 30
0.0
 10
50.916734
 20
210.537162
 30
0.0
  0
SPLINE
  5
196
100
AcDbEntity
  8
Шар_1
 62
3
100
AcDbSpline
 70
8
 71
3
 72
8
 73
4
 74
0
 40
0
 40
0
 40
0
 40
0
 40
1
 40
1
 40
1
 40
1
 10
50.916734
 20
210.537162
 30
0.0
 10
50.916734
 20
210.258797
 30
0.0
 10
50.829917
 20
209.984567
 30
0.0
 10
50.656283
 20
209.714472
 30
0.0
  0
SPLINE
  5
197
100
AcDbEntity
  8
Шар_1
 62
3
100
AcDbSpline
 70
8
 71
3
 72
8
 73
4
 74
0
 40
0
 40
0
 40
0
 40
0
 40
1
 40
1
 40
1
 40
1
 10
50.656283
 20
209.714472
 30
0.0
 10
50.482651
 20
209.447133
 30
0.0
 10
50.227714
 20
209.237672
 30
0.0
 10
49.891473
 20
209.086087
 30
0.0
  0
LWPOLYLINE
  5
198
100
AcDbEntity
  8
Шар_1
 62
3
100
AcDbPolyline
 90
2
 70
0
 10
47.845085
 20
209.094369
 30
0.0
 10
47.845085
 20
209.119159
 30
0.0
  0
SPLINE
  5
199
100
AcDbEntity
  8
Шар_1
 62
3
100
AcDbSpline
 70
8
 71
3
 72
8
 73
4
 74
0
 40
0
 40
0
 40
0
 40
0
 40
1
 40
1
 40
1
 40
1
 10
49.891473
 20
209.061297
 30
0.0
 10
50.277324
 20
208.895932
 30
0.0
 10
50.572224
 20
208.691983
 30
0.0
 10
50.776174
 20
208.449448
 30
0.0
  0
SPLINE
  5
19a
100
AcDbEntity
  8
Шар_1
 62
3
100
AcDbSpline
 70
8
 71
3
 72
8
 73
4
 74
0
 40
0
 40
0
 40
0
 40
0
 40
1
 40
1
 40
1
 40
1
 10
50.776174
 20
208.449448
 30
0.0
 10
50.980123
 20
208.206913
 30
0.0
 10
51.082098
 20
207.898232
 30
0.0
 10
51.082098
 20
207.523405
 30
0.0
  0
LWPOLYLINE
  5
19b
100
AcDbEntity
  8
Шар_1
 62
3
100
AcDbPolyline
 90
2
 70
0
 10
49.891473
 20
209.086087
 30
0.0
 10
49.891473
 20
209.061297
 30
0.0
  0
SPLINE
  5
19c
100
AcDbEntity
  8
Шар_1
 62
3
100
AcDbSpline
 70
8
 71
3
 72
8
 73
4
 74
0
 40
0
 40
0
 40
0
 40
0
 40
1
 40
1
 40
1
 40
1
 10
50.102312
 20
210.528908
 30
0.0
 10
50.102312
 20
210.823807
 30
0.0
 10
49.987935
 20
211.058074
 30
0.0
 10
49.759181
 20
211.231708
 30
0.0
  0
SPLINE
  5
19d
100
AcDbEntity
  8
Шар_1
 62
3
100
AcDbSpline
 70
8
 71
3
 72
8
 73
4
 74
0
 40
0
 40
0
 40
0
 40
0
 40
1
 40
1
 40
1
 40
1
 10
49.759181
 20
211.231708
 30
0.0
 10
49.533183
 20
211.408097
 30
0.0
 10
49.243795
 20
211.496291
 30
0.0
 10
48.891017
 20
211.496291
 30
0.0
  0
SPLINE
  5
19e
100
AcDbEntity
  8
Шар_1
 62
3
100
AcDbSpline
 70
8
 71
3
 72
8
 73
4
 74
0
 40
0
 40
0
 40
0
 40
0
 40
1
 40
1
 40
1
 40
1
 10
48.891017
 20
211.496291
 30
0.0
 10
48.543752
 20
211.496291
 30
0.0
 10
48.258497
 20
211.413609
 30
0.0
 10
48.035254
 20
211.248244
 30
0.0
  0
SPLINE
  5
19f
100
AcDbEntity
  8
Шар_1
 62
3
100
AcDbSpline
 70
8
 71
3
 72
8
 73
4
 74
0
 40
0
 40
0
 40
0
 40
0
 40
1
 40
1
 40
1
 40
1
 10
48.035254
 20
211.248244
 30
0.0
 10
47.814768
 20
211.082879
 30
0.0
 10
47.704525
 20
210.859637
 30
0.0
 10
47.704525
 20
210.578517
 30
0.0
  0
SPLINE
  5
1a0
100
AcDbEntity
  8
Шар_1
 62
3
100
AcDbSpline
 70
8
 71
3
 72
8
 73
4
 74
0
 40
0
 40
0
 40
0
 40
0
 40
1
 40
1
 40
1
 40
1
 10
47.704525
 20
210.578517
 30
0.0
 10
47.704525
 20
210.380080
 30
0.0
 10
47.759647
 20
210.207825
 30
0.0
 10
47.869890
 20
210.061752
 30
0.0
  0
SPLINE
  5
1a1
100
AcDbEntity
  8
Шар_1
 62
3
100
AcDbSpline
 70
8
 71
3
 72
8
 73
4
 74
0
 40
0
 40
0
 40
0
 40
0
 40
1
 40
1
 40
1
 40
1
 10
47.869890
 20
210.061752
 30
0.0
 10
47.982890
 20
209.918436
 30
0.0
 10
48.152389
 20
209.790279
 30
0.0
 10
48.378387
 20
209.677280
 30
0.0
  0
SPLINE
  5
1a2
100
AcDbEntity
  8
Шар_1
 62
3
100
AcDbSpline
 70
8
 71
3
 72
8
 73
4
 74
0
 40
0
 40
0
 40
0
 40
0
 40
1
 40
1
 40
1
 40
1
 10
48.378387
 20
209.677280
 30
0.0
 10
48.480361
 20
209.627673
 30
0.0
 10
48.626433
 20
209.562905
 30
0.0
 10
48.816603
 20
209.482976
 30
0.0
  0
SPLINE
  5
1a3
100
AcDbEntity
  8
Шар_1
 62
3
100
AcDbSpline
 70
8
 71
3
 72
8
 73
4
 74
0
 40
0
 40
0
 40
0
 40
0
 40
1
 40
1
 40
1
 40
1
 10
48.816603
 20
209.482976
 30
0.0
 10
49.009528
 20
209.403051
 30
0.0
 10
49.196942
 20
209.336905
 30
0.0
 10
49.378843
 20
209.284538
 30
0.0
  0
SPLINE
  5
1a4
100
AcDbEntity
  8
Шар_1
 62
3
100
AcDbSpline
 70
8
 71
3
 72
8
 73
4
 74
0
 40
0
 40
0
 40
0
 40
0
 40
1
 40
1
 40
1
 40
1
 10
49.378843
 20
209.284538
 30
0.0
 10
49.651694
 20
209.466439
 30
0.0
 10
49.840484
 20
209.655231
 30
0.0
 10
49.945215
 20
209.850913
 30
0.0
  0
SPLINE
  5
1a5
100
AcDbEntity
  8
Шар_1
 62
3
100
AcDbSpline
 70
8
 71
3
 72
8
 73
4
 74
0
 40
0
 40
0
 40
0
 40
0
 40
1
 40
1
 40
1
 40
1
 10
49.945215
 20
209.850913
 30
0.0
 10
50.049946
 20
210.046594
 30
0.0
 10
50.102312
 20
210.272592
 30
0.0
 10
50.102312
 20
210.528908
 30
0.0
  0
LWPOLYLINE
  5
1a6
100
AcDbEntity
  8
Шар_1
 62
3
100
AcDbPolyline
 90
1
 70
1
 10
51.082098
 20
207.523405
 30
0.0
  0
SPLINE
  5
1a7
100
AcDbEntity
  8
Шар_1
 62
3
100
AcDbSpline
 70
8
 71
3
 72
8
 73
4
 74
0
 40
0
 40
0
 40
0
 40
0
 40
1
 40
1
 40
1
 40
1
 10
50.230471
 20
207.444859
 30
0.0
 10
50.230471
 20
207.698418
 30
0.0
 10
50.173971
 20
207.900989
 30
0.0
 10
50.060970
 20
208.052572
 30
0.0
  0
SPLINE
  5
1a8
100
AcDbEntity
  8
Шар_1
 62
3
100
AcDbSpline
 70
8
 71
3
 72
8
 73
4
 74
0
 40
0
 40
0
 40
0
 40
0
 40
1
 40
1
 40
1
 40
1
 10
50.060970
 20
208.052572
 30
0.0
 10
49.950727
 20
208.206913
 30
0.0
 10
49.732997
 20
208.361253
 30
0.0
 10
49.407780
 20
208.515593
 30
0.0
  0
SPLINE
  5
1a9
100
AcDbEntity
  8
Шар_1
 62
3
100
AcDbSpline
 70
8
 71
3
 72
8
 73
4
 74
0
 40
0
 40
0
 40
0
 40
0
 40
1
 40
1
 40
1
 40
1
 10
49.407780
 20
208.515593
 30
0.0
 10
49.278245
 20
208.576226
 30
0.0
 10
49.136308
 20
208.632726
 30
0.0
 10
48.981968
 20
208.685093
 30
0.0
  0
SPLINE
  5
1aa
100
AcDbEntity
  8
Шар_1
 62
3
100
AcDbSpline
 70
8
 71
3
 72
8
 73
4
 74
0
 40
0
 40
0
 40
0
 40
0
 40
1
 40
1
 40
1
 40
1
 10
48.981968
 20
208.685093
 30
0.0
 10
48.827628
 20
208.737460
 30
0.0
 10
48.622300
 20
208.810495
 30
0.0
 10
48.365984
 20
208.904200
 30
0.0
  0
SPLINE
  5
1ab
100
AcDbEntity
  8
Шар_1
 62
3
100
AcDbSpline
 70
8
 71
3
 72
8
 73
4
 74
0
 40
0
 40
0
 40
0
 40
0
 40
1
 40
1
 40
1
 40
1
 10
48.365984
 20
208.904200
 30
0.0
 10
48.117937
 20
208.769153
 30
0.0
 10
47.918121
 20
208.585874
 30
0.0
 10
47.766538
 20
208.354364
 30
0.0
  0
SPLINE
  5
1ac
100
AcDbEntity
  8
Шар_1
 62
3
100
AcDbSpline
 70
8
 71
3
 72
8
 73
4
 74
0
 40
0
 40
0
 40
0
 40
0
 40
1
 40
1
 40
1
 40
1
 10
47.766538
 20
208.354364
 30
0.0
 10
47.617710
 20
208.122853
 30
0.0
 10
47.543296
 20
207.861026
 30
0.0
 10
47.543296
 20
207.568882
 30
0.0
  0
SPLINE
  5
1ad
100
AcDbEntity
  8
Шар_1
 62
3
100
AcDbSpline
 70
8
 71
3
 72
8
 73
4
 74
0
 40
0
 40
0
 40
0
 40
0
 40
1
 40
1
 40
1
 40
1
 10
47.543296
 20
207.568882
 30
0.0
 10
47.543296
 20
207.196811
 30
0.0
 10
47.671453
 20
206.889508
 30
0.0
 10
47.927767
 20
206.646973
 30
0.0
  0
SPLINE
  5
1ae
100
AcDbEntity
  8
Шар_1
 62
3
100
AcDbSpline
 70
8
 71
3
 72
8
 73
4
 74
0
 40
0
 40
0
 40
0
 40
0
 40
1
 40
1
 40
1
 40
1
 10
47.927767
 20
206.646973
 30
0.0
 10
48.184083
 20
206.404438
 30
0.0
 10
48.509300
 20
206.283171
 30
0.0
 10
48.903418
 20
206.283171
 30
0.0
  0
SPLINE
  5
1af
100
AcDbEntity
  8
Шар_1
 62
3
100
AcDbSpline
 70
8
 71
3
 72
8
 73
4
 74
0
 40
0
 40
0
 40
0
 40
0
 40
1
 40
1
 40
1
 40
1
 10
48.903418
 20
206.283171
 30
0.0
 10
49.305805
 20
206.283171
 30
0.0
 10
49.626889
 20
206.386524
 30
0.0
 10
49.866668
 20
206.593231
 30
0.0
  0
SPLINE
  5
1b0
100
AcDbEntity
  8
Шар_1
 62
3
100
AcDbSpline
 70
8
 71
3
 72
8
 73
4
 74
0
 40
0
 40
0
 40
0
 40
0
 40
1
 40
1
 40
1
 40
1
 10
49.866668
 20
206.593231
 30
0.0
 10
50.109203
 20
206.799936
 30
0.0
 10
50.230471
 20
207.083812
 30
0.0
 10
50.230471
 20
207.444859
 30
0.0
  0
LWPOLYLINE
  5
1b1
100
AcDbEntity
  8
Шар_1
 62
3
100
AcDbPolyline
 90
1
 70
1
 10
50.102312
 20
210.528908
 30
0.0
  0
LWPOLYLINE
  5
1b2
100
AcDbEntity
  8
Шар_1
 62
3
100
AcDbPolyline
 90
1
 70
1
 10
50.230471
 20
207.444859
 30
0.0
  0
LWPOLYLINE
  5
1b3
100
AcDbEntity
  8
Шар_1
 62
3
100
AcDbPolyline
 90
4
 70
1
 10
45.157911
 20
205.807749
 30
0.0
 10
44.169859
 20
205.807749
 30
0.0
 10
44.169859
 20
206.985971
 30
0.0
 10
45.157911
 20
206.985971
 30
0.0
  0
SPLINE
  5
1b4
100
AcDbEntity
  8
Шар_1
 62
3
100
AcDbSpline
 70
8
 71
3
 72
8
 73
4
 74
0
 40
0
 40
0
 40
0
 40
0
 40
1
 40
1
 40
1
 40
1
 10
38.406903
 20
206.671778
 30
0.0
 10
38.696292
 20
206.919825
 30
0.0
 10
38.985680
 20
207.167871
 30
0.0
 10
39.275067
 20
207.415918
 30
0.0
  0
SPLINE
  5
1b5
100
AcDbEntity
  8
Шар_1
 62
3
100
AcDbSpline
 70
8
 71
3
 72
8
 73
4
 74
0
 40
0
 40
0
 40
0
 40
0
 40
1
 40
1
 40
1
 40
1
 10
39.275067
 20
207.415918
 30
0.0
 10
39.567211
 20
207.663965
 30
0.0
 10
39.838685
 20
207.910635
 30
0.0
 10
40.089489
 20
208.155926
 30
0.0
  0
SPLINE
  5
1b6
100
AcDbEntity
  8
Шар_1
 62
3
100
AcDbSpline
 70
8
 71
3
 72
8
 73
4
 74
0
 40
0
 40
0
 40
0
 40
0
 40
1
 40
1
 40
1
 40
1
 10
40.089489
 20
208.155926
 30
0.0
 10
40.618656
 20
208.668557
 30
0.0
 10
40.981079
 20
209.075078
 30
0.0
 10
41.176760
 20
209.375489
 30
0.0
  0
SPLINE
  5
1b7
100
AcDbEntity
  8
Шар_1
 62
3
100
AcDbSpline
 70
8
 71
3
 72
8
 73
4
 74
0
 40
0
 40
0
 40
0
 40
0
 40
1
 40
1
 40
1
 40
1
 10
41.176760
 20
209.375489
 30
0.0
 10
41.372442
 20
209.678657
 30
0.0
 10
41.470283
 20
210.005252
 30
0.0
 10
41.470283
 20
210.355275
 30
0.0
  0
SPLINE
  5
1b8
100
AcDbEntity
  8
Шар_1
 62
3
100
AcDbSpline
 70
8
 71
3
 72
8
 73
4
 74
0
 40
0
 40
0
 40
0
 40
0
 40
1
 40
1
 40
1
 40
1
 10
41.470283
 20
210.355275
 30
0.0
 10
41.470283
 20
210.674980
 30
0.0
 10
41.364174
 20
210.924405
 30
0.0
 10
41.151955
 20
211.103549
 30
0.0
  0
SPLINE
  5
1b9
100
AcDbEntity
  8
Шар_1
 62
3
100
AcDbSpline
 70
8
 71
3
 72
8
 73
4
 74
0
 40
0
 40
0
 40
0
 40
0
 40
1
 40
1
 40
1
 40
1
 10
41.151955
 20
211.103549
 30
0.0
 10
40.942493
 20
211.285450
 30
0.0
 10
40.648971
 20
211.376400
 30
0.0
 10
40.271390
 20
211.376400
 30
0.0
  0
SPLINE
  5
1ba
100
AcDbEntity
  8
Шар_1
 62
3
100
AcDbSpline
 70
8
 71
3
 72
8
 73
4
 74
0
 40
0
 40
0
 40
0
 40
0
 40
1
 40
1
 40
1
 40
1
 10
40.271390
 20
211.376400
 30
0.0
 10
40.020586
 20
211.376400
 30
0.0
 10
39.749112
 20
211.332303
 30
0.0
 10
39.456968
 20
211.244109
 30
0.0
  0
SPLINE
  5
1bb
100
AcDbEntity
  8
Шар_1
 62
3
100
AcDbSpline
 70
8
 71
3
 72
8
 73
4
 74
0
 40
0
 40
0
 40
0
 40
0
 40
1
 40
1
 40
1
 40
1
 10
39.456968
 20
211.244109
 30
0.0
 10
39.164824
 20
211.155914
 30
0.0
 10
38.879571
 20
211.020866
 30
0.0
 10
38.601208
 20
210.838965
 30
0.0
  0
LWPOLYLINE
  5
1bc
100
AcDbEntity
  8
Шар_1
 62
3
100
AcDbPolyline
 90
3
 70
0
 10
42.574090
 20
205.807749
 30
0.0
 10
38.406903
 20
205.807749
 30
0.0
 10
38.406903
 20
206.671778
 30
0.0
  0
SPLINE
  5
1bd
100
AcDbEntity
  8
Шар_1
 62
3
100
AcDbSpline
 70
8
 71
3
 72
8
 73
4
 74
0
 40
0
 40
0
 40
0
 40
0
 40
1
 40
1
 40
1
 40
1
 10
38.559868
 20
211.707129
 30
0.0
 10
38.755548
 20
211.803593
 30
0.0
 10
39.015997
 20
211.891788
 30
0.0
 10
39.341214
 20
211.971713
 30
0.0
  0
SPLINE
  5
1be
100
AcDbEntity
  8
Шар_1
 62
3
100
AcDbSpline
 70
8
 71
3
 72
8
 73
4
 74
0
 40
0
 40
0
 40
0
 40
0
 40
1
 40
1
 40
1
 40
1
 10
39.341214
 20
211.971713
 30
0.0
 10
39.669188
 20
212.051640
 30
0.0
 10
39.986137
 20
212.091603
 30
0.0
 10
40.292060
 20
212.091603
 30
0.0
  0
SPLINE
  5
1bf
100
AcDbEntity
  8
Шар_1
 62
3
100
AcDbSpline
 70
8
 71
3
 72
8
 73
4
 74
0
 40
0
 40
0
 40
0
 40
0
 40
1
 40
1
 40
1
 40
1
 10
40.292060
 20
212.091603
 30
0.0
 10
40.923203
 20
212.091603
 30
0.0
 10
41.417919
 20
211.938640
 30
0.0
 10
41.776209
 20
211.632715
 30
0.0
  0
SPLINE
  5
1c0
100
AcDbEntity
  8
Шар_1
 62
3
100
AcDbSpline
 70
8
 71
3
 72
8
 73
4
 74
0
 40
0
 40
0
 40
0
 40
0
 40
1
 40
1
 40
1
 40
1
 10
41.776209
 20
211.632715
 30
0.0
 10
42.134499
 20
211.329547
 30
0.0
 10
42.313644
 20
210.917514
 30
0.0
 10
42.313644
 20
210.396616
 30
0.0
  0
SPLINE
  5
1c1
100
AcDbEntity
  8
Шар_1
 62
3
100
AcDbSpline
 70
8
 71
3
 72
8
 73
4
 74
0
 40
0
 40
0
 40
0
 40
0
 40
1
 40
1
 40
1
 40
1
 10
42.313644
 20
210.396616
 30
0.0
 10
42.313644
 20
210.162349
 30
0.0
 10
42.283327
 20
209.943240
 30
0.0
 10
42.222694
 20
209.739291
 30
0.0
  0
SPLINE
  5
1c2
100
AcDbEntity
  8
Шар_1
 62
3
100
AcDbSpline
 70
8
 71
3
 72
8
 73
4
 74
0
 40
0
 40
0
 40
0
 40
0
 40
1
 40
1
 40
1
 40
1
 10
42.222694
 20
209.739291
 30
0.0
 10
42.164814
 20
209.538098
 30
0.0
 10
42.077997
 20
209.346551
 30
0.0
 10
41.962243
 20
209.164650
 30
0.0
  0
SPLINE
  5
1c3
100
AcDbEntity
  8
Шар_1
 62
3
100
AcDbSpline
 70
8
 71
3
 72
8
 73
4
 74
0
 40
0
 40
0
 40
0
 40
0
 40
1
 40
1
 40
1
 40
1
 10
41.962243
 20
209.164650
 30
0.0
 10
41.854757
 20
208.993773
 30
0.0
 10
41.727978
 20
208.825653
 30
0.0
 10
41.581905
 20
208.660288
 30
0.0
  0
SPLINE
  5
1c4
100
AcDbEntity
  8
Шар_1
 62
3
100
AcDbSpline
 70
8
 71
3
 72
8
 73
4
 74
0
 40
0
 40
0
 40
0
 40
0
 40
1
 40
1
 40
1
 40
1
 10
41.581905
 20
208.660288
 30
0.0
 10
41.438589
 20
208.494923
 30
0.0
 10
41.263579
 20
208.311644
 30
0.0
 10
41.056874
 20
208.110450
 30
0.0
  0
SPLINE
  5
1c5
100
AcDbEntity
  8
Шар_1
 62
3
100
AcDbSpline
 70
8
 71
3
 72
8
 73
4
 74
0
 40
0
 40
0
 40
0
 40
0
 40
1
 40
1
 40
1
 40
1
 10
41.056874
 20
208.110450
 30
0.0
 10
40.761973
 20
207.821063
 30
0.0
 10
40.457426
 20
207.539943
 30
0.0
 10
40.143233
 20
207.267090
 30
0.0
  0
SPLINE
  5
1c6
100
AcDbEntity
  8
Шар_1
 62
3
100
AcDbSpline
 70
8
 71
3
 72
8
 73
4
 74
0
 40
0
 40
0
 40
0
 40
0
 40
1
 40
1
 40
1
 40
1
 10
40.143233
 20
207.267090
 30
0.0
 10
39.829040
 20
206.996995
 30
0.0
 10
39.535519
 20
206.746192
 30
0.0
 10
39.262668
 20
206.514682
 30
0.0
  0
LWPOLYLINE
  5
1c7
100
AcDbEntity
  8
Шар_1
 62
3
100
AcDbPolyline
 90
3
 70
0
 10
38.601208
 20
210.838965
 30
0.0
 10
38.559868
 20
210.838965
 30
0.0
 10
38.559868
 20
211.707129
 30
0.0
  0
SPLINE
  5
1c8
100
AcDbEntity
  8
Шар_1
 62
3
100
AcDbSpline
 70
8
 71
3
 72
8
 73
4
 74
0
 40
0
 40
0
 40
0
 40
0
 40
1
 40
1
 40
1
 40
1
 10
51.028353
 20
219.838934
 30
0.0
 10
51.028353
 20
219.301498
 30
0.0
 10
50.966342
 20
218.813672
 30
0.0
 10
50.842319
 20
218.375457
 30
0.0
  0
SPLINE
  5
1c9
100
AcDbEntity
  8
Шар_1
 62
3
100
AcDbSpline
 70
8
 71
3
 72
8
 73
4
 74
0
 40
0
 40
0
 40
0
 40
0
 40
1
 40
1
 40
1
 40
1
 10
50.842319
 20
218.375457
 30
0.0
 10
50.721052
 20
217.937240
 30
0.0
 10
50.536395
 20
217.563792
 30
0.0
 10
50.288348
 20
217.255111
 30
0.0
  0
SPLINE
  5
1ca
100
AcDbEntity
  8
Шар_1
 62
3
100
AcDbSpline
 70
8
 71
3
 72
8
 73
4
 74
0
 40
0
 40
0
 40
0
 40
0
 40
1
 40
1
 40
1
 40
1
 10
50.288348
 20
217.255111
 30
0.0
 10
50.037544
 20
216.940918
 30
0.0
 10
49.723351
 20
216.698384
 30
0.0
 10
49.345770
 20
216.527507
 30
0.0
  0
SPLINE
  5
1cb
100
AcDbEntity
  8
Шар_1
 62
3
100
AcDbSpline
 70
8
 71
3
 72
8
 73
4
 74
0
 40
0
 40
0
 40
0
 40
0
 40
1
 40
1
 40
1
 40
1
 10
49.345770
 20
216.527507
 30
0.0
 10
48.968187
 20
216.356630
 30
0.0
 10
48.524458
 20
216.271192
 30
0.0
 10
48.014585
 20
216.271192
 30
0.0
  0
SPLINE
  5
1cc
100
AcDbEntity
  8
Шар_1
 62
3
100
AcDbSpline
 70
8
 71
3
 72
8
 73
4
 74
0
 40
0
 40
0
 40
0
 40
0
 40
1
 40
1
 40
1
 40
1
 10
48.014585
 20
216.271192
 30
0.0
 10
47.871269
 20
216.271192
 30
0.0
 10
47.736221
 20
216.279455
 30
0.0
 10
47.609442
 20
216.295982
 30
0.0
  0
SPLINE
  5
1cd
100
AcDbEntity
  8
Шар_1
 62
3
100
AcDbSpline
 70
8
 71
3
 72
8
 73
4
 74
0
 40
0
 40
0
 40
0
 40
0
 40
1
 40
1
 40
1
 40
1
 10
47.609442
 20
216.295982
 30
0.0
 10
47.482663
 20
216.309755
 30
0.0
 10
47.369664
 20
216.333182
 30
0.0
 10
47.270445
 20
216.366262
 30
0.0
  0
LWPOLYLINE
  5
1ce
100
AcDbEntity
  8
Шар_1
 62
3
100
AcDbPolyline
 90
3
 70
0
 10
39.262668
 20
206.514682
 30
0.0
 10
42.574092
 20
206.514682
 30
0.0
 10
42.574090
 20
205.807749
 30
0.0
  0
SPLINE
  5
1cf
100
AcDbEntity
  8
Шар_1
 62
3
100
AcDbSpline
 70
8
 71
3
 72
8
 73
4
 74
0
 40
0
 40
0
 40
0
 40
0
 40
1
 40
1
 40
1
 40
1
 10
47.311785
 20
217.155876
 30
0.0
 10
47.391710
 20
217.114536
 30
0.0
 10
47.504709
 20
217.074573
 30
0.0
 10
47.650782
 20
217.035988
 30
0.0
  0
SPLINE
  5
1d0
100
AcDbEntity
  8
Шар_1
 62
3
100
AcDbSpline
 70
8
 71
3
 72
8
 73
4
 74
0
 40
0
 40
0
 40
0
 40
0
 40
1
 40
1
 40
1
 40
1
 10
47.650782
 20
217.035988
 30
0.0
 10
47.796853
 20
217.000155
 30
0.0
 10
47.959462
 20
216.982238
 30
0.0
 10
48.138608
 20
216.982238
 30
0.0
  0
SPLINE
  5
1d1
100
AcDbEntity
  8
Шар_1
 62
3
100
AcDbSpline
 70
8
 71
3
 72
8
 73
4
 74
0
 40
0
 40
0
 40
0
 40
0
 40
1
 40
1
 40
1
 40
1
 10
48.138608
 20
216.982238
 30
0.0
 10
48.747700
 20
216.982238
 30
0.0
 10
49.224501
 20
217.164139
 30
0.0
 10
49.569011
 20
217.527941
 30
0.0
  0
SPLINE
  5
1d2
100
AcDbEntity
  8
Шар_1
 62
3
100
AcDbSpline
 70
8
 71
3
 72
8
 73
4
 74
0
 40
0
 40
0
 40
0
 40
0
 40
1
 40
1
 40
1
 40
1
 10
49.569011
 20
217.527941
 30
0.0
 10
49.916277
 20
217.894500
 30
0.0
 10
50.117471
 20
218.398862
 30
0.0
 10
50.172592
 20
219.041027
 30
0.0
  0
SPLINE
  5
1d3
100
AcDbEntity
  8
Шар_1
 62
3
100
AcDbSpline
 70
8
 71
3
 72
8
 73
4
 74
0
 40
0
 40
0
 40
0
 40
0
 40
1
 40
1
 40
1
 40
1
 10
50.172592
 20
219.041027
 30
0.0
 10
49.916276
 20
218.886687
 30
0.0
 10
49.675119
 20
218.776444
 30
0.0
 10
49.449121
 20
218.710298
 30
0.0
  0
SPLINE
  5
1d4
100
AcDbEntity
  8
Шар_1
 62
3
100
AcDbSpline
 70
8
 71
3
 72
8
 73
4
 74
0
 40
0
 40
0
 40
0
 40
0
 40
1
 40
1
 40
1
 40
1
 10
49.449121
 20
218.710298
 30
0.0
 10
49.223122
 20
218.644151
 30
0.0
 10
48.976454
 20
218.611078
 30
0.0
 10
48.709115
 20
218.611078
 30
0.0
  0
SPLINE
  5
1d5
100
AcDbEntity
  8
Шар_1
 62
3
100
AcDbSpline
 70
8
 71
3
 72
8
 73
4
 74
0
 40
0
 40
0
 40
0
 40
0
 40
1
 40
1
 40
1
 40
1
 10
48.709115
 20
218.611078
 30
0.0
 10
48.455556
 20
218.611078
 30
0.0
 10
48.225424
 20
218.635881
 30
0.0
 10
48.018717
 20
218.685488
 30
0.0
  0
SPLINE
  5
1d6
100
AcDbEntity
  8
Шар_1
 62
3
100
AcDbSpline
 70
8
 71
3
 72
8
 73
4
 74
0
 40
0
 40
0
 40
0
 40
0
 40
1
 40
1
 40
1
 40
1
 10
48.018717
 20
218.685488
 30
0.0
 10
47.814767
 20
218.735095
 30
0.0
 10
47.609440
 20
218.831557
 30
0.0
 10
47.402735
 20
218.974876
 30
0.0
  0
SPLINE
  5
1d7
100
AcDbEntity
  8
Шар_1
 62
3
100
AcDbSpline
 70
8
 71
3
 72
8
 73
4
 74
0
 40
0
 40
0
 40
0
 40
0
 40
1
 40
1
 40
1
 40
1
 10
47.402735
 20
218.974876
 30
0.0
 10
47.160200
 20
219.142998
 30
0.0
 10
46.976921
 20
219.356595
 30
0.0
 10
46.852897
 20
219.615666
 30
0.0
  0
SPLINE
  5
1d8
100
AcDbEntity
  8
Шар_1
 62
3
100
AcDbSpline
 70
8
 71
3
 72
8
 73
4
 74
0
 40
0
 40
0
 40
0
 40
0
 40
1
 40
1
 40
1
 40
1
 10
46.852897
 20
219.615666
 30
0.0
 10
46.731630
 20
219.874737
 30
0.0
 10
46.670996
 20
220.184795
 30
0.0
 10
46.670996
 20
220.545840
 30
0.0
  0
SPLINE
  5
1d9
100
AcDbEntity
  8
Шар_1
 62
3
100
AcDbSpline
 70
8
 71
3
 72
8
 73
4
 74
0
 40
0
 40
0
 40
0
 40
0
 40
1
 40
1
 40
1
 40
1
 10
46.670996
 20
220.545840
 30
0.0
 10
46.670996
 20
221.174225
 30
0.0
 10
46.877702
 20
221.685478
 30
0.0
 10
47.291113
 20
222.079598
 30
0.0
  0
SPLINE
  5
1da
100
AcDbEntity
  8
Шар_1
 62
3
100
AcDbSpline
 70
8
 71
3
 72
8
 73
4
 74
0
 40
0
 40
0
 40
0
 40
0
 40
1
 40
1
 40
1
 40
1
 10
47.291113
 20
222.079598
 30
0.0
 10
47.704524
 20
222.473716
 30
0.0
 10
48.208886
 20
222.670775
 30
0.0
 10
48.804199
 20
222.670775
 30
0.0
  0
SPLINE
  5
1db
100
AcDbEntity
  8
Шар_1
 62
3
100
AcDbSpline
 70
8
 71
3
 72
8
 73
4
 74
0
 40
0
 40
0
 40
0
 40
0
 40
1
 40
1
 40
1
 40
1
 10
48.804199
 20
222.670775
 30
0.0
 10
49.101855
 20
222.670775
 30
0.0
 10
49.377463
 20
222.623922
 30
0.0
 10
49.631022
 20
222.530215
 30
0.0
  0
SPLINE
  5
1dc
100
AcDbEntity
  8
Шар_1
 62
3
100
AcDbSpline
 70
8
 71
3
 72
8
 73
4
 74
0
 40
0
 40
0
 40
0
 40
0
 40
1
 40
1
 40
1
 40
1
 10
49.631022
 20
222.530215
 30
0.0
 10
49.884581
 20
222.439266
 30
0.0
 10
50.106445
 20
222.301462
 30
0.0
 10
50.296615
 20
222.116804
 30
0.0
  0
SPLINE
  5
1dd
100
AcDbEntity
  8
Шар_1
 62
3
100
AcDbSpline
 70
8
 71
3
 72
8
 73
4
 74
0
 40
0
 40
0
 40
0
 40
0
 40
1
 40
1
 40
1
 40
1
 10
50.296615
 20
222.116804
 30
0.0
 10
50.530881
 20
221.888050
 30
0.0
 10
50.711404
 20
221.593150
 30
0.0
 10
50.838183
 20
221.232103
 30
0.0
  0
SPLINE
  5
1de
100
AcDbEntity
  8
Шар_1
 62
3
100
AcDbSpline
 70
8
 71
3
 72
8
 73
4
 74
0
 40
0
 40
0
 40
0
 40
0
 40
1
 40
1
 40
1
 40
1
 10
50.838183
 20
221.232103
 30
0.0
 10
50.964962
 20
220.873813
 30
0.0
 10
51.028352
 20
220.409415
 30
0.0
 10
51.028352
 20
219.838908
 30
0.0
  0
LWPOLYLINE
  5
1df
100
AcDbEntity
  8
Шар_1
 62
3
100
AcDbPolyline
 90
3
 70
0
 10
47.270445
 20
216.366262
 30
0.0
 10
47.270445
 20
217.155876
 30
0.0
 10
47.311785
 20
217.155876
 30
0.0
  0
SPLINE
  5
1e0
100
AcDbEntity
  8
Шар_1
 62
3
100
AcDbSpline
 70
8
 71
3
 72
8
 73
4
 74
0
 40
0
 40
0
 40
0
 40
0
 40
1
 40
1
 40
1
 40
1
 10
50.193262
 20
220.016700
 30
0.0
 10
50.193262
 20
220.443893
 30
0.0
 10
50.149165
 20
220.787024
 30
0.0
 10
50.060970
 20
221.046095
 30
0.0
  0
SPLINE
  5
1e1
100
AcDbEntity
  8
Шар_1
 62
3
100
AcDbSpline
 70
8
 71
3
 72
8
 73
4
 74
0
 40
0
 40
0
 40
0
 40
0
 40
1
 40
1
 40
1
 40
1
 10
50.060970
 20
221.046095
 30
0.0
 10
49.972776
 20
221.305166
 30
0.0
 10
49.851509
 20
221.506360
 30
0.0
 10
49.697168
 20
221.649676
 30
0.0
  0
SPLINE
  5
1e2
100
AcDbEntity
  8
Шар_1
 62
3
100
AcDbSpline
 70
8
 71
3
 72
8
 73
4
 74
0
 40
0
 40
0
 40
0
 40
0
 40
1
 40
1
 40
1
 40
1
 10
49.697168
 20
221.649676
 30
0.0
 10
49.567633
 20
221.773699
 30
0.0
 10
49.428452
 20
221.861893
 30
0.0
 10
49.279624
 20
221.914259
 30
0.0
  0
SPLINE
  5
1e3
100
AcDbEntity
  8
Шар_1
 62
3
100
AcDbSpline
 70
8
 71
3
 72
8
 73
4
 74
0
 40
0
 40
0
 40
0
 40
0
 40
1
 40
1
 40
1
 40
1
 10
49.279624
 20
221.914259
 30
0.0
 10
49.130796
 20
221.969379
 30
0.0
 10
48.969565
 20
221.996939
 30
0.0
 10
48.795931
 20
221.996939
 30
0.0
  0
SPLINE
  5
1e4
100
AcDbEntity
  8
Шар_1
 62
3
100
AcDbSpline
 70
8
 71
3
 72
8
 73
4
 74
0
 40
0
 40
0
 40
0
 40
0
 40
1
 40
1
 40
1
 40
1
 10
48.795931
 20
221.996939
 30
0.0
 10
48.399056
 20
221.996939
 30
0.0
 10
48.084864
 20
221.872915
 30
0.0
 10
47.853353
 20
221.624868
 30
0.0
  0
SPLINE
  5
1e5
100
AcDbEntity
  8
Шар_1
 62
3
100
AcDbSpline
 70
8
 71
3
 72
8
 73
4
 74
0
 40
0
 40
0
 40
0
 40
0
 40
1
 40
1
 40
1
 40
1
 10
47.853353
 20
221.624868
 30
0.0
 10
47.624600
 20
221.376821
 30
0.0
 10
47.510223
 20
221.028177
 30
0.0
 10
47.510223
 20
220.578936
 30
0.0
  0
SPLINE
  5
1e6
100
AcDbEntity
  8
Шар_1
 62
3
100
AcDbSpline
 70
8
 71
3
 72
8
 73
4
 74
0
 40
0
 40
0
 40
0
 40
0
 40
1
 40
1
 40
1
 40
1
 10
47.510223
 20
220.578936
 30
0.0
 10
47.510223
 20
220.317110
 30
0.0
 10
47.547430
 20
220.103515
 30
0.0
 10
47.621843
 20
219.938150
 30
0.0
  0
SPLINE
  5
1e7
100
AcDbEntity
  8
Шар_1
 62
3
100
AcDbSpline
 70
8
 71
3
 72
8
 73
4
 74
0
 40
0
 40
0
 40
0
 40
0
 40
1
 40
1
 40
1
 40
1
 10
47.621843
 20
219.938150
 30
0.0
 10
47.696258
 20
219.772785
 30
0.0
 10
47.821660
 20
219.628091
 30
0.0
 10
47.998049
 20
219.504066
 30
0.0
  0
SPLINE
  5
1e8
100
AcDbEntity
  8
Шар_1
 62
3
100
AcDbSpline
 70
8
 71
3
 72
8
 73
4
 74
0
 40
0
 40
0
 40
0
 40
0
 40
1
 40
1
 40
1
 40
1
 10
47.998049
 20
219.504066
 30
0.0
 10
48.122072
 20
219.418629
 30
0.0
 10
48.258497
 20
219.360751
 30
0.0
 10
48.407325
 20
219.330434
 30
0.0
  0
SPLINE
  5
1e9
100
AcDbEntity
  8
Шар_1
 62
3
100
AcDbSpline
 70
8
 71
3
 72
8
 73
4
 74
0
 40
0
 40
0
 40
0
 40
0
 40
1
 40
1
 40
1
 40
1
 10
48.407325
 20
219.330434
 30
0.0
 10
48.556153
 20
219.302874
 30
0.0
 10
48.721517
 20
219.289094
 30
0.0
 10
48.903418
 20
219.289094
 30
0.0
  0
SPLINE
  5
1ea
100
AcDbEntity
  8
Шар_1
 62
3
100
AcDbSpline
 70
8
 71
3
 72
8
 73
4
 74
0
 40
0
 40
0
 40
0
 40
0
 40
1
 40
1
 40
1
 40
1
 10
48.903418
 20
219.289094
 30
0.0
 10
49.118392
 20
219.289094
 30
0.0
 10
49.336122
 20
219.318034
 30
0.0
 10
49.556609
 20
219.375914
 30
0.0
  0
SPLINE
  5
1eb
100
AcDbEntity
  8
Шар_1
 62
3
100
AcDbSpline
 70
8
 71
3
 72
8
 73
4
 74
0
 40
0
 40
0
 40
0
 40
0
 40
1
 40
1
 40
1
 40
1
 10
49.556609
 20
219.375914
 30
0.0
 10
49.777095
 20
219.433794
 30
0.0
 10
49.983801
 20
219.517854
 30
0.0
 10
50.176726
 20
219.628094
 30
0.0
  0
SPLINE
  5
1ec
100
AcDbEntity
  8
Шар_1
 62
3
100
AcDbSpline
 70
8
 71
3
 72
8
 73
4
 74
0
 40
0
 40
0
 40
0
 40
0
 40
1
 40
1
 40
1
 40
1
 10
50.176726
 20
219.628094
 30
0.0
 10
50.179459
 20
219.685974
 30
0.0
 10
50.182226
 20
219.742474
 30
0.0
 10
50.185026
 20
219.797594
 30
0.0
  0
SPLINE
  5
1ed
100
AcDbEntity
  8
Шар_1
 62
3
100
AcDbSpline
 70
8
 71
3
 72
8
 73
4
 74
0
 40
0
 40
0
 40
0
 40
0
 40
1
 40
1
 40
1
 40
1
 10
50.185026
 20
219.797594
 30
0.0
 10
50.190559
 20
219.855474
 30
0.0
 10
50.193326
 20
219.928510
 30
0.0
 10
50.193326
 20
220.016701
 30
0.0
  0
LWPOLYLINE
  5
1ee
100
AcDbEntity
  8
Шар_1
 62
3
100
AcDbPolyline
 90
1
 70
1
 10
51.028352
 20
219.838908
 30
0.0
  0
LWPOLYLINE
  5
1ef
100
AcDbEntity
  8
Шар_1
 62
3
100
AcDbPolyline
 90
1
 70
1
 10
50.193326
 20
220.016701
 30
0.0
  0
LWPOLYLINE
  5
1f0
100
AcDbEntity
  8
Шар_1
 62
3
100
AcDbPolyline
 90
4
 70
1
 10
45.157911
 20
216.391082
 30
0.0
 10
44.169859
 20
216.391082
 30
0.0
 10
44.169859
 20
217.569304
 30
0.0
 10
45.157911
 20
217.569304
 30
0.0
  0
SPLINE
  5
1f1
100
AcDbEntity
  8
Шар_1
 62
3
100
AcDbSpline
 70
8
 71
3
 72
8
 73
4
 74
0
 40
0
 40
0
 40
0
 40
0
 40
1
 40
1
 40
1
 40
1
 10
38.406903
 20
217.255111
 30
0.0
 10
38.696292
 20
217.503158
 30
0.0
 10
38.985680
 20
217.751205
 30
0.0
 10
39.275067
 20
217.999252
 30
0.0
  0
SPLINE
  5
1f2
100
AcDbEntity
  8
Шар_1
 62
3
100
AcDbSpline
 70
8
 71
3
 72
8
 73
4
 74
0
 40
0
 40
0
 40
0
 40
0
 40
1
 40
1
 40
1
 40
1
 10
39.275067
 20
217.999252
 30
0.0
 10
39.567211
 20
218.247299
 30
0.0
 10
39.838685
 20
218.493968
 30
0.0
 10
40.089489
 20
218.739260
 30
0.0
  0
SPLINE
  5
1f3
100
AcDbEntity
  8
Шар_1
 62
3
100
AcDbSpline
 70
8
 71
3
 72
8
 73
4
 74
0
 40
0
 40
0
 40
0
 40
0
 40
1
 40
1
 40
1
 40
1
 10
40.089489
 20
218.739260
 30
0.0
 10
40.618656
 20
219.251890
 30
0.0
 10
40.981079
 20
219.658411
 30
0.0
 10
41.176760
 20
219.958822
 30
0.0
  0
SPLINE
  5
1f4
100
AcDbEntity
  8
Шар_1
 62
3
100
AcDbSpline
 70
8
 71
3
 72
8
 73
4
 74
0
 40
0
 40
0
 40
0
 40
0
 40
1
 40
1
 40
1
 40
1
 10
41.176760
 20
219.958822
 30
0.0
 10
41.372442
 20
220.261991
 30
0.0
 10
41.470283
 20
220.588586
 30
0.0
 10
41.470283
 20
220.938608
 30
0.0
  0
SPLINE
  5
1f5
100
AcDbEntity
  8
Шар_1
 62
3
100
AcDbSpline
 70
8
 71
3
 72
8
 73
4
 74
0
 40
0
 40
0
 40
0
 40
0
 40
1
 40
1
 40
1
 40
1
 10
41.470283
 20
220.938608
 30
0.0
 10
41.470283
 20
221.258313
 30
0.0
 10
41.364174
 20
221.507738
 30
0.0
 10
41.151955
 20
221.686882
 30
0.0
  0
SPLINE
  5
1f6
100
AcDbEntity
  8
Шар_1
 62
3
100
AcDbSpline
 70
8
 71
3
 72
8
 73
4
 74
0
 40
0
 40
0
 40
0
 40
0
 40
1
 40
1
 40
1
 40
1
 10
41.151955
 20
221.686882
 30
0.0
 10
40.942493
 20
221.868783
 30
0.0
 10
40.648971
 20
221.959733
 30
0.0
 10
40.271390
 20
221.959733
 30
0.0
  0
SPLINE
  5
1f7
100
AcDbEntity
  8
Шар_1
 62
3
100
AcDbSpline
 70
8
 71
3
 72
8
 73
4
 74
0
 40
0
 40
0
 40
0
 40
0
 40
1
 40
1
 40
1
 40
1
 10
40.271390
 20
221.959733
 30
0.0
 10
40.020586
 20
221.959733
 30
0.0
 10
39.749112
 20
221.915636
 30
0.0
 10
39.456968
 20
221.827442
 30
0.0
  0
SPLINE
  5
1f8
100
AcDbEntity
  8
Шар_1
 62
3
100
AcDbSpline
 70
8
 71
3
 72
8
 73
4
 74
0
 40
0
 40
0
 40
0
 40
0
 40
1
 40
1
 40
1
 40
1
 10
39.456968
 20
221.827442
 30
0.0
 10
39.164824
 20
221.739247
 30
0.0
 10
38.879571
 20
221.604200
 30
0.0
 10
38.601208
 20
221.422299
 30
0.0
  0
LWPOLYLINE
  5
1f9
100
AcDbEntity
  8
Шар_1
 62
3
100
AcDbPolyline
 90
3
 70
0
 10
42.574090
 20
216.391082
 30
0.0
 10
38.406903
 20
216.391082
 30
0.0
 10
38.406903
 20
217.255111
 30
0.0
  0
SPLINE
  5
1fa
100
AcDbEntity
  8
Шар_1
 62
3
100
AcDbSpline
 70
8
 71
3
 72
8
 73
4
 74
0
 40
0
 40
0
 40
0
 40
0
 40
1
 40
1
 40
1
 40
1
 10
38.559868
 20
222.290463
 30
0.0
 10
38.755548
 20
222.386926
 30
0.0
 10
39.015997
 20
222.475121
 30
0.0
 10
39.341214
 20
222.555046
 30
0.0
  0
SPLINE
  5
1fb
100
AcDbEntity
  8
Шар_1
 62
3
100
AcDbSpline
 70
8
 71
3
 72
8
 73
4
 74
0
 40
0
 40
0
 40
0
 40
0
 40
1
 40
1
 40
1
 40
1
 10
39.341214
 20
222.555046
 30
0.0
 10
39.669188
 20
222.634973
 30
0.0
 10
39.986137
 20
222.674937
 30
0.0
 10
40.292060
 20
222.674937
 30
0.0
  0
SPLINE
  5
1fc
100
AcDbEntity
  8
Шар_1
 62
3
100
AcDbSpline
 70
8
 71
3
 72
8
 73
4
 74
0
 40
0
 40
0
 40
0
 40
0
 40
1
 40
1
 40
1
 40
1
 10
40.292060
 20
222.674937
 30
0.0
 10
40.923203
 20
222.674937
 30
0.0
 10
41.417919
 20
222.521974
 30
0.0
 10
41.776209
 20
222.216049
 30
0.0
  0
SPLINE
  5
1fd
100
AcDbEntity
  8
Шар_1
 62
3
100
AcDbSpline
 70
8
 71
3
 72
8
 73
4
 74
0
 40
0
 40
0
 40
0
 40
0
 40
1
 40
1
 40
1
 40
1
 10
41.776209
 20
222.216049
 30
0.0
 10
42.134499
 20
221.912880
 30
0.0
 10
42.313644
 20
221.500847
 30
0.0
 10
42.313644
 20
220.979950
 30
0.0
  0
SPLINE
  5
1fe
100
AcDbEntity
  8
Шар_1
 62
3
100
AcDbSpline
 70
8
 71
3
 72
8
 73
4
 74
0
 40
0
 40
0
 40
0
 40
0
 40
1
 40
1
 40
1
 40
1
 10
42.313644
 20
220.979950
 30
0.0
 10
42.313644
 20
220.745683
 30
0.0
 10
42.283327
 20
220.526574
 30
0.0
 10
42.222694
 20
220.322624
 30
0.0
  0
SPLINE
  5
1ff
100
AcDbEntity
  8
Шар_1
 62
3
100
AcDbSpline
 70
8
 71
3
 72
8
 73
4
 74
0
 40
0
 40
0
 40
0
 40
0
 40
1
 40
1
 40
1
 40
1
 10
42.222694
 20
220.322624
 30
0.0
 10
42.164814
 20
220.121431
 30
0.0
 10
42.077997
 20
219.929884
 30
0.0
 10
41.962243
 20
219.747983
 30
0.0
  0
SPLINE
  5
200
100
AcDbEntity
  8
Шар_1
 62
3
100
AcDbSpline
 70
8
 71
3
 72
8
 73
4
 74
0
 40
0
 40
0
 40
0
 40
0
 40
1
 40
1
 40
1
 40
1
 10
41.962243
 20
219.747983
 30
0.0
 10
41.854757
 20
219.577106
 30
0.0
 10
41.727978
 20
219.408986
 30
0.0
 10
41.581905
 20
219.243621
 30
0.0
  0
SPLINE
  5
201
100
AcDbEntity
  8
Шар_1
 62
3
100
AcDbSpline
 70
8
 71
3
 72
8
 73
4
 74
0
 40
0
 40
0
 40
0
 40
0
 40
1
 40
1
 40
1
 40
1
 10
41.581905
 20
219.243621
 30
0.0
 10
41.438589
 20
219.078257
 30
0.0
 10
41.263579
 20
218.894978
 30
0.0
 10
41.056874
 20
218.693783
 30
0.0
  0
SPLINE
  5
202
100
AcDbEntity
  8
Шар_1
 62
3
100
AcDbSpline
 70
8
 71
3
 72
8
 73
4
 74
0
 40
0
 40
0
 40
0
 40
0
 40
1
 40
1
 40
1
 40
1
 10
41.056874
 20
218.693783
 30
0.0
 10
40.761973
 20
218.404396
 30
0.0
 10
40.457426
 20
218.123276
 30
0.0
 10
40.143233
 20
217.850424
 30
0.0
  0
SPLINE
  5
203
100
AcDbEntity
  8
Шар_1
 62
3
100
AcDbSpline
 70
8
 71
3
 72
8
 73
4
 74
0
 40
0
 40
0
 40
0
 40
0
 40
1
 40
1
 40
1
 40
1
 10
40.143233
 20
217.850424
 30
0.0
 10
39.829040
 20
217.580328
 30
0.0
 10
39.535519
 20
217.329525
 30
0.0
 10
39.262668
 20
217.098015
 30
0.0
  0
LWPOLYLINE
  5
204
100
AcDbEntity
  8
Шар_1
 62
3
100
AcDbPolyline
 90
3
 70
0
 10
38.601208
 20
221.422299
 30
0.0
 10
38.559868
 20
221.422299
 30
0.0
 10
38.559868
 20
222.290463
 30
0.0
  0
SPLINE
  5
205
100
AcDbEntity
  8
Шар_1
 62
3
100
AcDbSpline
 70
8
 71
3
 72
8
 73
4
 74
0
 40
0
 40
0
 40
0
 40
0
 40
1
 40
1
 40
1
 40
1
 10
42.032523
 20
229.938575
 30
0.0
 10
42.164814
 20
229.820064
 30
0.0
 10
42.273679
 20
229.671235
 30
0.0
 10
42.359116
 20
229.492090
 30
0.0
  0
SPLINE
  5
206
100
AcDbEntity
  8
Шар_1
 62
3
100
AcDbSpline
 70
8
 71
3
 72
8
 73
4
 74
0
 40
0
 40
0
 40
0
 40
0
 40
1
 40
1
 40
1
 40
1
 10
42.359116
 20
229.492090
 30
0.0
 10
42.444555
 20
229.312946
 30
0.0
 10
42.487275
 20
229.081436
 30
0.0
 10
42.487275
 20
228.797559
 30
0.0
  0
SPLINE
  5
207
100
AcDbEntity
  8
Шар_1
 62
3
100
AcDbSpline
 70
8
 71
3
 72
8
 73
4
 74
0
 40
0
 40
0
 40
0
 40
0
 40
1
 40
1
 40
1
 40
1
 10
42.487275
 20
228.797559
 30
0.0
 10
42.487275
 20
228.516439
 30
0.0
 10
42.436287
 20
228.258746
 30
0.0
 10
42.334312
 20
228.024481
 30
0.0
  0
SPLINE
  5
208
100
AcDbEntity
  8
Шар_1
 62
3
100
AcDbSpline
 70
8
 71
3
 72
8
 73
4
 74
0
 40
0
 40
0
 40
0
 40
0
 40
1
 40
1
 40
1
 40
1
 10
42.334312
 20
228.024481
 30
0.0
 10
42.232338
 20
227.790214
 30
0.0
 10
42.089022
 20
227.586264
 30
0.0
 10
41.904364
 20
227.412632
 30
0.0
  0
SPLINE
  5
209
100
AcDbEntity
  8
Шар_1
 62
3
100
AcDbSpline
 70
8
 71
3
 72
8
 73
4
 74
0
 40
0
 40
0
 40
0
 40
0
 40
1
 40
1
 40
1
 40
1
 10
41.904364
 20
227.412632
 30
0.0
 10
41.697659
 20
227.219707
 30
0.0
 10
41.453747
 20
227.076391
 30
0.0
 10
41.172627
 20
226.982684
 30
0.0
  0
SPLINE
  5
20a
100
AcDbEntity
  8
Шар_1
 62
3
100
AcDbSpline
 70
8
 71
3
 72
8
 73
4
 74
0
 40
0
 40
0
 40
0
 40
0
 40
1
 40
1
 40
1
 40
1
 10
41.172627
 20
226.982684
 30
0.0
 10
40.894262
 20
226.891733
 30
0.0
 10
40.588338
 20
226.846257
 30
0.0
 10
40.254853
 20
226.846257
 30
0.0
  0
SPLINE
  5
20b
100
AcDbEntity
  8
Шар_1
 62
3
100
AcDbSpline
 70
8
 71
3
 72
8
 73
4
 74
0
 40
0
 40
0
 40
0
 40
0
 40
1
 40
1
 40
1
 40
1
 10
40.254853
 20
226.846257
 30
0.0
 10
39.913100
 20
226.846257
 30
0.0
 10
39.576859
 20
226.887598
 30
0.0
 10
39.246130
 20
226.970280
 30
0.0
  0
SPLINE
  5
20c
100
AcDbEntity
  8
Шар_1
 62
3
100
AcDbSpline
 70
8
 71
3
 72
8
 73
4
 74
0
 40
0
 40
0
 40
0
 40
0
 40
1
 40
1
 40
1
 40
1
 10
39.246130
 20
226.970280
 30
0.0
 10
38.915401
 20
227.050207
 30
0.0
 10
38.643927
 20
227.138402
 30
0.0
 10
38.431708
 20
227.234864
 30
0.0
  0
LWPOLYLINE
  5
20d
100
AcDbEntity
  8
Шар_1
 62
3
100
AcDbPolyline
 90
3
 70
0
 10
39.262668
 20
217.098015
 30
0.0
 10
42.574092
 20
217.098015
 30
0.0
 10
42.574090
 20
216.391082
 30
0.0
  0
SPLINE
  5
20e
100
AcDbEntity
  8
Шар_1
 62
3
100
AcDbSpline
 70
8
 71
3
 72
8
 73
4
 74
0
 40
0
 40
0
 40
0
 40
0
 40
1
 40
1
 40
1
 40
1
 10
38.493718
 20
228.098895
 30
0.0
 10
38.727983
 20
227.944554
 30
0.0
 10
39.003591
 20
227.816396
 30
0.0
 10
39.320541
 20
227.714421
 30
0.0
  0
SPLINE
  5
20f
100
AcDbEntity
  8
Шар_1
 62
3
100
AcDbSpline
 70
8
 71
3
 72
8
 73
4
 74
0
 40
0
 40
0
 40
0
 40
0
 40
1
 40
1
 40
1
 40
1
 10
39.320541
 20
227.714421
 30
0.0
 10
39.637488
 20
227.612447
 30
0.0
 10
39.943413
 20
227.561460
 30
0.0
 10
40.238314
 20
227.561460
 30
0.0
  0
SPLINE
  5
210
100
AcDbEntity
  8
Шар_1
 62
3
100
AcDbSpline
 70
8
 71
3
 72
8
 73
4
 74
0
 40
0
 40
0
 40
0
 40
0
 40
1
 40
1
 40
1
 40
1
 10
40.238314
 20
227.561460
 30
0.0
 10
40.411946
 20
227.561460
 30
0.0
 10
40.596603
 20
227.590397
 30
0.0
 10
40.792285
 20
227.648270
 30
0.0
  0
SPLINE
  5
211
100
AcDbEntity
  8
Шар_1
 62
3
100
AcDbSpline
 70
8
 71
3
 72
8
 73
4
 74
0
 40
0
 40
0
 40
0
 40
0
 40
1
 40
1
 40
1
 40
1
 10
40.792285
 20
227.648270
 30
0.0
 10
40.987966
 20
227.706150
 30
0.0
 10
41.146440
 20
227.791588
 30
0.0
 10
41.267707
 20
227.904585
 30
0.0
  0
SPLINE
  5
212
100
AcDbEntity
  8
Шар_1
 62
3
100
AcDbSpline
 70
8
 71
3
 72
8
 73
4
 74
0
 40
0
 40
0
 40
0
 40
0
 40
1
 40
1
 40
1
 40
1
 10
41.267707
 20
227.904585
 30
0.0
 10
41.394486
 20
228.025852
 30
0.0
 10
41.488193
 20
228.159523
 30
0.0
 10
41.548827
 20
228.305596
 30
0.0
  0
SPLINE
  5
213
100
AcDbEntity
  8
Шар_1
 62
3
100
AcDbSpline
 70
8
 71
3
 72
8
 73
4
 74
0
 40
0
 40
0
 40
0
 40
0
 40
1
 40
1
 40
1
 40
1
 10
41.548827
 20
228.305596
 30
0.0
 10
41.612220
 20
228.451667
 30
0.0
 10
41.643917
 20
228.636324
 30
0.0
 10
41.643917
 20
228.859567
 30
0.0
  0
SPLINE
  5
214
100
AcDbEntity
  8
Шар_1
 62
3
100
AcDbSpline
 70
8
 71
3
 72
8
 73
4
 74
0
 40
0
 40
0
 40
0
 40
0
 40
1
 40
1
 40
1
 40
1
 10
41.643917
 20
228.859567
 30
0.0
 10
41.643917
 20
229.080053
 30
0.0
 10
41.608088
 20
229.261954
 30
0.0
 10
41.536430
 20
229.405270
 30
0.0
  0
SPLINE
  5
215
100
AcDbEntity
  8
Шар_1
 62
3
100
AcDbSpline
 70
8
 71
3
 72
8
 73
4
 74
0
 40
0
 40
0
 40
0
 40
0
 40
1
 40
1
 40
1
 40
1
 10
41.536430
 20
229.405270
 30
0.0
 10
41.467527
 20
229.551341
 30
0.0
 10
41.371065
 20
229.665718
 30
0.0
 10
41.247042
 20
229.748400
 30
0.0
  0
SPLINE
  5
216
100
AcDbEntity
  8
Шар_1
 62
3
100
AcDbSpline
 70
8
 71
3
 72
8
 73
4
 74
0
 40
0
 40
0
 40
0
 40
0
 40
1
 40
1
 40
1
 40
1
 10
41.247042
 20
229.748400
 30
0.0
 10
41.123017
 20
229.833839
 30
0.0
 10
40.972811
 20
229.891716
 30
0.0
 10
40.796422
 20
229.922033
 30
0.0
  0
SPLINE
  5
217
100
AcDbEntity
  8
Шар_1
 62
3
100
AcDbSpline
 70
8
 71
3
 72
8
 73
4
 74
0
 40
0
 40
0
 40
0
 40
0
 40
1
 40
1
 40
1
 40
1
 10
40.796422
 20
229.922033
 30
0.0
 10
40.620033
 20
229.955106
 30
0.0
 10
40.429864
 20
229.971643
 30
0.0
 10
40.225914
 20
229.971643
 30
0.0
  0
LWPOLYLINE
  5
218
100
AcDbEntity
  8
Шар_1
 62
3
100
AcDbPolyline
 90
3
 70
0
 10
38.431708
 20
227.234864
 30
0.0
 10
38.431708
 20
228.098895
 30
0.0
 10
38.493718
 20
228.098895
 30
0.0
  0
SPLINE
  5
219
100
AcDbEntity
  8
Шар_1
 62
3
100
AcDbSpline
 70
8
 71
3
 72
8
 73
4
 74
0
 40
0
 40
0
 40
0
 40
0
 40
1
 40
1
 40
1
 40
1
 10
40.143232
 20
230.657906
 30
0.0
 10
40.562155
 20
230.657906
 30
0.0
 10
40.895641
 20
230.744722
 30
0.0
 10
41.143688
 20
230.918355
 30
0.0
  0
SPLINE
  5
21a
100
AcDbEntity
  8
Шар_1
 62
3
100
AcDbSpline
 70
8
 71
3
 72
8
 73
4
 74
0
 40
0
 40
0
 40
0
 40
0
 40
1
 40
1
 40
1
 40
1
 10
41.143688
 20
230.918355
 30
0.0
 10
41.394492
 20
231.094744
 30
0.0
 10
41.519894
 20
231.351059
 30
0.0
 10
41.519894
 20
231.687300
 30
0.0
  0
SPLINE
  5
21b
100
AcDbEntity
  8
Шар_1
 62
3
100
AcDbSpline
 70
8
 71
3
 72
8
 73
4
 74
0
 40
0
 40
0
 40
0
 40
0
 40
1
 40
1
 40
1
 40
1
 10
41.519894
 20
231.687300
 30
0.0
 10
41.519894
 20
231.836128
 30
0.0
 10
41.488197
 20
231.965664
 30
0.0
 10
41.424804
 20
232.075907
 30
0.0
  0
SPLINE
  5
21c
100
AcDbEntity
  8
Шар_1
 62
3
100
AcDbSpline
 70
8
 71
3
 72
8
 73
4
 74
0
 40
0
 40
0
 40
0
 40
0
 40
1
 40
1
 40
1
 40
1
 10
41.424804
 20
232.075907
 30
0.0
 10
41.361417
 20
232.188906
 30
0.0
 10
41.273223
 20
232.281235
 30
0.0
 10
41.160220
 20
232.352893
 30
0.0
  0
SPLINE
  5
21d
100
AcDbEntity
  8
Шар_1
 62
3
100
AcDbSpline
 70
8
 71
3
 72
8
 73
4
 74
0
 40
0
 40
0
 40
0
 40
0
 40
1
 40
1
 40
1
 40
1
 10
41.160220
 20
232.352893
 30
0.0
 10
41.041710
 20
232.424551
 30
0.0
 10
40.914931
 20
232.474160
 30
0.0
 10
40.779882
 20
232.501721
 30
0.0
  0
SPLINE
  5
21e
100
AcDbEntity
  8
Шар_1
 62
3
100
AcDbSpline
 70
8
 71
3
 72
8
 73
4
 74
0
 40
0
 40
0
 40
0
 40
0
 40
1
 40
1
 40
1
 40
1
 10
40.779882
 20
232.501721
 30
0.0
 10
40.644835
 20
232.529281
 30
0.0
 10
40.491873
 20
232.543061
 30
0.0
 10
40.320996
 20
232.543061
 30
0.0
  0
SPLINE
  5
21f
100
AcDbEntity
  8
Шар_1
 62
3
100
AcDbSpline
 70
8
 71
3
 72
8
 73
4
 74
0
 40
0
 40
0
 40
0
 40
0
 40
1
 40
1
 40
1
 40
1
 10
40.320996
 20
232.543061
 30
0.0
 10
40.059168
 20
232.543061
 30
0.0
 10
39.780804
 20
232.496208
 30
0.0
 10
39.485905
 20
232.402501
 30
0.0
  0
SPLINE
  5
220
100
AcDbEntity
  8
Шар_1
 62
3
100
AcDbSpline
 70
8
 71
3
 72
8
 73
4
 74
0
 40
0
 40
0
 40
0
 40
0
 40
1
 40
1
 40
1
 40
1
 10
39.485905
 20
232.402501
 30
0.0
 10
39.191004
 20
232.308794
 30
0.0
 10
38.912641
 20
232.176503
 30
0.0
 10
38.650814
 20
232.005626
 30
0.0
  0
LWPOLYLINE
  5
221
100
AcDbEntity
  8
Шар_1
 62
3
100
AcDbPolyline
 90
4
 70
0
 10
40.225914
 20
229.971643
 30
0.0
 10
39.853844
 20
229.971643
 30
0.0
 10
39.853844
 20
230.657906
 30
0.0
 10
40.143232
 20
230.657906
 30
0.0
  0
SPLINE
  5
222
100
AcDbEntity
  8
Шар_1
 62
3
100
AcDbSpline
 70
8
 71
3
 72
8
 73
4
 74
0
 40
0
 40
0
 40
0
 40
0
 40
1
 40
1
 40
1
 40
1
 10
38.609474
 20
232.869656
 30
0.0
 10
38.805155
 20
232.966119
 30
0.0
 10
39.065603
 20
233.054313
 30
0.0
 10
39.390820
 20
233.134239
 30
0.0
  0
SPLINE
  5
223
100
AcDbEntity
  8
Шар_1
 62
3
100
AcDbSpline
 70
8
 71
3
 72
8
 73
4
 74
0
 40
0
 40
0
 40
0
 40
0
 40
1
 40
1
 40
1
 40
1
 10
39.390820
 20
233.134239
 30
0.0
 10
39.718794
 20
233.216922
 30
0.0
 10
40.035743
 20
233.258263
 30
0.0
 10
40.341667
 20
233.258263
 30
0.0
  0
SPLINE
  5
224
100
AcDbEntity
  8
Шар_1
 62
3
100
AcDbSpline
 70
8
 71
3
 72
8
 73
4
 74
0
 40
0
 40
0
 40
0
 40
0
 40
1
 40
1
 40
1
 40
1
 10
40.341667
 20
233.258263
 30
0.0
 10
40.642080
 20
233.258263
 30
0.0
 10
40.906663
 20
233.230703
 30
0.0
 10
41.135417
 20
233.175583
 30
0.0
  0
SPLINE
  5
225
100
AcDbEntity
  8
Шар_1
 62
3
100
AcDbSpline
 70
8
 71
3
 72
8
 73
4
 74
0
 40
0
 40
0
 40
0
 40
0
 40
1
 40
1
 40
1
 40
1
 10
41.135417
 20
233.175583
 30
0.0
 10
41.364172
 20
233.120463
 30
0.0
 10
41.570877
 20
233.032269
 30
0.0
 10
41.755534
 20
232.911000
 30
0.0
  0
SPLINE
  5
226
100
AcDbEntity
  8
Шар_1
 62
3
100
AcDbSpline
 70
8
 71
3
 72
8
 73
4
 74
0
 40
0
 40
0
 40
0
 40
0
 40
1
 40
1
 40
1
 40
1
 10
41.755534
 20
232.911000
 30
0.0
 10
41.953971
 20
232.778709
 30
0.0
 10
42.104178
 20
232.618856
 30
0.0
 10
42.206154
 20
232.431443
 30
0.0
  0
SPLINE
  5
227
100
AcDbEntity
  8
Шар_1
 62
3
100
AcDbSpline
 70
8
 71
3
 72
8
 73
4
 74
0
 40
0
 40
0
 40
0
 40
0
 40
1
 40
1
 40
1
 40
1
 10
42.206154
 20
232.431443
 30
0.0
 10
42.308127
 20
232.244030
 30
0.0
 10
42.359114
 20
232.024922
 30
0.0
 10
42.359114
 20
231.774119
 30
0.0
  0
SPLINE
  5
228
100
AcDbEntity
  8
Шар_1
 62
3
100
AcDbSpline
 70
8
 71
3
 72
8
 73
4
 74
0
 40
0
 40
0
 40
0
 40
0
 40
1
 40
1
 40
1
 40
1
 10
42.359114
 20
231.774119
 30
0.0
 10
42.359114
 20
231.432365
 30
0.0
 10
42.237847
 20
231.133331
 30
0.0
 10
41.995312
 20
230.877016
 30
0.0
  0
SPLINE
  5
229
100
AcDbEntity
  8
Шар_1
 62
3
100
AcDbSpline
 70
8
 71
3
 72
8
 73
4
 74
0
 40
0
 40
0
 40
0
 40
0
 40
1
 40
1
 40
1
 40
1
 10
41.995312
 20
230.877016
 30
0.0
 10
41.755535
 20
230.623457
 30
0.0
 10
41.471659
 20
230.463604
 30
0.0
 10
41.143685
 20
230.397458
 30
0.0
  0
LWPOLYLINE
  5
22a
100
AcDbEntity
  8
Шар_1
 62
3
100
AcDbPolyline
 90
3
 70
0
 10
38.650814
 20
232.005626
 30
0.0
 10
38.609474
 20
232.005626
 30
0.0
 10
38.609474
 20
232.869656
 30
0.0
  0
SPLINE
  5
22b
100
AcDbEntity
  8
Шар_1
 62
3
100
AcDbSpline
 70
8
 71
3
 72
8
 73
4
 74
0
 40
0
 40
0
 40
0
 40
0
 40
1
 40
1
 40
1
 40
1
 10
41.143685
 20
230.339578
 30
0.0
 10
41.275976
 20
230.317531
 30
0.0
 10
41.427560
 20
230.270678
 30
0.0
 10
41.598437
 20
230.199018
 30
0.0
  0
SPLINE
  5
22c
100
AcDbEntity
  8
Шар_1
 62
3
100
AcDbSpline
 70
8
 71
3
 72
8
 73
4
 74
0
 40
0
 40
0
 40
0
 40
0
 40
1
 40
1
 40
1
 40
1
 10
41.598437
 20
230.199018
 30
0.0
 10
41.769314
 20
230.130116
 30
0.0
 10
41.914008
 20
230.043300
 30
0.0
 10
42.032521
 20
229.938569
 30
0.0
  0
LWPOLYLINE
  5
22d
100
AcDbEntity
  8
Шар_1
 62
3
100
AcDbPolyline
 90
2
 70
0
 10
41.143685
 20
230.397458
 30
0.0
 10
41.143685
 20
230.339578
 30
0.0
  0
SPLINE
  5
22e
100
AcDbEntity
  8
Шар_1
 62
3
100
AcDbSpline
 70
8
 71
3
 72
8
 73
4
 74
0
 40
0
 40
0
 40
0
 40
0
 40
1
 40
1
 40
1
 40
1
 10
54.482691
 20
185.760030
 30
0.0
 10
54.537811
 20
185.710630
 30
0.0
 10
54.583171
 20
185.648620
 30
0.0
 10
54.618772
 20
185.574000
 30
0.0
  0
SPLINE
  5
22f
100
AcDbEntity
  8
Шар_1
 62
3
100
AcDbSpline
 70
8
 71
3
 72
8
 73
4
 74
0
 40
0
 40
0
 40
0
 40
0
 40
1
 40
1
 40
1
 40
1
 10
54.618772
 20
185.574000
 30
0.0
 10
54.654372
 20
185.499353
 30
0.0
 10
54.672172
 20
185.402890
 30
0.0
 10
54.672172
 20
185.284610
 30
0.0
  0
SPLINE
  5
230
100
AcDbEntity
  8
Шар_1
 62
3
100
AcDbSpline
 70
8
 71
3
 72
8
 73
4
 74
0
 40
0
 40
0
 40
0
 40
0
 40
1
 40
1
 40
1
 40
1
 10
54.672172
 20
185.284610
 30
0.0
 10
54.672172
 20
185.167477
 30
0.0
 10
54.650929
 20
185.060103
 30
0.0
 10
54.608442
 20
184.962490
 30
0.0
  0
SPLINE
  5
231
100
AcDbEntity
  8
Шар_1
 62
3
100
AcDbSpline
 70
8
 71
3
 72
8
 73
4
 74
0
 40
0
 40
0
 40
0
 40
0
 40
1
 40
1
 40
1
 40
1
 10
54.608442
 20
184.962490
 30
0.0
 10
54.565955
 20
184.864883
 30
0.0
 10
54.506240
 20
184.779907
 30
0.0
 10
54.429297
 20
184.707560
 30
0.0
  0
SPLINE
  5
232
100
AcDbEntity
  8
Шар_1
 62
3
100
AcDbSpline
 70
8
 71
3
 72
8
 73
4
 74
0
 40
0
 40
0
 40
0
 40
0
 40
1
 40
1
 40
1
 40
1
 10
54.429297
 20
184.707560
 30
0.0
 10
54.343170
 20
184.627173
 30
0.0
 10
54.241540
 20
184.567457
 30
0.0
 10
54.124407
 20
184.528410
 30
0.0
  0
SPLINE
  5
233
100
AcDbEntity
  8
Шар_1
 62
3
100
AcDbSpline
 70
8
 71
3
 72
8
 73
4
 74
0
 40
0
 40
0
 40
0
 40
0
 40
1
 40
1
 40
1
 40
1
 10
54.124407
 20
184.528410
 30
0.0
 10
54.008422
 20
184.490543
 30
0.0
 10
53.880954
 20
184.471610
 30
0.0
 10
53.742002
 20
184.471610
 30
0.0
  0
SPLINE
  5
234
100
AcDbEntity
  8
Шар_1
 62
3
100
AcDbSpline
 70
8
 71
3
 72
8
 73
4
 74
0
 40
0
 40
0
 40
0
 40
0
 40
1
 40
1
 40
1
 40
1
 10
53.742002
 20
184.471610
 30
0.0
 10
53.599605
 20
184.471610
 30
0.0
 10
53.459505
 20
184.488843
 30
0.0
 10
53.321701
 20
184.523310
 30
0.0
  0
SPLINE
  5
235
100
AcDbEntity
  8
Шар_1
 62
3
100
AcDbSpline
 70
8
 71
3
 72
8
 73
4
 74
0
 40
0
 40
0
 40
0
 40
0
 40
1
 40
1
 40
1
 40
1
 10
53.321701
 20
184.523310
 30
0.0
 10
53.183898
 20
184.556577
 30
0.0
 10
53.070784
 20
184.593327
 30
0.0
 10
52.982360
 20
184.633560
 30
0.0
  0
LWPOLYLINE
  5
236
100
AcDbEntity
  8
Шар_1
 62
3
100
AcDbPolyline
 90
1
 70
1
 10
42.032521
 20
229.938569
 30
0.0
  0
SPLINE
  5
237
100
AcDbEntity
  8
Шар_1
 62
3
100
AcDbSpline
 70
8
 71
3
 72
8
 73
4
 74
0
 40
0
 40
0
 40
0
 40
0
 40
1
 40
1
 40
1
 40
1
 10
53.008200
 20
184.993570
 30
0.0
 10
53.105811
 20
184.929237
 30
0.0
 10
53.220648
 20
184.875837
 30
0.0
 10
53.352709
 20
184.833370
 30
0.0
  0
SPLINE
  5
238
100
AcDbEntity
  8
Шар_1
 62
3
100
AcDbSpline
 70
8
 71
3
 72
8
 73
4
 74
0
 40
0
 40
0
 40
0
 40
0
 40
1
 40
1
 40
1
 40
1
 10
53.352709
 20
184.833370
 30
0.0
 10
53.484771
 20
184.790903
 30
0.0
 10
53.612239
 20
184.769670
 30
0.0
 10
53.735114
 20
184.769670
 30
0.0
  0
SPLINE
  5
239
100
AcDbEntity
  8
Шар_1
 62
3
100
AcDbSpline
 70
8
 71
3
 72
8
 73
4
 74
0
 40
0
 40
0
 40
0
 40
0
 40
1
 40
1
 40
1
 40
1
 10
53.735114
 20
184.769670
 30
0.0
 10
53.807461
 20
184.769670
 30
0.0
 10
53.884401
 20
184.781737
 30
0.0
 10
53.965935
 20
184.805870
 30
0.0
  0
SPLINE
  5
23a
100
AcDbEntity
  8
Шар_1
 62
3
100
AcDbSpline
 70
8
 71
3
 72
8
 73
4
 74
0
 40
0
 40
0
 40
0
 40
0
 40
1
 40
1
 40
1
 40
1
 10
53.965935
 20
184.805870
 30
0.0
 10
54.047469
 20
184.830003
 30
0.0
 10
54.113500
 20
184.865603
 30
0.0
 10
54.164027
 20
184.912670
 30
0.0
  0
SPLINE
  5
23b
100
AcDbEntity
  8
Шар_1
 62
3
100
AcDbSpline
 70
8
 71
3
 72
8
 73
4
 74
0
 40
0
 40
0
 40
0
 40
0
 40
1
 40
1
 40
1
 40
1
 10
54.164027
 20
184.912670
 30
0.0
 10
54.216854
 20
184.963203
 30
0.0
 10
54.255898
 20
185.018897
 30
0.0
 10
54.281160
 20
185.079750
 30
0.0
  0
SPLINE
  5
23c
100
AcDbEntity
  8
Шар_1
 62
3
100
AcDbSpline
 70
8
 71
3
 72
8
 73
4
 74
0
 40
0
 40
0
 40
0
 40
0
 40
1
 40
1
 40
1
 40
1
 10
54.281160
 20
185.079750
 30
0.0
 10
54.307573
 20
185.140617
 30
0.0
 10
54.320780
 20
185.217560
 30
0.0
 10
54.320780
 20
185.310580
 30
0.0
  0
SPLINE
  5
23d
100
AcDbEntity
  8
Шар_1
 62
3
100
AcDbSpline
 70
8
 71
3
 72
8
 73
4
 74
0
 40
0
 40
0
 40
0
 40
0
 40
1
 40
1
 40
1
 40
1
 10
54.320780
 20
185.310580
 30
0.0
 10
54.320780
 20
185.402447
 30
0.0
 10
54.305850
 20
185.478237
 30
0.0
 10
54.275990
 20
185.537950
 30
0.0
  0
SPLINE
  5
23e
100
AcDbEntity
  8
Шар_1
 62
3
100
AcDbSpline
 70
8
 71
3
 72
8
 73
4
 74
0
 40
0
 40
0
 40
0
 40
0
 40
1
 40
1
 40
1
 40
1
 10
54.275990
 20
185.537950
 30
0.0
 10
54.247283
 20
185.598817
 30
0.0
 10
54.207091
 20
185.646473
 30
0.0
 10
54.155412
 20
185.680920
 30
0.0
  0
SPLINE
  5
23f
100
AcDbEntity
  8
Шар_1
 62
3
100
AcDbSpline
 70
8
 71
3
 72
8
 73
4
 74
0
 40
0
 40
0
 40
0
 40
0
 40
1
 40
1
 40
1
 40
1
 10
54.155412
 20
185.680920
 30
0.0
 10
54.103732
 20
185.716520
 30
0.0
 10
54.041146
 20
185.740653
 30
0.0
 10
53.967654
 20
185.753320
 30
0.0
  0
SPLINE
  5
240
100
AcDbEntity
  8
Шар_1
 62
3
100
AcDbSpline
 70
8
 71
3
 72
8
 73
4
 74
0
 40
0
 40
0
 40
0
 40
0
 40
1
 40
1
 40
1
 40
1
 10
53.967654
 20
185.753320
 30
0.0
 10
53.894159
 20
185.767120
 30
0.0
 10
53.814922
 20
185.774020
 30
0.0
 10
53.729943
 20
185.774020
 30
0.0
  0
LWPOLYLINE
  5
241
100
AcDbEntity
  8
Шар_1
 62
3
100
AcDbPolyline
 90
3
 70
0
 10
52.982360
 20
184.633560
 30
0.0
 10
52.982360
 20
184.993570
 30
0.0
 10
53.008200
 20
184.993570
 30
0.0
  0
SPLINE
  5
242
100
AcDbEntity
  8
Шар_1
 62
3
100
AcDbSpline
 70
8
 71
3
 72
8
 73
4
 74
0
 40
0
 40
0
 40
0
 40
0
 40
1
 40
1
 40
1
 40
1
 10
53.695489
 20
186.059950
 30
0.0
 10
53.870040
 20
186.059950
 30
0.0
 10
54.008991
 20
186.096123
 30
0.0
 10
54.112344
 20
186.168470
 30
0.0
  0
SPLINE
  5
243
100
AcDbEntity
  8
Шар_1
 62
3
100
AcDbSpline
 70
8
 71
3
 72
8
 73
4
 74
0
 40
0
 40
0
 40
0
 40
0
 40
1
 40
1
 40
1
 40
1
 10
54.112344
 20
186.168470
 30
0.0
 10
54.216845
 20
186.241970
 30
0.0
 10
54.269096
 20
186.348770
 30
0.0
 10
54.269096
 20
186.488870
 30
0.0
  0
SPLINE
  5
244
100
AcDbEntity
  8
Шар_1
 62
3
100
AcDbSpline
 70
8
 71
3
 72
8
 73
4
 74
0
 40
0
 40
0
 40
0
 40
0
 40
1
 40
1
 40
1
 40
1
 10
54.269096
 20
186.488870
 30
0.0
 10
54.269096
 20
186.550870
 30
0.0
 10
54.255889
 20
186.604843
 30
0.0
 10
54.229476
 20
186.650790
 30
0.0
  0
SPLINE
  5
245
100
AcDbEntity
  8
Шар_1
 62
3
100
AcDbSpline
 70
8
 71
3
 72
8
 73
4
 74
0
 40
0
 40
0
 40
0
 40
0
 40
1
 40
1
 40
1
 40
1
 10
54.229476
 20
186.650790
 30
0.0
 10
54.203063
 20
186.697857
 30
0.0
 10
54.166315
 20
186.736327
 30
0.0
 10
54.119233
 20
186.766200
 30
0.0
  0
SPLINE
  5
246
100
AcDbEntity
  8
Шар_1
 62
3
100
AcDbSpline
 70
8
 71
3
 72
8
 73
4
 74
0
 40
0
 40
0
 40
0
 40
0
 40
1
 40
1
 40
1
 40
1
 10
54.119233
 20
186.766200
 30
0.0
 10
54.069853
 20
186.796067
 30
0.0
 10
54.017028
 20
186.816733
 30
0.0
 10
53.960759
 20
186.828200
 30
0.0
  0
SPLINE
  5
247
100
AcDbEntity
  8
Шар_1
 62
3
100
AcDbSpline
 70
8
 71
3
 72
8
 73
4
 74
0
 40
0
 40
0
 40
0
 40
0
 40
1
 40
1
 40
1
 40
1
 10
53.960759
 20
186.828200
 30
0.0
 10
53.904492
 20
186.839667
 30
0.0
 10
53.840758
 20
186.845400
 30
0.0
 10
53.769557
 20
186.845400
 30
0.0
  0
SPLINE
  5
248
100
AcDbEntity
  8
Шар_1
 62
3
100
AcDbSpline
 70
8
 71
3
 72
8
 73
4
 74
0
 40
0
 40
0
 40
0
 40
0
 40
1
 40
1
 40
1
 40
1
 10
53.769557
 20
186.845400
 30
0.0
 10
53.660462
 20
186.845400
 30
0.0
 10
53.544478
 20
186.825867
 30
0.0
 10
53.421603
 20
186.786800
 30
0.0
  0
SPLINE
  5
249
100
AcDbEntity
  8
Шар_1
 62
3
100
AcDbSpline
 70
8
 71
3
 72
8
 73
4
 74
0
 40
0
 40
0
 40
0
 40
0
 40
1
 40
1
 40
1
 40
1
 10
53.421603
 20
186.786800
 30
0.0
 10
53.298728
 20
186.747733
 30
0.0
 10
53.182744
 20
186.692610
 30
0.0
 10
53.073649
 20
186.621430
 30
0.0
  0
LWPOLYLINE
  5
24a
100
AcDbEntity
  8
Шар_1
 62
3
100
AcDbPolyline
 90
4
 70
0
 10
53.729943
 20
185.774020
 30
0.0
 10
53.574910
 20
185.774020
 30
0.0
 10
53.574910
 20
186.059950
 30
0.0
 10
53.695489
 20
186.059950
 30
0.0
  0
SPLINE
  5
24b
100
AcDbEntity
  8
Шар_1
 62
3
100
AcDbSpline
 70
8
 71
3
 72
8
 73
4
 74
0
 40
0
 40
0
 40
0
 40
0
 40
1
 40
1
 40
1
 40
1
 10
53.056419
 20
186.981440
 30
0.0
 10
53.137952
 20
187.021640
 30
0.0
 10
53.246473
 20
187.058390
 30
0.0
 10
53.381980
 20
187.091690
 30
0.0
  0
SPLINE
  5
24c
100
AcDbEntity
  8
Шар_1
 62
3
100
AcDbSpline
 70
8
 71
3
 72
8
 73
4
 74
0
 40
0
 40
0
 40
0
 40
0
 40
1
 40
1
 40
1
 40
1
 10
53.381980
 20
187.091690
 30
0.0
 10
53.518635
 20
187.126157
 30
0.0
 10
53.650696
 20
187.143390
 30
0.0
 10
53.778165
 20
187.143390
 30
0.0
  0
SPLINE
  5
24d
100
AcDbEntity
  8
Шар_1
 62
3
100
AcDbSpline
 70
8
 71
3
 72
8
 73
4
 74
0
 40
0
 40
0
 40
0
 40
0
 40
1
 40
1
 40
1
 40
1
 10
53.778165
 20
187.143390
 30
0.0
 10
53.903336
 20
187.143390
 30
0.0
 10
54.013579
 20
187.131890
 30
0.0
 10
54.108893
 20
187.108890
 30
0.0
  0
SPLINE
  5
24e
100
AcDbEntity
  8
Шар_1
 62
3
100
AcDbSpline
 70
8
 71
3
 72
8
 73
4
 74
0
 40
0
 40
0
 40
0
 40
0
 40
1
 40
1
 40
1
 40
1
 10
54.108893
 20
187.108890
 30
0.0
 10
54.204207
 20
187.085957
 30
0.0
 10
54.290334
 20
187.049207
 30
0.0
 10
54.367275
 20
186.998640
 30
0.0
  0
SPLINE
  5
24f
100
AcDbEntity
  8
Шар_1
 62
3
100
AcDbSpline
 70
8
 71
3
 72
8
 73
4
 74
0
 40
0
 40
0
 40
0
 40
0
 40
1
 40
1
 40
1
 40
1
 10
54.367275
 20
186.998640
 30
0.0
 10
54.449957
 20
186.943507
 30
0.0
 10
54.512543
 20
186.876903
 30
0.0
 10
54.555032
 20
186.798830
 30
0.0
  0
SPLINE
  5
250
100
AcDbEntity
  8
Шар_1
 62
3
100
AcDbSpline
 70
8
 71
3
 72
8
 73
4
 74
0
 40
0
 40
0
 40
0
 40
0
 40
1
 40
1
 40
1
 40
1
 10
54.555032
 20
186.798830
 30
0.0
 10
54.597519
 20
186.720743
 30
0.0
 10
54.618762
 20
186.629447
 30
0.0
 10
54.618762
 20
186.524940
 30
0.0
  0
SPLINE
  5
251
100
AcDbEntity
  8
Шар_1
 62
3
100
AcDbSpline
 70
8
 71
3
 72
8
 73
4
 74
0
 40
0
 40
0
 40
0
 40
0
 40
1
 40
1
 40
1
 40
1
 10
54.618762
 20
186.524940
 30
0.0
 10
54.618762
 20
186.382547
 30
0.0
 10
54.568234
 20
186.257950
 30
0.0
 10
54.467178
 20
186.151150
 30
0.0
  0
SPLINE
  5
252
100
AcDbEntity
  8
Шар_1
 62
3
100
AcDbSpline
 70
8
 71
3
 72
8
 73
4
 74
0
 40
0
 40
0
 40
0
 40
0
 40
1
 40
1
 40
1
 40
1
 10
54.467178
 20
186.151150
 30
0.0
 10
54.367271
 20
186.045503
 30
0.0
 10
54.248989
 20
185.978900
 30
0.0
 10
54.112334
 20
185.951340
 30
0.0
  0
LWPOLYLINE
  5
253
100
AcDbEntity
  8
Шар_1
 62
3
100
AcDbPolyline
 90
3
 70
0
 10
53.073649
 20
186.621430
 30
0.0
 10
53.056419
 20
186.621430
 30
0.0
 10
53.056419
 20
186.981440
 30
0.0
  0
SPLINE
  5
254
100
AcDbEntity
  8
Шар_1
 62
3
100
AcDbSpline
 70
8
 71
3
 72
8
 73
4
 74
0
 40
0
 40
0
 40
0
 40
0
 40
1
 40
1
 40
1
 40
1
 10
54.112334
 20
185.927240
 30
0.0
 10
54.167454
 20
185.918040
 30
0.0
 10
54.230614
 20
185.898507
 30
0.0
 10
54.301814
 20
185.868640
 30
0.0
  0
SPLINE
  5
255
100
AcDbEntity
  8
Шар_1
 62
3
100
AcDbSpline
 70
8
 71
3
 72
8
 73
4
 74
0
 40
0
 40
0
 40
0
 40
0
 40
1
 40
1
 40
1
 40
1
 10
54.301814
 20
185.868640
 30
0.0
 10
54.373013
 20
185.839907
 30
0.0
 10
54.433302
 20
185.803733
 30
0.0
 10
54.482681
 20
185.760120
 30
0.0
  0
LWPOLYLINE
  5
256
100
AcDbEntity
  8
Шар_1
 62
3
100
AcDbPolyline
 90
2
 70
0
 10
54.112334
 20
185.951340
 30
0.0
 10
54.112334
 20
185.927240
 30
0.0
  0
LWPOLYLINE
  5
257
100
AcDbEntity
  8
Шар_1
 62
3
100
AcDbPolyline
 90
1
 70
1
 10
54.482681
 20
185.760120
 30
0.0
  0
SPLINE
  5
258
100
AcDbEntity
  8
Шар_1
 62
3
100
AcDbSpline
 70
8
 71
3
 72
8
 73
4
 74
0
 40
0
 40
0
 40
0
 40
0
 40
1
 40
1
 40
1
 40
1
 10
55.342978
 20
181.130920
 30
0.0
 10
55.464705
 20
181.234273
 30
0.0
 10
55.577818
 20
181.337050
 30
0.0
 10
55.682319
 20
181.439250
 30
0.0
  0
SPLINE
  5
259
100
AcDbEntity
  8
Шар_1
 62
3
100
AcDbSpline
 70
8
 71
3
 72
8
 73
4
 74
0
 40
0
 40
0
 40
0
 40
0
 40
1
 40
1
 40
1
 40
1
 10
55.682319
 20
181.439250
 30
0.0
 10
55.902805
 20
181.652850
 30
0.0
 10
56.053815
 20
181.822233
 30
0.0
 10
56.135348
 20
181.947400
 30
0.0
  0
SPLINE
  5
25a
100
AcDbEntity
  8
Шар_1
 62
3
100
AcDbSpline
 70
8
 71
3
 72
8
 73
4
 74
0
 40
0
 40
0
 40
0
 40
0
 40
1
 40
1
 40
1
 40
1
 10
56.135348
 20
181.947400
 30
0.0
 10
56.216882
 20
182.073720
 30
0.0
 10
56.257649
 20
182.209803
 30
0.0
 10
56.257649
 20
182.355650
 30
0.0
  0
SPLINE
  5
25b
100
AcDbEntity
  8
Шар_1
 62
3
100
AcDbSpline
 70
8
 71
3
 72
8
 73
4
 74
0
 40
0
 40
0
 40
0
 40
0
 40
1
 40
1
 40
1
 40
1
 10
56.257649
 20
182.355650
 30
0.0
 10
56.257649
 20
182.488857
 30
0.0
 10
56.213437
 20
182.592783
 30
0.0
 10
56.125013
 20
182.667430
 30
0.0
  0
SPLINE
  5
25c
100
AcDbEntity
  8
Шар_1
 62
3
100
AcDbSpline
 70
8
 71
3
 72
8
 73
4
 74
0
 40
0
 40
0
 40
0
 40
0
 40
1
 40
1
 40
1
 40
1
 10
56.125013
 20
182.667430
 30
0.0
 10
56.037738
 20
182.743223
 30
0.0
 10
55.915437
 20
182.781120
 30
0.0
 10
55.758111
 20
182.781120
 30
0.0
  0
SPLINE
  5
25d
100
AcDbEntity
  8
Шар_1
 62
3
100
AcDbSpline
 70
8
 71
3
 72
8
 73
4
 74
0
 40
0
 40
0
 40
0
 40
0
 40
1
 40
1
 40
1
 40
1
 10
55.758111
 20
182.781120
 30
0.0
 10
55.653610
 20
182.781120
 30
0.0
 10
55.540497
 20
182.762753
 30
0.0
 10
55.418770
 20
182.726020
 30
0.0
  0
SPLINE
  5
25e
100
AcDbEntity
  8
Шар_1
 62
3
100
AcDbSpline
 70
8
 71
3
 72
8
 73
4
 74
0
 40
0
 40
0
 40
0
 40
0
 40
1
 40
1
 40
1
 40
1
 10
55.418770
 20
182.726020
 30
0.0
 10
55.297044
 20
182.689287
 30
0.0
 10
55.178189
 20
182.633017
 30
0.0
 10
55.062204
 20
182.557210
 30
0.0
  0
LWPOLYLINE
  5
25f
100
AcDbEntity
  8
Шар_1
 62
3
100
AcDbPolyline
 90
4
 70
0
 10
56.717568
 20
180.460850
 30
0.0
 10
54.981244
 20
180.460850
 30
0.0
 10
54.981244
 20
180.820860
 30
0.0
 10
55.342978
 20
181.130920
 30
0.0
  0
SPLINE
  5
260
100
AcDbEntity
  8
Шар_1
 62
3
100
AcDbSpline
 70
8
 71
3
 72
8
 73
4
 74
0
 40
0
 40
0
 40
0
 40
0
 40
1
 40
1
 40
1
 40
1
 10
55.044974
 20
182.918940
 30
0.0
 10
55.126508
 20
182.959140
 30
0.0
 10
55.235028
 20
182.995887
 30
0.0
 10
55.370535
 20
183.029180
 30
0.0
  0
SPLINE
  5
261
100
AcDbEntity
  8
Шар_1
 62
3
100
AcDbSpline
 70
8
 71
3
 72
8
 73
4
 74
0
 40
0
 40
0
 40
0
 40
0
 40
1
 40
1
 40
1
 40
1
 10
55.370535
 20
183.029180
 30
0.0
 10
55.507190
 20
183.062447
 30
0.0
 10
55.639252
 20
183.079080
 30
0.0
 10
55.766720
 20
183.079080
 30
0.0
  0
SPLINE
  5
262
100
AcDbEntity
  8
Шар_1
 62
3
100
AcDbSpline
 70
8
 71
3
 72
8
 73
4
 74
0
 40
0
 40
0
 40
0
 40
0
 40
1
 40
1
 40
1
 40
1
 10
55.766720
 20
183.079080
 30
0.0
 10
56.029695
 20
183.079080
 30
0.0
 10
56.235826
 20
183.015347
 30
0.0
 10
56.385113
 20
182.887880
 30
0.0
  0
SPLINE
  5
263
100
AcDbEntity
  8
Шар_1
 62
3
100
AcDbSpline
 70
8
 71
3
 72
8
 73
4
 74
0
 40
0
 40
0
 40
0
 40
0
 40
1
 40
1
 40
1
 40
1
 10
56.385113
 20
182.887880
 30
0.0
 10
56.534400
 20
182.761560
 30
0.0
 10
56.609044
 20
182.589880
 30
0.0
 10
56.609044
 20
182.372840
 30
0.0
  0
SPLINE
  5
264
100
AcDbEntity
  8
Шар_1
 62
3
100
AcDbSpline
 70
8
 71
3
 72
8
 73
4
 74
0
 40
0
 40
0
 40
0
 40
0
 40
1
 40
1
 40
1
 40
1
 10
56.609044
 20
182.372840
 30
0.0
 10
56.609044
 20
182.275227
 30
0.0
 10
56.596411
 20
182.183933
 30
0.0
 10
56.571144
 20
182.098960
 30
0.0
  0
SPLINE
  5
265
100
AcDbEntity
  8
Шар_1
 62
3
100
AcDbSpline
 70
8
 71
3
 72
8
 73
4
 74
0
 40
0
 40
0
 40
0
 40
0
 40
1
 40
1
 40
1
 40
1
 10
56.571144
 20
182.098960
 30
0.0
 10
56.547031
 20
182.015127
 30
0.0
 10
56.510857
 20
181.935313
 30
0.0
 10
56.462624
 20
181.859520
 30
0.0
  0
SPLINE
  5
266
100
AcDbEntity
  8
Шар_1
 62
3
100
AcDbSpline
 70
8
 71
3
 72
8
 73
4
 74
0
 40
0
 40
0
 40
0
 40
0
 40
1
 40
1
 40
1
 40
1
 10
56.462624
 20
181.859520
 30
0.0
 10
56.417837
 20
181.788320
 30
0.0
 10
56.365013
 20
181.718270
 30
0.0
 10
56.304150
 20
181.649370
 30
0.0
  0
SPLINE
  5
267
100
AcDbEntity
  8
Шар_1
 62
3
100
AcDbSpline
 70
8
 71
3
 72
8
 73
4
 74
0
 40
0
 40
0
 40
0
 40
0
 40
1
 40
1
 40
1
 40
1
 10
56.304150
 20
181.649370
 30
0.0
 10
56.244437
 20
181.580470
 30
0.0
 10
56.171516
 20
181.504103
 30
0.0
 10
56.085387
 20
181.420270
 30
0.0
  0
SPLINE
  5
268
100
AcDbEntity
  8
Шар_1
 62
3
100
AcDbSpline
 70
8
 71
3
 72
8
 73
4
 74
0
 40
0
 40
0
 40
0
 40
0
 40
1
 40
1
 40
1
 40
1
 10
56.085387
 20
181.420270
 30
0.0
 10
55.962512
 20
181.299697
 30
0.0
 10
55.835617
 20
181.182563
 30
0.0
 10
55.704704
 20
181.068870
 30
0.0
  0
SPLINE
  5
269
100
AcDbEntity
  8
Шар_1
 62
3
100
AcDbSpline
 70
8
 71
3
 72
8
 73
4
 74
0
 40
0
 40
0
 40
0
 40
0
 40
1
 40
1
 40
1
 40
1
 10
55.704704
 20
181.068870
 30
0.0
 10
55.573791
 20
180.956337
 30
0.0
 10
55.451490
 20
180.851837
 30
0.0
 10
55.337803
 20
180.755370
 30
0.0
  0
LWPOLYLINE
  5
26a
100
AcDbEntity
  8
Шар_1
 62
3
100
AcDbPolyline
 90
3
 70
0
 10
55.062204
 20
182.557210
 30
0.0
 10
55.044974
 20
182.557210
 30
0.0
 10
55.044974
 20
182.918940
 30
0.0
  0
SPLINE
  5
26b
100
AcDbEntity
  8
Шар_1
 62
3
100
AcDbSpline
 70
8
 71
3
 72
8
 73
4
 74
0
 40
0
 40
0
 40
0
 40
0
 40
1
 40
1
 40
1
 40
1
 10
86.440143
 20
188.962070
 30
0.0
 10
86.440143
 20
188.782923
 30
0.0
 10
86.419473
 20
188.620317
 30
0.0
 10
86.378133
 20
188.474250
 30
0.0
  0
SPLINE
  5
26c
100
AcDbEntity
  8
Шар_1
 62
3
100
AcDbSpline
 70
8
 71
3
 72
8
 73
4
 74
0
 40
0
 40
0
 40
0
 40
0
 40
1
 40
1
 40
1
 40
1
 10
86.378133
 20
188.474250
 30
0.0
 10
86.337713
 20
188.328177
 30
0.0
 10
86.276161
 20
188.203693
 30
0.0
 10
86.193476
 20
188.100800
 30
0.0
  0
SPLINE
  5
26d
100
AcDbEntity
  8
Шар_1
 62
3
100
AcDbSpline
 70
8
 71
3
 72
8
 73
4
 74
0
 40
0
 40
0
 40
0
 40
0
 40
1
 40
1
 40
1
 40
1
 10
86.193476
 20
188.100800
 30
0.0
 10
86.109875
 20
187.996067
 30
0.0
 10
86.005143
 20
187.915220
 30
0.0
 10
85.879282
 20
187.858260
 30
0.0
  0
SPLINE
  5
26e
100
AcDbEntity
  8
Шар_1
 62
3
100
AcDbSpline
 70
8
 71
3
 72
8
 73
4
 74
0
 40
0
 40
0
 40
0
 40
0
 40
1
 40
1
 40
1
 40
1
 10
85.879282
 20
187.858260
 30
0.0
 10
85.753421
 20
187.801327
 30
0.0
 10
85.605511
 20
187.772860
 30
0.0
 10
85.435553
 20
187.772860
 30
0.0
  0
SPLINE
  5
26f
100
AcDbEntity
  8
Шар_1
 62
3
100
AcDbSpline
 70
8
 71
3
 72
8
 73
4
 74
0
 40
0
 40
0
 40
0
 40
0
 40
1
 40
1
 40
1
 40
1
 10
85.435553
 20
187.772860
 30
0.0
 10
85.387780
 20
187.772860
 30
0.0
 10
85.342763
 20
187.775527
 30
0.0
 10
85.300504
 20
187.780860
 30
0.0
  0
SPLINE
  5
270
100
AcDbEntity
  8
Шар_1
 62
3
100
AcDbSpline
 70
8
 71
3
 72
8
 73
4
 74
0
 40
0
 40
0
 40
0
 40
0
 40
1
 40
1
 40
1
 40
1
 10
85.300504
 20
187.780860
 30
0.0
 10
85.258244
 20
187.785527
 30
0.0
 10
85.220578
 20
187.793327
 30
0.0
 10
85.187505
 20
187.804260
 30
0.0
  0
LWPOLYLINE
  5
271
100
AcDbEntity
  8
Шар_1
 62
3
100
AcDbPolyline
 90
3
 70
0
 10
55.337803
 20
180.755370
 30
0.0
 10
56.717560
 20
180.755370
 30
0.0
 10
56.717568
 20
180.460850
 30
0.0
  0
SPLINE
  5
272
100
AcDbEntity
  8
Шар_1
 62
3
100
AcDbSpline
 70
8
 71
3
 72
8
 73
4
 74
0
 40
0
 40
0
 40
0
 40
0
 40
1
 40
1
 40
1
 40
1
 10
85.201285
 20
188.067430
 30
0.0
 10
85.227925
 20
188.053630
 30
0.0
 10
85.265592
 20
188.040297
 30
0.0
 10
85.314285
 20
188.027430
 30
0.0
  0
SPLINE
  5
273
100
AcDbEntity
  8
Шар_1
 62
3
100
AcDbSpline
 70
8
 71
3
 72
8
 73
4
 74
0
 40
0
 40
0
 40
0
 40
0
 40
1
 40
1
 40
1
 40
1
 10
85.314285
 20
188.027430
 30
0.0
 10
85.362978
 20
188.015497
 30
0.0
 10
85.417181
 20
188.009530
 30
0.0
 10
85.476894
 20
188.009530
 30
0.0
  0
SPLINE
  5
274
100
AcDbEntity
  8
Шар_1
 62
3
100
AcDbSpline
 70
8
 71
3
 72
8
 73
4
 74
0
 40
0
 40
0
 40
0
 40
0
 40
1
 40
1
 40
1
 40
1
 10
85.476894
 20
188.009530
 30
0.0
 10
85.679925
 20
188.009530
 30
0.0
 10
85.838859
 20
188.070163
 30
0.0
 10
85.953696
 20
188.191430
 30
0.0
  0
SPLINE
  5
275
100
AcDbEntity
  8
Шар_1
 62
3
100
AcDbSpline
 70
8
 71
3
 72
8
 73
4
 74
0
 40
0
 40
0
 40
0
 40
0
 40
1
 40
1
 40
1
 40
1
 10
85.953696
 20
188.191430
 30
0.0
 10
86.069452
 20
188.313617
 30
0.0
 10
86.136517
 20
188.481740
 30
0.0
 10
86.154890
 20
188.695800
 30
0.0
  0
SPLINE
  5
276
100
AcDbEntity
  8
Шар_1
 62
3
100
AcDbSpline
 70
8
 71
3
 72
8
 73
4
 74
0
 40
0
 40
0
 40
0
 40
0
 40
1
 40
1
 40
1
 40
1
 10
86.154890
 20
188.695800
 30
0.0
 10
86.069452
 20
188.644333
 30
0.0
 10
85.989066
 20
188.607583
 30
0.0
 10
85.913733
 20
188.585550
 30
0.0
  0
SPLINE
  5
277
100
AcDbEntity
  8
Шар_1
 62
3
100
AcDbSpline
 70
8
 71
3
 72
8
 73
4
 74
0
 40
0
 40
0
 40
0
 40
0
 40
1
 40
1
 40
1
 40
1
 10
85.913733
 20
188.585550
 30
0.0
 10
85.838400
 20
188.563483
 30
0.0
 10
85.756177
 20
188.552450
 30
0.0
 10
85.667064
 20
188.552450
 30
0.0
  0
SPLINE
  5
278
100
AcDbEntity
  8
Шар_1
 62
3
100
AcDbSpline
 70
8
 71
3
 72
8
 73
4
 74
0
 40
0
 40
0
 40
0
 40
0
 40
1
 40
1
 40
1
 40
1
 10
85.667064
 20
188.552450
 30
0.0
 10
85.582544
 20
188.552450
 30
0.0
 10
85.505833
 20
188.560717
 30
0.0
 10
85.436931
 20
188.577250
 30
0.0
  0
SPLINE
  5
279
100
AcDbEntity
  8
Шар_1
 62
3
100
AcDbSpline
 70
8
 71
3
 72
8
 73
4
 74
0
 40
0
 40
0
 40
0
 40
0
 40
1
 40
1
 40
1
 40
1
 10
85.436931
 20
188.577250
 30
0.0
 10
85.368947
 20
188.593783
 30
0.0
 10
85.300504
 20
188.625917
 30
0.0
 10
85.231602
 20
188.673650
 30
0.0
  0
SPLINE
  5
27a
100
AcDbEntity
  8
Шар_1
 62
3
100
AcDbSpline
 70
8
 71
3
 72
8
 73
4
 74
0
 40
0
 40
0
 40
0
 40
0
 40
1
 40
1
 40
1
 40
1
 10
85.231602
 20
188.673650
 30
0.0
 10
85.150757
 20
188.729717
 30
0.0
 10
85.089664
 20
188.800917
 30
0.0
 10
85.048323
 20
188.887250
 30
0.0
  0
SPLINE
  5
27b
100
AcDbEntity
  8
Шар_1
 62
3
100
AcDbSpline
 70
8
 71
3
 72
8
 73
4
 74
0
 40
0
 40
0
 40
0
 40
0
 40
1
 40
1
 40
1
 40
1
 10
85.048323
 20
188.887250
 30
0.0
 10
85.007903
 20
188.973610
 30
0.0
 10
84.987693
 20
189.076963
 30
0.0
 10
84.987693
 20
189.197310
 30
0.0
  0
SPLINE
  5
27c
100
AcDbEntity
  8
Шар_1
 62
3
100
AcDbSpline
 70
8
 71
3
 72
8
 73
4
 74
0
 40
0
 40
0
 40
0
 40
0
 40
1
 40
1
 40
1
 40
1
 10
84.987693
 20
189.197310
 30
0.0
 10
84.987693
 20
189.406770
 30
0.0
 10
85.056595
 20
189.577187
 30
0.0
 10
85.194399
 20
189.708560
 30
0.0
  0
SPLINE
  5
27d
100
AcDbEntity
  8
Шар_1
 62
3
100
AcDbSpline
 70
8
 71
3
 72
8
 73
4
 74
0
 40
0
 40
0
 40
0
 40
0
 40
1
 40
1
 40
1
 40
1
 10
85.194399
 20
189.708560
 30
0.0
 10
85.332203
 20
189.839933
 30
0.0
 10
85.500324
 20
189.905620
 30
0.0
 10
85.698763
 20
189.905620
 30
0.0
  0
SPLINE
  5
27e
100
AcDbEntity
  8
Шар_1
 62
3
100
AcDbSpline
 70
8
 71
3
 72
8
 73
4
 74
0
 40
0
 40
0
 40
0
 40
0
 40
1
 40
1
 40
1
 40
1
 10
85.698763
 20
189.905620
 30
0.0
 10
85.797982
 20
189.905620
 30
0.0
 10
85.889851
 20
189.890020
 30
0.0
 10
85.974371
 20
189.858820
 30
0.0
  0
SPLINE
  5
27f
100
AcDbEntity
  8
Шар_1
 62
3
100
AcDbSpline
 70
8
 71
3
 72
8
 73
4
 74
0
 40
0
 40
0
 40
0
 40
0
 40
1
 40
1
 40
1
 40
1
 10
85.974371
 20
189.858820
 30
0.0
 10
86.058891
 20
189.828487
 30
0.0
 10
86.132846
 20
189.782553
 30
0.0
 10
86.196236
 20
189.721020
 30
0.0
  0
SPLINE
  5
280
100
AcDbEntity
  8
Шар_1
 62
3
100
AcDbSpline
 70
8
 71
3
 72
8
 73
4
 74
0
 40
0
 40
0
 40
0
 40
0
 40
1
 40
1
 40
1
 40
1
 10
86.196236
 20
189.721020
 30
0.0
 10
86.274325
 20
189.644767
 30
0.0
 10
86.334499
 20
189.546467
 30
0.0
 10
86.376759
 20
189.426120
 30
0.0
  0
SPLINE
  5
281
100
AcDbEntity
  8
Шар_1
 62
3
100
AcDbSpline
 70
8
 71
3
 72
8
 73
4
 74
0
 40
0
 40
0
 40
0
 40
0
 40
1
 40
1
 40
1
 40
1
 10
86.376759
 20
189.426120
 30
0.0
 10
86.419019
 20
189.306687
 30
0.0
 10
86.440149
 20
189.151887
 30
0.0
 10
86.440149
 20
188.961720
 30
0.0
  0
LWPOLYLINE
  5
282
100
AcDbEntity
  8
Шар_1
 62
3
100
AcDbPolyline
 90
3
 70
0
 10
85.187505
 20
187.804260
 30
0.0
 10
85.187505
 20
188.067430
 30
0.0
 10
85.201285
 20
188.067430
 30
0.0
  0
SPLINE
  5
283
100
AcDbEntity
  8
Шар_1
 62
3
100
AcDbSpline
 70
8
 71
3
 72
8
 73
4
 74
0
 40
0
 40
0
 40
0
 40
0
 40
1
 40
1
 40
1
 40
1
 10
86.161779
 20
189.021370
 30
0.0
 10
86.161779
 20
189.163770
 30
0.0
 10
86.147079
 20
189.278147
 30
0.0
 10
86.117679
 20
189.364500
 30
0.0
  0
SPLINE
  5
284
100
AcDbEntity
  8
Шар_1
 62
3
100
AcDbSpline
 70
8
 71
3
 72
8
 73
4
 74
0
 40
0
 40
0
 40
0
 40
0
 40
1
 40
1
 40
1
 40
1
 10
86.117679
 20
189.364500
 30
0.0
 10
86.088279
 20
189.450860
 30
0.0
 10
86.047857
 20
189.517927
 30
0.0
 10
85.996412
 20
189.565700
 30
0.0
  0
SPLINE
  5
285
100
AcDbEntity
  8
Шар_1
 62
3
100
AcDbSpline
 70
8
 71
3
 72
8
 73
4
 74
0
 40
0
 40
0
 40
0
 40
0
 40
1
 40
1
 40
1
 40
1
 10
85.996412
 20
189.565700
 30
0.0
 10
85.953232
 20
189.607033
 30
0.0
 10
85.906838
 20
189.636433
 30
0.0
 10
85.857229
 20
189.653900
 30
0.0
  0
SPLINE
  5
286
100
AcDbEntity
  8
Шар_1
 62
3
100
AcDbSpline
 70
8
 71
3
 72
8
 73
4
 74
0
 40
0
 40
0
 40
0
 40
0
 40
1
 40
1
 40
1
 40
1
 10
85.857229
 20
189.653900
 30
0.0
 10
85.807622
 20
189.672300
 30
0.0
 10
85.753879
 20
189.681500
 30
0.0
 10
85.695998
 20
189.681500
 30
0.0
  0
SPLINE
  5
287
100
AcDbEntity
  8
Шар_1
 62
3
100
AcDbSpline
 70
8
 71
3
 72
8
 73
4
 74
0
 40
0
 40
0
 40
0
 40
0
 40
1
 40
1
 40
1
 40
1
 10
85.695998
 20
189.681500
 30
0.0
 10
85.563706
 20
189.681500
 30
0.0
 10
85.458975
 20
189.640160
 30
0.0
 10
85.381805
 20
189.557480
 30
0.0
  0
SPLINE
  5
288
100
AcDbEntity
  8
Шар_1
 62
3
100
AcDbSpline
 70
8
 71
3
 72
8
 73
4
 74
0
 40
0
 40
0
 40
0
 40
0
 40
1
 40
1
 40
1
 40
1
 10
85.381805
 20
189.557480
 30
0.0
 10
85.305553
 20
189.474793
 30
0.0
 10
85.267427
 20
189.358577
 30
0.0
 10
85.267427
 20
189.208830
 30
0.0
  0
SPLINE
  5
289
100
AcDbEntity
  8
Шар_1
 62
3
100
AcDbSpline
 70
8
 71
3
 72
8
 73
4
 74
0
 40
0
 40
0
 40
0
 40
0
 40
1
 40
1
 40
1
 40
1
 10
85.267427
 20
189.208830
 30
0.0
 10
85.267427
 20
189.121557
 30
0.0
 10
85.279830
 20
189.050357
 30
0.0
 10
85.304637
 20
188.995230
 30
0.0
  0
SPLINE
  5
28a
100
AcDbEntity
  8
Шар_1
 62
3
100
AcDbSpline
 70
8
 71
3
 72
8
 73
4
 74
0
 40
0
 40
0
 40
0
 40
0
 40
1
 40
1
 40
1
 40
1
 10
85.304637
 20
188.995230
 30
0.0
 10
85.329444
 20
188.940097
 30
0.0
 10
85.371244
 20
188.891867
 30
0.0
 10
85.430038
 20
188.850540
 30
0.0
  0
SPLINE
  5
28b
100
AcDbEntity
  8
Шар_1
 62
3
100
AcDbSpline
 70
8
 71
3
 72
8
 73
4
 74
0
 40
0
 40
0
 40
0
 40
0
 40
1
 40
1
 40
1
 40
1
 10
85.430038
 20
188.850540
 30
0.0
 10
85.471378
 20
188.822073
 30
0.0
 10
85.516854
 20
188.802773
 30
0.0
 10
85.566465
 20
188.792640
 30
0.0
  0
SPLINE
  5
28c
100
AcDbEntity
  8
Шар_1
 62
3
100
AcDbSpline
 70
8
 71
3
 72
8
 73
4
 74
0
 40
0
 40
0
 40
0
 40
0
 40
1
 40
1
 40
1
 40
1
 10
85.566465
 20
188.792640
 30
0.0
 10
85.616072
 20
188.783440
 30
0.0
 10
85.671193
 20
188.778840
 30
0.0
 10
85.731830
 20
188.778840
 30
0.0
  0
SPLINE
  5
28d
100
AcDbEntity
  8
Шар_1
 62
3
100
AcDbSpline
 70
8
 71
3
 72
8
 73
4
 74
0
 40
0
 40
0
 40
0
 40
0
 40
1
 40
1
 40
1
 40
1
 10
85.731830
 20
188.778840
 30
0.0
 10
85.803488
 20
188.778840
 30
0.0
 10
85.876065
 20
188.788473
 30
0.0
 10
85.949560
 20
188.807740
 30
0.0
  0
SPLINE
  5
28e
100
AcDbEntity
  8
Шар_1
 62
3
100
AcDbSpline
 70
8
 71
3
 72
8
 73
4
 74
0
 40
0
 40
0
 40
0
 40
0
 40
1
 40
1
 40
1
 40
1
 10
85.949560
 20
188.807740
 30
0.0
 10
86.023056
 20
188.827007
 30
0.0
 10
86.091958
 20
188.855040
 30
0.0
 10
86.156266
 20
188.891840
 30
0.0
  0
SPLINE
  5
28f
100
AcDbEntity
  8
Шар_1
 62
3
100
AcDbSpline
 70
8
 71
3
 72
8
 73
4
 74
0
 40
0
 40
0
 40
0
 40
0
 40
1
 40
1
 40
1
 40
1
 10
86.156266
 20
188.891840
 30
0.0
 10
86.157199
 20
188.911107
 30
0.0
 10
86.158133
 20
188.929940
 30
0.0
 10
86.159066
 20
188.948340
 30
0.0
  0
SPLINE
  5
290
100
AcDbEntity
  8
Шар_1
 62
3
100
AcDbSpline
 70
8
 71
3
 72
8
 73
4
 74
0
 40
0
 40
0
 40
0
 40
0
 40
1
 40
1
 40
1
 40
1
 10
86.159066
 20
188.948340
 30
0.0
 10
86.160933
 20
188.967607
 30
0.0
 10
86.161866
 20
188.991940
 30
0.0
 10
86.161866
 20
189.021340
 30
0.0
  0
LWPOLYLINE
  5
291
100
AcDbEntity
  8
Шар_1
 62
3
100
AcDbPolyline
 90
2
 70
0
 10
86.440149
 20
188.961720
 30
0.0
 10
86.440143
 20
188.962070
 30
0.0
  0
LWPOLYLINE
  5
292
100
AcDbEntity
  8
Шар_1
 62
3
100
AcDbPolyline
 90
1
 70
1
 10
86.161866
 20
189.021340
 30
0.0
  0
LWPOLYLINE
  5
293
100
AcDbEntity
  8
Шар_1
 62
3
100
AcDbPolyline
 90
4
 70
1
 10
84.483323
 20
187.812790
 30
0.0
 10
84.153971
 20
187.812790
 30
0.0
 10
84.153971
 20
188.205530
 30
0.0
 10
84.483323
 20
188.205530
 30
0.0
  0
SPLINE
  5
294
100
AcDbEntity
  8
Шар_1
 62
3
100
AcDbSpline
 70
8
 71
3
 72
8
 73
4
 74
0
 40
0
 40
0
 40
0
 40
0
 40
1
 40
1
 40
1
 40
1
 10
82.522369
 20
188.348840
 30
0.0
 10
82.619751
 20
188.431527
 30
0.0
 10
82.710243
 20
188.513750
 30
0.0
 10
82.793844
 20
188.595510
 30
0.0
  0
SPLINE
  5
295
100
AcDbEntity
  8
Шар_1
 62
3
100
AcDbSpline
 70
8
 71
3
 72
8
 73
4
 74
0
 40
0
 40
0
 40
0
 40
0
 40
1
 40
1
 40
1
 40
1
 10
82.793844
 20
188.595510
 30
0.0
 10
82.970233
 20
188.766390
 30
0.0
 10
83.091042
 20
188.901900
 30
0.0
 10
83.156269
 20
189.002040
 30
0.0
  0
SPLINE
  5
296
100
AcDbEntity
  8
Шар_1
 62
3
100
AcDbSpline
 70
8
 71
3
 72
8
 73
4
 74
0
 40
0
 40
0
 40
0
 40
0
 40
1
 40
1
 40
1
 40
1
 10
83.156269
 20
189.002040
 30
0.0
 10
83.221496
 20
189.103093
 30
0.0
 10
83.254109
 20
189.211957
 30
0.0
 10
83.254109
 20
189.328630
 30
0.0
  0
SPLINE
  5
297
100
AcDbEntity
  8
Шар_1
 62
3
100
AcDbSpline
 70
8
 71
3
 72
8
 73
4
 74
0
 40
0
 40
0
 40
0
 40
0
 40
1
 40
1
 40
1
 40
1
 10
83.254109
 20
189.328630
 30
0.0
 10
83.254109
 20
189.435197
 30
0.0
 10
83.218739
 20
189.518340
 30
0.0
 10
83.147999
 20
189.578060
 30
0.0
  0
SPLINE
  5
298
100
AcDbEntity
  8
Шар_1
 62
3
100
AcDbSpline
 70
8
 71
3
 72
8
 73
4
 74
0
 40
0
 40
0
 40
0
 40
0
 40
1
 40
1
 40
1
 40
1
 10
83.147999
 20
189.578060
 30
0.0
 10
83.078178
 20
189.638727
 30
0.0
 10
82.980338
 20
189.669060
 30
0.0
 10
82.854477
 20
189.669060
 30
0.0
  0
SPLINE
  5
299
100
AcDbEntity
  8
Шар_1
 62
3
100
AcDbSpline
 70
8
 71
3
 72
8
 73
4
 74
0
 40
0
 40
0
 40
0
 40
0
 40
1
 40
1
 40
1
 40
1
 10
82.854477
 20
189.669060
 30
0.0
 10
82.770876
 20
189.669060
 30
0.0
 10
82.680384
 20
189.654360
 30
0.0
 10
82.583002
 20
189.624960
 30
0.0
  0
SPLINE
  5
29a
100
AcDbEntity
  8
Шар_1
 62
3
100
AcDbSpline
 70
8
 71
3
 72
8
 73
4
 74
0
 40
0
 40
0
 40
0
 40
0
 40
1
 40
1
 40
1
 40
1
 10
82.583002
 20
189.624960
 30
0.0
 10
82.485621
 20
189.595560
 30
0.0
 10
82.390536
 20
189.550543
 30
0.0
 10
82.297748
 20
189.489910
 30
0.0
  0
LWPOLYLINE
  5
29b
100
AcDbEntity
  8
Шар_1
 62
3
100
AcDbPolyline
 90
4
 70
0
 10
83.622047
 20
187.812790
 30
0.0
 10
82.232981
 20
187.812790
 30
0.0
 10
82.232981
 20
188.100800
 30
0.0
 10
82.522369
 20
188.348840
 30
0.0
  0
SPLINE
  5
29c
100
AcDbEntity
  8
Шар_1
 62
3
100
AcDbSpline
 70
8
 71
3
 72
8
 73
4
 74
0
 40
0
 40
0
 40
0
 40
0
 40
1
 40
1
 40
1
 40
1
 10
82.283968
 20
189.779300
 30
0.0
 10
82.349195
 20
189.811433
 30
0.0
 10
82.436011
 20
189.840833
 30
0.0
 10
82.544418
 20
189.867500
 30
0.0
  0
SPLINE
  5
29d
100
AcDbEntity
  8
Шар_1
 62
3
100
AcDbSpline
 70
8
 71
3
 72
8
 73
4
 74
0
 40
0
 40
0
 40
0
 40
0
 40
1
 40
1
 40
1
 40
1
 10
82.544418
 20
189.867500
 30
0.0
 10
82.653743
 20
189.894167
 30
0.0
 10
82.759393
 20
189.907500
 30
0.0
 10
82.861368
 20
189.907500
 30
0.0
  0
SPLINE
  5
29e
100
AcDbEntity
  8
Шар_1
 62
3
100
AcDbSpline
 70
8
 71
3
 72
8
 73
4
 74
0
 40
0
 40
0
 40
0
 40
0
 40
1
 40
1
 40
1
 40
1
 10
82.861368
 20
189.907500
 30
0.0
 10
83.071749
 20
189.907500
 30
0.0
 10
83.236654
 20
189.856510
 30
0.0
 10
83.356085
 20
189.754530
 30
0.0
  0
SPLINE
  5
29f
100
AcDbEntity
  8
Шар_1
 62
3
100
AcDbSpline
 70
8
 71
3
 72
8
 73
4
 74
0
 40
0
 40
0
 40
0
 40
0
 40
1
 40
1
 40
1
 40
1
 10
83.356085
 20
189.754530
 30
0.0
 10
83.475515
 20
189.653477
 30
0.0
 10
83.535230
 20
189.516133
 30
0.0
 10
83.535230
 20
189.342500
 30
0.0
  0
SPLINE
  5
2a0
100
AcDbEntity
  8
Шар_1
 62
3
100
AcDbSpline
 70
8
 71
3
 72
8
 73
4
 74
0
 40
0
 40
0
 40
0
 40
0
 40
1
 40
1
 40
1
 40
1
 10
83.535230
 20
189.342500
 30
0.0
 10
83.535230
 20
189.264413
 30
0.0
 10
83.525123
 20
189.191377
 30
0.0
 10
83.504910
 20
189.123390
 30
0.0
  0
SPLINE
  5
2a1
100
AcDbEntity
  8
Шар_1
 62
3
100
AcDbSpline
 70
8
 71
3
 72
8
 73
4
 74
0
 40
0
 40
0
 40
0
 40
0
 40
1
 40
1
 40
1
 40
1
 10
83.504910
 20
189.123390
 30
0.0
 10
83.485617
 20
189.056323
 30
0.0
 10
83.456677
 20
188.992473
 30
0.0
 10
83.418090
 20
188.931840
 30
0.0
  0
SPLINE
  5
2a2
100
AcDbEntity
  8
Шар_1
 62
3
100
AcDbSpline
 70
8
 71
3
 72
8
 73
4
 74
0
 40
0
 40
0
 40
0
 40
0
 40
1
 40
1
 40
1
 40
1
 10
83.418090
 20
188.931840
 30
0.0
 10
83.382263
 20
188.874907
 30
0.0
 10
83.340003
 20
188.818867
 30
0.0
 10
83.291310
 20
188.763720
 30
0.0
  0
SPLINE
  5
2a3
100
AcDbEntity
  8
Шар_1
 62
3
100
AcDbSpline
 70
8
 71
3
 72
8
 73
4
 74
0
 40
0
 40
0
 40
0
 40
0
 40
1
 40
1
 40
1
 40
1
 10
83.291310
 20
188.763720
 30
0.0
 10
83.243537
 20
188.708587
 30
0.0
 10
83.185200
 20
188.647493
 30
0.0
 10
83.116299
 20
188.580440
 30
0.0
  0
SPLINE
  5
2a4
100
AcDbEntity
  8
Шар_1
 62
3
100
AcDbSpline
 70
8
 71
3
 72
8
 73
4
 74
0
 40
0
 40
0
 40
0
 40
0
 40
1
 40
1
 40
1
 40
1
 10
83.116299
 20
188.580440
 30
0.0
 10
83.017998
 20
188.483980
 30
0.0
 10
82.916482
 20
188.390273
 30
0.0
 10
82.811751
 20
188.299320
 30
0.0
  0
SPLINE
  5
2a5
100
AcDbEntity
  8
Шар_1
 62
3
100
AcDbSpline
 70
8
 71
3
 72
8
 73
4
 74
0
 40
0
 40
0
 40
0
 40
0
 40
1
 40
1
 40
1
 40
1
 10
82.811751
 20
188.299320
 30
0.0
 10
82.707020
 20
188.209287
 30
0.0
 10
82.609179
 20
188.125687
 30
0.0
 10
82.518228
 20
188.048520
 30
0.0
  0
LWPOLYLINE
  5
2a6
100
AcDbEntity
  8
Шар_1
 62
3
100
AcDbPolyline
 90
3
 70
0
 10
82.297748
 20
189.489910
 30
0.0
 10
82.283968
 20
189.489910
 30
0.0
 10
82.283968
 20
189.779300
 30
0.0
  0
SPLINE
  5
2a7
100
AcDbEntity
  8
Шар_1
 62
3
100
AcDbSpline
 70
8
 71
3
 72
8
 73
4
 74
0
 40
0
 40
0
 40
0
 40
0
 40
1
 40
1
 40
1
 40
1
 10
88.449367
 20
181.564470
 30
0.0
 10
88.449367
 20
181.385330
 30
0.0
 10
88.428697
 20
181.222723
 30
0.0
 10
88.387357
 20
181.076650
 30
0.0
  0
SPLINE
  5
2a8
100
AcDbEntity
  8
Шар_1
 62
3
100
AcDbSpline
 70
8
 71
3
 72
8
 73
4
 74
0
 40
0
 40
0
 40
0
 40
0
 40
1
 40
1
 40
1
 40
1
 10
88.387357
 20
181.076650
 30
0.0
 10
88.346937
 20
180.930577
 30
0.0
 10
88.285385
 20
180.806093
 30
0.0
 10
88.202700
 20
180.703200
 30
0.0
  0
SPLINE
  5
2a9
100
AcDbEntity
  8
Шар_1
 62
3
100
AcDbSpline
 70
8
 71
3
 72
8
 73
4
 74
0
 40
0
 40
0
 40
0
 40
0
 40
1
 40
1
 40
1
 40
1
 10
88.202700
 20
180.703200
 30
0.0
 10
88.119099
 20
180.598467
 30
0.0
 10
88.014367
 20
180.517620
 30
0.0
 10
87.888506
 20
180.460660
 30
0.0
  0
SPLINE
  5
2aa
100
AcDbEntity
  8
Шар_1
 62
3
100
AcDbSpline
 70
8
 71
3
 72
8
 73
4
 74
0
 40
0
 40
0
 40
0
 40
0
 40
1
 40
1
 40
1
 40
1
 10
87.888506
 20
180.460660
 30
0.0
 10
87.762645
 20
180.403727
 30
0.0
 10
87.614735
 20
180.375260
 30
0.0
 10
87.444776
 20
180.375260
 30
0.0
  0
SPLINE
  5
2ab
100
AcDbEntity
  8
Шар_1
 62
3
100
AcDbSpline
 70
8
 71
3
 72
8
 73
4
 74
0
 40
0
 40
0
 40
0
 40
0
 40
1
 40
1
 40
1
 40
1
 10
87.444776
 20
180.375260
 30
0.0
 10
87.397003
 20
180.375260
 30
0.0
 10
87.351987
 20
180.377927
 30
0.0
 10
87.309728
 20
180.383260
 30
0.0
  0
SPLINE
  5
2ac
100
AcDbEntity
  8
Шар_1
 62
3
100
AcDbSpline
 70
8
 71
3
 72
8
 73
4
 74
0
 40
0
 40
0
 40
0
 40
0
 40
1
 40
1
 40
1
 40
1
 10
87.309728
 20
180.383260
 30
0.0
 10
87.267468
 20
180.387927
 30
0.0
 10
87.229802
 20
180.395727
 30
0.0
 10
87.196729
 20
180.406660
 30
0.0
  0
LWPOLYLINE
  5
2ad
100
AcDbEntity
  8
Шар_1
 62
3
100
AcDbPolyline
 90
3
 70
0
 10
82.518228
 20
188.048520
 30
0.0
 10
83.622040
 20
188.048520
 30
0.0
 10
83.622047
 20
187.812790
 30
0.0
  0
SPLINE
  5
2ae
100
AcDbEntity
  8
Шар_1
 62
3
100
AcDbSpline
 70
8
 71
3
 72
8
 73
4
 74
0
 40
0
 40
0
 40
0
 40
0
 40
1
 40
1
 40
1
 40
1
 10
87.210509
 20
180.669870
 30
0.0
 10
87.237149
 20
180.656070
 30
0.0
 10
87.274816
 20
180.642737
 30
0.0
 10
87.323509
 20
180.629870
 30
0.0
  0
SPLINE
  5
2af
100
AcDbEntity
  8
Шар_1
 62
3
100
AcDbSpline
 70
8
 71
3
 72
8
 73
4
 74
0
 40
0
 40
0
 40
0
 40
0
 40
1
 40
1
 40
1
 40
1
 10
87.323509
 20
180.629870
 30
0.0
 10
87.372202
 20
180.617937
 30
0.0
 10
87.426405
 20
180.611970
 30
0.0
 10
87.486118
 20
180.611970
 30
0.0
  0
SPLINE
  5
2b0
100
AcDbEntity
  8
Шар_1
 62
3
100
AcDbSpline
 70
8
 71
3
 72
8
 73
4
 74
0
 40
0
 40
0
 40
0
 40
0
 40
1
 40
1
 40
1
 40
1
 10
87.486118
 20
180.611970
 30
0.0
 10
87.689149
 20
180.611970
 30
0.0
 10
87.848083
 20
180.672603
 30
0.0
 10
87.962920
 20
180.793870
 30
0.0
  0
SPLINE
  5
2b1
100
AcDbEntity
  8
Шар_1
 62
3
100
AcDbSpline
 70
8
 71
3
 72
8
 73
4
 74
0
 40
0
 40
0
 40
0
 40
0
 40
1
 40
1
 40
1
 40
1
 10
87.962920
 20
180.793870
 30
0.0
 10
88.078676
 20
180.916057
 30
0.0
 10
88.145741
 20
181.084177
 30
0.0
 10
88.164114
 20
181.298230
 30
0.0
  0
SPLINE
  5
2b2
100
AcDbEntity
  8
Шар_1
 62
3
100
AcDbSpline
 70
8
 71
3
 72
8
 73
4
 74
0
 40
0
 40
0
 40
0
 40
0
 40
1
 40
1
 40
1
 40
1
 10
88.164114
 20
181.298230
 30
0.0
 10
88.078675
 20
181.246763
 30
0.0
 10
87.998290
 20
181.210017
 30
0.0
 10
87.922957
 20
181.187990
 30
0.0
  0
SPLINE
  5
2b3
100
AcDbEntity
  8
Шар_1
 62
3
100
AcDbSpline
 70
8
 71
3
 72
8
 73
4
 74
0
 40
0
 40
0
 40
0
 40
0
 40
1
 40
1
 40
1
 40
1
 10
87.922957
 20
181.187990
 30
0.0
 10
87.847624
 20
181.165923
 30
0.0
 10
87.765401
 20
181.154890
 30
0.0
 10
87.676288
 20
181.154890
 30
0.0
  0
SPLINE
  5
2b4
100
AcDbEntity
  8
Шар_1
 62
3
100
AcDbSpline
 70
8
 71
3
 72
8
 73
4
 74
0
 40
0
 40
0
 40
0
 40
0
 40
1
 40
1
 40
1
 40
1
 10
87.676288
 20
181.154890
 30
0.0
 10
87.591768
 20
181.154890
 30
0.0
 10
87.515057
 20
181.163157
 30
0.0
 10
87.446154
 20
181.179690
 30
0.0
  0
SPLINE
  5
2b5
100
AcDbEntity
  8
Шар_1
 62
3
100
AcDbSpline
 70
8
 71
3
 72
8
 73
4
 74
0
 40
0
 40
0
 40
0
 40
0
 40
1
 40
1
 40
1
 40
1
 10
87.446154
 20
181.179690
 30
0.0
 10
87.378171
 20
181.196223
 30
0.0
 10
87.309728
 20
181.228390
 30
0.0
 10
87.240826
 20
181.276190
 30
0.0
  0
SPLINE
  5
2b6
100
AcDbEntity
  8
Шар_1
 62
3
100
AcDbSpline
 70
8
 71
3
 72
8
 73
4
 74
0
 40
0
 40
0
 40
0
 40
0
 40
1
 40
1
 40
1
 40
1
 10
87.240826
 20
181.276190
 30
0.0
 10
87.159981
 20
181.332257
 30
0.0
 10
87.098888
 20
181.403457
 30
0.0
 10
87.057547
 20
181.489790
 30
0.0
  0
SPLINE
  5
2b7
100
AcDbEntity
  8
Шар_1
 62
3
100
AcDbSpline
 70
8
 71
3
 72
8
 73
4
 74
0
 40
0
 40
0
 40
0
 40
0
 40
1
 40
1
 40
1
 40
1
 10
87.057547
 20
181.489790
 30
0.0
 10
87.017127
 20
181.576143
 30
0.0
 10
86.996917
 20
181.679497
 30
0.0
 10
86.996917
 20
181.799850
 30
0.0
  0
SPLINE
  5
2b8
100
AcDbEntity
  8
Шар_1
 62
3
100
AcDbSpline
 70
8
 71
3
 72
8
 73
4
 74
0
 40
0
 40
0
 40
0
 40
0
 40
1
 40
1
 40
1
 40
1
 10
86.996917
 20
181.799850
 30
0.0
 10
86.996917
 20
182.009310
 30
0.0
 10
87.065819
 20
182.179727
 30
0.0
 10
87.203623
 20
182.311100
 30
0.0
  0
SPLINE
  5
2b9
100
AcDbEntity
  8
Шар_1
 62
3
100
AcDbSpline
 70
8
 71
3
 72
8
 73
4
 74
0
 40
0
 40
0
 40
0
 40
0
 40
1
 40
1
 40
1
 40
1
 10
87.203623
 20
182.311100
 30
0.0
 10
87.341427
 20
182.442473
 30
0.0
 10
87.509548
 20
182.508160
 30
0.0
 10
87.707986
 20
182.508160
 30
0.0
  0
SPLINE
  5
2ba
100
AcDbEntity
  8
Шар_1
 62
3
100
AcDbSpline
 70
8
 71
3
 72
8
 73
4
 74
0
 40
0
 40
0
 40
0
 40
0
 40
1
 40
1
 40
1
 40
1
 10
87.707986
 20
182.508160
 30
0.0
 10
87.807205
 20
182.508160
 30
0.0
 10
87.899075
 20
182.492527
 30
0.0
 10
87.983595
 20
182.461260
 30
0.0
  0
SPLINE
  5
2bb
100
AcDbEntity
  8
Шар_1
 62
3
100
AcDbSpline
 70
8
 71
3
 72
8
 73
4
 74
0
 40
0
 40
0
 40
0
 40
0
 40
1
 40
1
 40
1
 40
1
 10
87.983595
 20
182.461260
 30
0.0
 10
88.068115
 20
182.430927
 30
0.0
 10
88.142070
 20
182.384993
 30
0.0
 10
88.205460
 20
182.323460
 30
0.0
  0
SPLINE
  5
2bc
100
AcDbEntity
  8
Шар_1
 62
3
100
AcDbSpline
 70
8
 71
3
 72
8
 73
4
 74
0
 40
0
 40
0
 40
0
 40
0
 40
1
 40
1
 40
1
 40
1
 10
88.205460
 20
182.323460
 30
0.0
 10
88.283549
 20
182.247207
 30
0.0
 10
88.343723
 20
182.148903
 30
0.0
 10
88.385983
 20
182.028550
 30
0.0
  0
SPLINE
  5
2bd
100
AcDbEntity
  8
Шар_1
 62
3
100
AcDbSpline
 70
8
 71
3
 72
8
 73
4
 74
0
 40
0
 40
0
 40
0
 40
0
 40
1
 40
1
 40
1
 40
1
 10
88.385983
 20
182.028550
 30
0.0
 10
88.428243
 20
181.909123
 30
0.0
 10
88.449373
 20
181.754323
 30
0.0
 10
88.449373
 20
181.564150
 30
0.0
  0
LWPOLYLINE
  5
2be
100
AcDbEntity
  8
Шар_1
 62
3
100
AcDbPolyline
 90
3
 70
0
 10
87.196729
 20
180.406660
 30
0.0
 10
87.196729
 20
180.669870
 30
0.0
 10
87.210509
 20
180.669870
 30
0.0
  0
SPLINE
  5
2bf
100
AcDbEntity
  8
Шар_1
 62
3
100
AcDbSpline
 70
8
 71
3
 72
8
 73
4
 74
0
 40
0
 40
0
 40
0
 40
0
 40
1
 40
1
 40
1
 40
1
 10
88.171003
 20
181.623770
 30
0.0
 10
88.171003
 20
181.766170
 30
0.0
 10
88.156303
 20
181.880550
 30
0.0
 10
88.126903
 20
181.966910
 30
0.0
  0
SPLINE
  5
2c0
100
AcDbEntity
  8
Шар_1
 62
3
100
AcDbSpline
 70
8
 71
3
 72
8
 73
4
 74
0
 40
0
 40
0
 40
0
 40
0
 40
1
 40
1
 40
1
 40
1
 10
88.126903
 20
181.966910
 30
0.0
 10
88.097503
 20
182.053263
 30
0.0
 10
88.057081
 20
182.120327
 30
0.0
 10
88.005636
 20
182.168100
 30
0.0
  0
SPLINE
  5
2c1
100
AcDbEntity
  8
Шар_1
 62
3
100
AcDbSpline
 70
8
 71
3
 72
8
 73
4
 74
0
 40
0
 40
0
 40
0
 40
0
 40
1
 40
1
 40
1
 40
1
 10
88.005636
 20
182.168100
 30
0.0
 10
87.962456
 20
182.209433
 30
0.0
 10
87.916062
 20
182.238833
 30
0.0
 10
87.866453
 20
182.256300
 30
0.0
  0
SPLINE
  5
2c2
100
AcDbEntity
  8
Шар_1
 62
3
100
AcDbSpline
 70
8
 71
3
 72
8
 73
4
 74
0
 40
0
 40
0
 40
0
 40
0
 40
1
 40
1
 40
1
 40
1
 10
87.866453
 20
182.256300
 30
0.0
 10
87.816846
 20
182.274700
 30
0.0
 10
87.763103
 20
182.283900
 30
0.0
 10
87.705222
 20
182.283900
 30
0.0
  0
SPLINE
  5
2c3
100
AcDbEntity
  8
Шар_1
 62
3
100
AcDbSpline
 70
8
 71
3
 72
8
 73
4
 74
0
 40
0
 40
0
 40
0
 40
0
 40
1
 40
1
 40
1
 40
1
 10
87.705222
 20
182.283900
 30
0.0
 10
87.572930
 20
182.283900
 30
0.0
 10
87.468199
 20
182.242560
 30
0.0
 10
87.391029
 20
182.159880
 30
0.0
  0
SPLINE
  5
2c4
100
AcDbEntity
  8
Шар_1
 62
3
100
AcDbSpline
 70
8
 71
3
 72
8
 73
4
 74
0
 40
0
 40
0
 40
0
 40
0
 40
1
 40
1
 40
1
 40
1
 10
87.391029
 20
182.159880
 30
0.0
 10
87.314777
 20
182.077193
 30
0.0
 10
87.276651
 20
181.960977
 30
0.0
 10
87.276651
 20
181.811230
 30
0.0
  0
SPLINE
  5
2c5
100
AcDbEntity
  8
Шар_1
 62
3
100
AcDbSpline
 70
8
 71
3
 72
8
 73
4
 74
0
 40
0
 40
0
 40
0
 40
0
 40
1
 40
1
 40
1
 40
1
 10
87.276651
 20
181.811230
 30
0.0
 10
87.276651
 20
181.723957
 30
0.0
 10
87.289054
 20
181.652760
 30
0.0
 10
87.313861
 20
181.597640
 30
0.0
  0
SPLINE
  5
2c6
100
AcDbEntity
  8
Шар_1
 62
3
100
AcDbSpline
 70
8
 71
3
 72
8
 73
4
 74
0
 40
0
 40
0
 40
0
 40
0
 40
1
 40
1
 40
1
 40
1
 10
87.313861
 20
181.597640
 30
0.0
 10
87.338668
 20
181.542507
 30
0.0
 10
87.380468
 20
181.494273
 30
0.0
 10
87.439263
 20
181.452940
 30
0.0
  0
SPLINE
  5
2c7
100
AcDbEntity
  8
Шар_1
 62
3
100
AcDbSpline
 70
8
 71
3
 72
8
 73
4
 74
0
 40
0
 40
0
 40
0
 40
0
 40
1
 40
1
 40
1
 40
1
 10
87.439263
 20
181.452940
 30
0.0
 10
87.480603
 20
181.424473
 30
0.0
 10
87.526078
 20
181.405173
 30
0.0
 10
87.575689
 20
181.395040
 30
0.0
  0
SPLINE
  5
2c8
100
AcDbEntity
  8
Шар_1
 62
3
100
AcDbSpline
 70
8
 71
3
 72
8
 73
4
 74
0
 40
0
 40
0
 40
0
 40
0
 40
1
 40
1
 40
1
 40
1
 10
87.575689
 20
181.395040
 30
0.0
 10
87.625302
 20
181.385840
 30
0.0
 10
87.680424
 20
181.381240
 30
0.0
 10
87.741054
 20
181.381240
 30
0.0
  0
SPLINE
  5
2c9
100
AcDbEntity
  8
Шар_1
 62
3
100
AcDbSpline
 70
8
 71
3
 72
8
 73
4
 74
0
 40
0
 40
0
 40
0
 40
0
 40
1
 40
1
 40
1
 40
1
 10
87.741054
 20
181.381240
 30
0.0
 10
87.812713
 20
181.381240
 30
0.0
 10
87.885290
 20
181.390873
 30
0.0
 10
87.958785
 20
181.410140
 30
0.0
  0
SPLINE
  5
2ca
100
AcDbEntity
  8
Шар_1
 62
3
100
AcDbSpline
 70
8
 71
3
 72
8
 73
4
 74
0
 40
0
 40
0
 40
0
 40
0
 40
1
 40
1
 40
1
 40
1
 10
87.958785
 20
181.410140
 30
0.0
 10
88.032280
 20
181.429407
 30
0.0
 10
88.101182
 20
181.457440
 30
0.0
 10
88.165491
 20
181.494240
 30
0.0
  0
SPLINE
  5
2cb
100
AcDbEntity
  8
Шар_1
 62
3
100
AcDbSpline
 70
8
 71
3
 72
8
 73
4
 74
0
 40
0
 40
0
 40
0
 40
0
 40
1
 40
1
 40
1
 40
1
 10
88.165491
 20
181.494240
 30
0.0
 10
88.166424
 20
181.513507
 30
0.0
 10
88.167358
 20
181.532340
 30
0.0
 10
88.168291
 20
181.550740
 30
0.0
  0
SPLINE
  5
2cc
100
AcDbEntity
  8
Шар_1
 62
3
100
AcDbSpline
 70
8
 71
3
 72
8
 73
4
 74
0
 40
0
 40
0
 40
0
 40
0
 40
1
 40
1
 40
1
 40
1
 10
88.168291
 20
181.550740
 30
0.0
 10
88.170158
 20
181.570007
 30
0.0
 10
88.171091
 20
181.594340
 30
0.0
 10
88.171091
 20
181.623740
 30
0.0
  0
LWPOLYLINE
  5
2cd
100
AcDbEntity
  8
Шар_1
 62
3
100
AcDbPolyline
 90
2
 70
0
 10
88.449373
 20
181.564150
 30
0.0
 10
88.449367
 20
181.564470
 30
0.0
  0
LWPOLYLINE
  5
2ce
100
AcDbEntity
  8
Шар_1
 62
3
100
AcDbPolyline
 90
1
 70
1
 10
88.171091
 20
181.623740
 30
0.0
  0
LWPOLYLINE
  5
2cf
100
AcDbEntity
  8
Шар_1
 62
3
100
AcDbPolyline
 90
4
 70
1
 10
86.492547
 20
180.415190
 30
0.0
 10
86.163195
 20
180.415190
 30
0.0
 10
86.163195
 20
180.807930
 30
0.0
 10
86.492547
 20
180.807930
 30
0.0
  0
SPLINE
  5
2d0
100
AcDbEntity
  8
Шар_1
 62
3
100
AcDbSpline
 70
8
 71
3
 72
8
 73
4
 74
0
 40
0
 40
0
 40
0
 40
0
 40
1
 40
1
 40
1
 40
1
 10
84.403435
 20
182.187350
 30
0.0
 10
84.461315
 20
182.187350
 30
0.0
 10
84.523327
 20
182.191950
 30
0.0
 10
84.589471
 20
182.201150
 30
0.0
  0
SPLINE
  5
2d1
100
AcDbEntity
  8
Шар_1
 62
3
100
AcDbSpline
 70
8
 71
3
 72
8
 73
4
 74
0
 40
0
 40
0
 40
0
 40
0
 40
1
 40
1
 40
1
 40
1
 10
84.589471
 20
182.201150
 30
0.0
 10
84.655618
 20
182.211283
 30
0.0
 10
84.705687
 20
182.225517
 30
0.0
 10
84.739678
 20
182.243850
 30
0.0
  0
SPLINE
  5
2d2
100
AcDbEntity
  8
Шар_1
 62
3
100
AcDbSpline
 70
8
 71
3
 72
8
 73
4
 74
0
 40
0
 40
0
 40
0
 40
0
 40
1
 40
1
 40
1
 40
1
 10
84.739678
 20
182.243850
 30
0.0
 10
84.781938
 20
182.266850
 30
0.0
 10
84.815011
 20
182.295783
 30
0.0
 10
84.838898
 20
182.330650
 30
0.0
  0
SPLINE
  5
2d3
100
AcDbEntity
  8
Шар_1
 62
3
100
AcDbSpline
 70
8
 71
3
 72
8
 73
4
 74
0
 40
0
 40
0
 40
0
 40
0
 40
1
 40
1
 40
1
 40
1
 10
84.838898
 20
182.330650
 30
0.0
 10
84.863705
 20
182.366450
 30
0.0
 10
84.877945
 20
182.414220
 30
0.0
 10
84.881618
 20
182.473960
 30
0.0
  0
LWPOLYLINE
  5
2d4
100
AcDbEntity
  8
Шар_1
 62
3
100
AcDbPolyline
 90
7
 70
0
 10
85.514137
 20
180.415190
 30
0.0
 10
84.403435
 20
180.415190
 30
0.0
 10
84.403435
 20
180.624650
 30
0.0
 10
84.830628
 20
180.624650
 30
0.0
 10
84.830628
 20
181.999930
 30
0.0
 10
84.403435
 20
181.999930
 30
0.0
 10
84.403435
 20
182.187350
 30
0.0
  0
SPLINE
  5
2d5
100
AcDbEntity
  8
Шар_1
 62
3
100
AcDbSpline
 70
8
 71
3
 72
8
 73
4
 74
0
 40
0
 40
0
 40
0
 40
0
 40
1
 40
1
 40
1
 40
1
 10
115.135160
 20
188.521670
 30
0.0
 10
115.135160
 20
188.344357
 30
0.0
 10
115.065800
 20
188.196903
 30
0.0
 10
114.927080
 20
188.079310
 30
0.0
  0
SPLINE
  5
2d6
100
AcDbEntity
  8
Шар_1
 62
3
100
AcDbSpline
 70
8
 71
3
 72
8
 73
4
 74
0
 40
0
 40
0
 40
0
 40
0
 40
1
 40
1
 40
1
 40
1
 10
114.927080
 20
188.079310
 30
0.0
 10
114.789273
 20
187.961717
 30
0.0
 10
114.615640
 20
187.902920
 30
0.0
 10
114.406180
 20
187.902920
 30
0.0
  0
SPLINE
  5
2d7
100
AcDbEntity
  8
Шар_1
 62
3
100
AcDbSpline
 70
8
 71
3
 72
8
 73
4
 74
0
 40
0
 40
0
 40
0
 40
0
 40
1
 40
1
 40
1
 40
1
 10
114.406180
 20
187.902920
 30
0.0
 10
114.183853
 20
187.902920
 30
0.0
 10
114.006543
 20
187.960340
 30
0.0
 10
113.874250
 20
188.075180
 30
0.0
  0
SPLINE
  5
2d8
100
AcDbEntity
  8
Шар_1
 62
3
100
AcDbSpline
 70
8
 71
3
 72
8
 73
4
 74
0
 40
0
 40
0
 40
0
 40
0
 40
1
 40
1
 40
1
 40
1
 10
113.874250
 20
188.075180
 30
0.0
 10
113.742877
 20
188.190020
 30
0.0
 10
113.677190
 20
188.337010
 30
0.0
 10
113.677190
 20
188.516150
 30
0.0
  0
SPLINE
  5
2d9
100
AcDbEntity
  8
Шар_1
 62
3
100
AcDbSpline
 70
8
 71
3
 72
8
 73
4
 74
0
 40
0
 40
0
 40
0
 40
0
 40
1
 40
1
 40
1
 40
1
 10
113.677190
 20
188.516150
 30
0.0
 10
113.677190
 20
188.630070
 30
0.0
 10
113.710257
 20
188.732967
 30
0.0
 10
113.776390
 20
188.824840
 30
0.0
  0
SPLINE
  5
2da
100
AcDbEntity
  8
Шар_1
 62
3
100
AcDbSpline
 70
8
 71
3
 72
8
 73
4
 74
0
 40
0
 40
0
 40
0
 40
0
 40
1
 40
1
 40
1
 40
1
 10
113.776390
 20
188.824840
 30
0.0
 10
113.842523
 20
188.917627
 30
0.0
 10
113.935770
 20
188.991120
 30
0.0
 10
114.056130
 20
189.045320
 30
0.0
  0
LWPOLYLINE
  5
2db
100
AcDbEntity
  8
Шар_1
 62
3
100
AcDbPolyline
 90
5
 70
0
 10
84.881618
 20
182.473960
 30
0.0
 10
85.095215
 20
182.473960
 30
0.0
 10
85.095215
 20
180.624630
 30
0.0
 10
85.514139
 20
180.624630
 30
0.0
 10
85.514137
 20
180.415190
 30
0.0
  0
SPLINE
  5
2dc
100
AcDbEntity
  8
Шар_1
 62
3
100
AcDbSpline
 70
8
 71
3
 72
8
 73
4
 74
0
 40
0
 40
0
 40
0
 40
0
 40
1
 40
1
 40
1
 40
1
 10
114.056130
 20
189.053320
 30
0.0
 10
113.945890
 20
189.112120
 30
0.0
 10
113.864127
 20
189.176430
 30
0.0
 10
113.810840
 20
189.246250
 30
0.0
  0
SPLINE
  5
2dd
100
AcDbEntity
  8
Шар_1
 62
3
100
AcDbSpline
 70
8
 71
3
 72
8
 73
4
 74
0
 40
0
 40
0
 40
0
 40
0
 40
1
 40
1
 40
1
 40
1
 10
113.810840
 20
189.246250
 30
0.0
 10
113.758507
 20
189.316070
 30
0.0
 10
113.732340
 20
189.403347
 30
0.0
 10
113.732340
 20
189.508080
 30
0.0
  0
SPLINE
  5
2de
100
AcDbEntity
  8
Шар_1
 62
3
100
AcDbSpline
 70
8
 71
3
 72
8
 73
4
 74
0
 40
0
 40
0
 40
0
 40
0
 40
1
 40
1
 40
1
 40
1
 10
113.732340
 20
189.508080
 30
0.0
 10
113.732340
 20
189.662420
 30
0.0
 10
113.795730
 20
189.791037
 30
0.0
 10
113.922510
 20
189.893930
 30
0.0
  0
SPLINE
  5
2df
100
AcDbEntity
  8
Шар_1
 62
3
100
AcDbSpline
 70
8
 71
3
 72
8
 73
4
 74
0
 40
0
 40
0
 40
0
 40
0
 40
1
 40
1
 40
1
 40
1
 10
113.922510
 20
189.893930
 30
0.0
 10
114.049290
 20
189.996823
 30
0.0
 10
114.210523
 20
190.048270
 30
0.0
 10
114.406210
 20
190.048270
 30
0.0
  0
SPLINE
  5
2e0
100
AcDbEntity
  8
Шар_1
 62
3
100
AcDbSpline
 70
8
 71
3
 72
8
 73
4
 74
0
 40
0
 40
0
 40
0
 40
0
 40
1
 40
1
 40
1
 40
1
 10
114.406210
 20
190.048270
 30
0.0
 10
114.611077
 20
190.048270
 30
0.0
 10
114.774603
 20
189.999120
 30
0.0
 10
114.896790
 20
189.900820
 30
0.0
  0
SPLINE
  5
2e1
100
AcDbEntity
  8
Шар_1
 62
3
100
AcDbSpline
 70
8
 71
3
 72
8
 73
4
 74
0
 40
0
 40
0
 40
0
 40
0
 40
1
 40
1
 40
1
 40
1
 10
114.896790
 20
189.900820
 30
0.0
 10
115.018977
 20
189.802520
 30
0.0
 10
115.080070
 20
189.677577
 30
0.0
 10
115.080070
 20
189.525990
 30
0.0
  0
SPLINE
  5
2e2
100
AcDbEntity
  8
Шар_1
 62
3
100
AcDbSpline
 70
8
 71
3
 72
8
 73
4
 74
0
 40
0
 40
0
 40
0
 40
0
 40
1
 40
1
 40
1
 40
1
 10
115.080070
 20
189.525990
 30
0.0
 10
115.080070
 20
189.433203
 30
0.0
 10
115.051137
 20
189.341793
 30
0.0
 10
114.993270
 20
189.251760
 30
0.0
  0
SPLINE
  5
2e3
100
AcDbEntity
  8
Шар_1
 62
3
100
AcDbSpline
 70
8
 71
3
 72
8
 73
4
 74
0
 40
0
 40
0
 40
0
 40
0
 40
1
 40
1
 40
1
 40
1
 10
114.993270
 20
189.251760
 30
0.0
 10
114.935403
 20
189.162647
 30
0.0
 10
114.850427
 20
189.092827
 30
0.0
 10
114.738340
 20
189.042300
 30
0.0
  0
LWPOLYLINE
  5
2e4
100
AcDbEntity
  8
Шар_1
 62
3
100
AcDbPolyline
 90
2
 70
0
 10
114.056130
 20
189.045320
 30
0.0
 10
114.056130
 20
189.053320
 30
0.0
  0
SPLINE
  5
2e5
100
AcDbEntity
  8
Шар_1
 62
3
100
AcDbSpline
 70
8
 71
3
 72
8
 73
4
 74
0
 40
0
 40
0
 40
0
 40
0
 40
1
 40
1
 40
1
 40
1
 10
114.738340
 20
189.034300
 30
0.0
 10
114.866953
 20
188.979167
 30
0.0
 10
114.965253
 20
188.911183
 30
0.0
 10
115.033240
 20
188.830350
 30
0.0
  0
SPLINE
  5
2e6
100
AcDbEntity
  8
Шар_1
 62
3
100
AcDbSpline
 70
8
 71
3
 72
8
 73
4
 74
0
 40
0
 40
0
 40
0
 40
0
 40
1
 40
1
 40
1
 40
1
 10
115.033240
 20
188.830350
 30
0.0
 10
115.101220
 20
188.749503
 30
0.0
 10
115.135210
 20
188.646610
 30
0.0
 10
115.135210
 20
188.521670
 30
0.0
  0
LWPOLYLINE
  5
2e7
100
AcDbEntity
  8
Шар_1
 62
3
100
AcDbPolyline
 90
2
 70
0
 10
114.738340
 20
189.042300
 30
0.0
 10
114.738340
 20
189.034300
 30
0.0
  0
SPLINE
  5
2e8
100
AcDbEntity
  8
Шар_1
 62
3
100
AcDbSpline
 70
8
 71
3
 72
8
 73
4
 74
0
 40
0
 40
0
 40
0
 40
0
 40
1
 40
1
 40
1
 40
1
 10
114.808570
 20
189.523500
 30
0.0
 10
114.808570
 20
189.621800
 30
0.0
 10
114.770443
 20
189.699890
 30
0.0
 10
114.694190
 20
189.757770
 30
0.0
  0
SPLINE
  5
2e9
100
AcDbEntity
  8
Шар_1
 62
3
100
AcDbSpline
 70
8
 71
3
 72
8
 73
4
 74
0
 40
0
 40
0
 40
0
 40
0
 40
1
 40
1
 40
1
 40
1
 10
114.694190
 20
189.757770
 30
0.0
 10
114.618857
 20
189.816570
 30
0.0
 10
114.522393
 20
189.845970
 30
0.0
 10
114.404800
 20
189.845970
 30
0.0
  0
SPLINE
  5
2ea
100
AcDbEntity
  8
Шар_1
 62
3
100
AcDbSpline
 70
8
 71
3
 72
8
 73
4
 74
0
 40
0
 40
0
 40
0
 40
0
 40
1
 40
1
 40
1
 40
1
 10
114.404800
 20
189.845970
 30
0.0
 10
114.289047
 20
189.845970
 30
0.0
 10
114.193960
 20
189.818403
 30
0.0
 10
114.119540
 20
189.763270
 30
0.0
  0
SPLINE
  5
2eb
100
AcDbEntity
  8
Шар_1
 62
3
100
AcDbSpline
 70
8
 71
3
 72
8
 73
4
 74
0
 40
0
 40
0
 40
0
 40
0
 40
1
 40
1
 40
1
 40
1
 10
114.119540
 20
189.763270
 30
0.0
 10
114.046047
 20
189.708137
 30
0.0
 10
114.009300
 20
189.633723
 30
0.0
 10
114.009300
 20
189.540030
 30
0.0
  0
SPLINE
  5
2ec
100
AcDbEntity
  8
Шар_1
 62
3
100
AcDbSpline
 70
8
 71
3
 72
8
 73
4
 74
0
 40
0
 40
0
 40
0
 40
0
 40
1
 40
1
 40
1
 40
1
 10
114.009300
 20
189.540030
 30
0.0
 10
114.009300
 20
189.473897
 30
0.0
 10
114.027667
 20
189.416477
 30
0.0
 10
114.064400
 20
189.367770
 30
0.0
  0
SPLINE
  5
2ed
100
AcDbEntity
  8
Шар_1
 62
3
100
AcDbSpline
 70
8
 71
3
 72
8
 73
4
 74
0
 40
0
 40
0
 40
0
 40
0
 40
1
 40
1
 40
1
 40
1
 10
114.064400
 20
189.367770
 30
0.0
 10
114.102067
 20
189.319970
 30
0.0
 10
114.158567
 20
189.277250
 30
0.0
 10
114.233900
 20
189.239610
 30
0.0
  0
SPLINE
  5
2ee
100
AcDbEntity
  8
Шар_1
 62
3
100
AcDbSpline
 70
8
 71
3
 72
8
 73
4
 74
0
 40
0
 40
0
 40
0
 40
0
 40
1
 40
1
 40
1
 40
1
 10
114.233900
 20
189.239610
 30
0.0
 10
114.267900
 20
189.223077
 30
0.0
 10
114.316590
 20
189.201477
 30
0.0
 10
114.379970
 20
189.174810
 30
0.0
  0
SPLINE
  5
2ef
100
AcDbEntity
  8
Шар_1
 62
3
100
AcDbSpline
 70
8
 71
3
 72
8
 73
4
 74
0
 40
0
 40
0
 40
0
 40
0
 40
1
 40
1
 40
1
 40
1
 10
114.379970
 20
189.174810
 30
0.0
 10
114.444303
 20
189.148143
 30
0.0
 10
114.506777
 20
189.126077
 30
0.0
 10
114.567390
 20
189.108610
 30
0.0
  0
SPLINE
  5
2f0
100
AcDbEntity
  8
Шар_1
 62
3
100
AcDbSpline
 70
8
 71
3
 72
8
 73
4
 74
0
 40
0
 40
0
 40
0
 40
0
 40
1
 40
1
 40
1
 40
1
 10
114.567390
 20
189.108610
 30
0.0
 10
114.658337
 20
189.169277
 30
0.0
 10
114.721267
 20
189.232210
 30
0.0
 10
114.756180
 20
189.297410
 30
0.0
  0
SPLINE
  5
2f1
100
AcDbEntity
  8
Шар_1
 62
3
100
AcDbSpline
 70
8
 71
3
 72
8
 73
4
 74
0
 40
0
 40
0
 40
0
 40
0
 40
1
 40
1
 40
1
 40
1
 10
114.756180
 20
189.297410
 30
0.0
 10
114.791113
 20
189.362610
 30
0.0
 10
114.808580
 20
189.437943
 30
0.0
 10
114.808580
 20
189.523410
 30
0.0
  0
LWPOLYLINE
  5
2f2
100
AcDbEntity
  8
Шар_1
 62
3
100
AcDbPolyline
 90
1
 70
1
 10
115.135210
 20
188.521670
 30
0.0
  0
SPLINE
  5
2f3
100
AcDbEntity
  8
Шар_1
 62
3
100
AcDbSpline
 70
8
 71
3
 72
8
 73
4
 74
0
 40
0
 40
0
 40
0
 40
0
 40
1
 40
1
 40
1
 40
1
 10
114.851270
 20
188.495480
 30
0.0
 10
114.851270
 20
188.580000
 30
0.0
 10
114.832437
 20
188.647527
 30
0.0
 10
114.794770
 20
188.698060
 30
0.0
  0
SPLINE
  5
2f4
100
AcDbEntity
  8
Шар_1
 62
3
100
AcDbSpline
 70
8
 71
3
 72
8
 73
4
 74
0
 40
0
 40
0
 40
0
 40
0
 40
1
 40
1
 40
1
 40
1
 10
114.794770
 20
188.698060
 30
0.0
 10
114.758037
 20
188.749527
 30
0.0
 10
114.685457
 20
188.800973
 30
0.0
 10
114.577030
 20
188.852400
 30
0.0
  0
SPLINE
  5
2f5
100
AcDbEntity
  8
Шар_1
 62
3
100
AcDbSpline
 70
8
 71
3
 72
8
 73
4
 74
0
 40
0
 40
0
 40
0
 40
0
 40
1
 40
1
 40
1
 40
1
 10
114.577030
 20
188.852400
 30
0.0
 10
114.533830
 20
188.872600
 30
0.0
 10
114.486520
 20
188.891433
 30
0.0
 10
114.435100
 20
188.908900
 30
0.0
  0
SPLINE
  5
2f6
100
AcDbEntity
  8
Шар_1
 62
3
100
AcDbSpline
 70
8
 71
3
 72
8
 73
4
 74
0
 40
0
 40
0
 40
0
 40
0
 40
1
 40
1
 40
1
 40
1
 10
114.435100
 20
188.908900
 30
0.0
 10
114.383633
 20
188.926367
 30
0.0
 10
114.315190
 20
188.950700
 30
0.0
 10
114.229770
 20
188.981900
 30
0.0
  0
SPLINE
  5
2f7
100
AcDbEntity
  8
Шар_1
 62
3
100
AcDbSpline
 70
8
 71
3
 72
8
 73
4
 74
0
 40
0
 40
0
 40
0
 40
0
 40
1
 40
1
 40
1
 40
1
 10
114.229770
 20
188.981900
 30
0.0
 10
114.147083
 20
188.936900
 30
0.0
 10
114.080477
 20
188.875807
 30
0.0
 10
114.029950
 20
188.798620
 30
0.0
  0
SPLINE
  5
2f8
100
AcDbEntity
  8
Шар_1
 62
3
100
AcDbSpline
 70
8
 71
3
 72
8
 73
4
 74
0
 40
0
 40
0
 40
0
 40
0
 40
1
 40
1
 40
1
 40
1
 10
114.029950
 20
188.798620
 30
0.0
 10
113.980350
 20
188.721447
 30
0.0
 10
113.955550
 20
188.634170
 30
0.0
 10
113.955550
 20
188.536790
 30
0.0
  0
SPLINE
  5
2f9
100
AcDbEntity
  8
Шар_1
 62
3
100
AcDbSpline
 70
8
 71
3
 72
8
 73
4
 74
0
 40
0
 40
0
 40
0
 40
0
 40
1
 40
1
 40
1
 40
1
 10
113.955550
 20
188.536790
 30
0.0
 10
113.955550
 20
188.412763
 30
0.0
 10
113.998270
 20
188.310330
 30
0.0
 10
114.083710
 20
188.229490
 30
0.0
  0
SPLINE
  5
2fa
100
AcDbEntity
  8
Шар_1
 62
3
100
AcDbSpline
 70
8
 71
3
 72
8
 73
4
 74
0
 40
0
 40
0
 40
0
 40
0
 40
1
 40
1
 40
1
 40
1
 10
114.083710
 20
188.229490
 30
0.0
 10
114.169143
 20
188.148643
 30
0.0
 10
114.277547
 20
188.108220
 30
0.0
 10
114.408920
 20
188.108220
 30
0.0
  0
SPLINE
  5
2fb
100
AcDbEntity
  8
Шар_1
 62
3
100
AcDbSpline
 70
8
 71
3
 72
8
 73
4
 74
0
 40
0
 40
0
 40
0
 40
0
 40
1
 40
1
 40
1
 40
1
 10
114.408920
 20
188.108220
 30
0.0
 10
114.543053
 20
188.108220
 30
0.0
 10
114.650083
 20
188.142670
 30
0.0
 10
114.730010
 20
188.211570
 30
0.0
  0
SPLINE
  5
2fc
100
AcDbEntity
  8
Шар_1
 62
3
100
AcDbSpline
 70
8
 71
3
 72
8
 73
4
 74
0
 40
0
 40
0
 40
0
 40
0
 40
1
 40
1
 40
1
 40
1
 10
114.730010
 20
188.211570
 30
0.0
 10
114.810850
 20
188.280470
 30
0.0
 10
114.851270
 20
188.375097
 30
0.0
 10
114.851270
 20
188.495450
 30
0.0
  0
LWPOLYLINE
  5
2fd
100
AcDbEntity
  8
Шар_1
 62
3
100
AcDbPolyline
 90
1
 70
1
 10
114.808580
 20
189.523410
 30
0.0
  0
LWPOLYLINE
  5
2fe
100
AcDbEntity
  8
Шар_1
 62
3
100
AcDbPolyline
 90
1
 70
1
 10
114.851270
 20
188.495450
 30
0.0
  0
LWPOLYLINE
  5
2ff
100
AcDbEntity
  8
Шар_1
 62
3
100
AcDbPolyline
 90
4
 70
1
 10
113.160430
 20
187.949780
 30
0.0
 10
112.831080
 20
187.949780
 30
0.0
 10
112.831080
 20
188.342520
 30
0.0
 10
113.160430
 20
188.342520
 30
0.0
  0
SPLINE
  5
300
100
AcDbEntity
  8
Шар_1
 62
3
100
AcDbSpline
 70
8
 71
3
 72
8
 73
4
 74
0
 40
0
 40
0
 40
0
 40
0
 40
1
 40
1
 40
1
 40
1
 10
110.910080
 20
188.237790
 30
0.0
 10
111.006547
 20
188.320470
 30
0.0
 10
111.103010
 20
188.403153
 30
0.0
 10
111.199470
 20
188.485840
 30
0.0
  0
SPLINE
  5
301
100
AcDbEntity
  8
Шар_1
 62
3
100
AcDbSpline
 70
8
 71
3
 72
8
 73
4
 74
0
 40
0
 40
0
 40
0
 40
0
 40
1
 40
1
 40
1
 40
1
 10
111.199470
 20
188.485840
 30
0.0
 10
111.296857
 20
188.568520
 30
0.0
 10
111.387350
 20
188.650743
 30
0.0
 10
111.470950
 20
188.732510
 30
0.0
  0
SPLINE
  5
302
100
AcDbEntity
  8
Шар_1
 62
3
100
AcDbSpline
 70
8
 71
3
 72
8
 73
4
 74
0
 40
0
 40
0
 40
0
 40
0
 40
1
 40
1
 40
1
 40
1
 10
111.470950
 20
188.732510
 30
0.0
 10
111.647337
 20
188.903383
 30
0.0
 10
111.768143
 20
189.038890
 30
0.0
 10
111.833370
 20
189.139030
 30
0.0
  0
SPLINE
  5
303
100
AcDbEntity
  8
Шар_1
 62
3
100
AcDbSpline
 70
8
 71
3
 72
8
 73
4
 74
0
 40
0
 40
0
 40
0
 40
0
 40
1
 40
1
 40
1
 40
1
 10
111.833370
 20
189.139030
 30
0.0
 10
111.898570
 20
189.240083
 30
0.0
 10
111.931170
 20
189.348947
 30
0.0
 10
111.931170
 20
189.465620
 30
0.0
  0
SPLINE
  5
304
100
AcDbEntity
  8
Шар_1
 62
3
100
AcDbSpline
 70
8
 71
3
 72
8
 73
4
 74
0
 40
0
 40
0
 40
0
 40
0
 40
1
 40
1
 40
1
 40
1
 10
111.931170
 20
189.465620
 30
0.0
 10
111.931170
 20
189.572193
 30
0.0
 10
111.895800
 20
189.655337
 30
0.0
 10
111.825060
 20
189.715050
 30
0.0
  0
SPLINE
  5
305
100
AcDbEntity
  8
Шар_1
 62
3
100
AcDbSpline
 70
8
 71
3
 72
8
 73
4
 74
0
 40
0
 40
0
 40
0
 40
0
 40
1
 40
1
 40
1
 40
1
 10
111.825060
 20
189.715050
 30
0.0
 10
111.755240
 20
189.775650
 30
0.0
 10
111.657400
 20
189.805950
 30
0.0
 10
111.531540
 20
189.805950
 30
0.0
  0
SPLINE
  5
306
100
AcDbEntity
  8
Шар_1
 62
3
100
AcDbSpline
 70
8
 71
3
 72
8
 73
4
 74
0
 40
0
 40
0
 40
0
 40
0
 40
1
 40
1
 40
1
 40
1
 10
111.531540
 20
189.805950
 30
0.0
 10
111.447940
 20
189.805950
 30
0.0
 10
111.357450
 20
189.791250
 30
0.0
 10
111.260070
 20
189.761850
 30
0.0
  0
SPLINE
  5
307
100
AcDbEntity
  8
Шар_1
 62
3
100
AcDbSpline
 70
8
 71
3
 72
8
 73
4
 74
0
 40
0
 40
0
 40
0
 40
0
 40
1
 40
1
 40
1
 40
1
 10
111.260070
 20
189.761850
 30
0.0
 10
111.162683
 20
189.732450
 30
0.0
 10
111.067597
 20
189.687433
 30
0.0
 10
110.974810
 20
189.626800
 30
0.0
  0
LWPOLYLINE
  5
308
100
AcDbEntity
  8
Шар_1
 62
3
100
AcDbPolyline
 90
3
 70
0
 10
112.299150
 20
187.949780
 30
0.0
 10
110.910080
 20
187.949780
 30
0.0
 10
110.910080
 20
188.237790
 30
0.0
  0
SPLINE
  5
309
100
AcDbEntity
  8
Шар_1
 62
3
100
AcDbSpline
 70
8
 71
3
 72
8
 73
4
 74
0
 40
0
 40
0
 40
0
 40
0
 40
1
 40
1
 40
1
 40
1
 10
110.961010
 20
189.916190
 30
0.0
 10
111.026210
 20
189.948323
 30
0.0
 10
111.113027
 20
189.977723
 30
0.0
 10
111.221460
 20
190.004390
 30
0.0
  0
SPLINE
  5
30a
100
AcDbEntity
  8
Шар_1
 62
3
100
AcDbSpline
 70
8
 71
3
 72
8
 73
4
 74
0
 40
0
 40
0
 40
0
 40
0
 40
1
 40
1
 40
1
 40
1
 10
111.221460
 20
190.004390
 30
0.0
 10
111.330787
 20
190.031057
 30
0.0
 10
111.436437
 20
190.044390
 30
0.0
 10
111.538410
 20
190.044390
 30
0.0
  0
SPLINE
  5
30b
100
AcDbEntity
  8
Шар_1
 62
3
100
AcDbSpline
 70
8
 71
3
 72
8
 73
4
 74
0
 40
0
 40
0
 40
0
 40
0
 40
1
 40
1
 40
1
 40
1
 10
111.538410
 20
190.044390
 30
0.0
 10
111.748790
 20
190.044390
 30
0.0
 10
111.913697
 20
189.993403
 30
0.0
 10
112.033130
 20
189.891430
 30
0.0
  0
SPLINE
  5
30c
100
AcDbEntity
  8
Шар_1
 62
3
100
AcDbSpline
 70
8
 71
3
 72
8
 73
4
 74
0
 40
0
 40
0
 40
0
 40
0
 40
1
 40
1
 40
1
 40
1
 10
112.033130
 20
189.891430
 30
0.0
 10
112.152557
 20
189.790370
 30
0.0
 10
112.212270
 20
189.653023
 30
0.0
 10
112.212270
 20
189.479390
 30
0.0
  0
SPLINE
  5
30d
100
AcDbEntity
  8
Шар_1
 62
3
100
AcDbSpline
 70
8
 71
3
 72
8
 73
4
 74
0
 40
0
 40
0
 40
0
 40
0
 40
1
 40
1
 40
1
 40
1
 10
112.212270
 20
189.479390
 30
0.0
 10
112.212270
 20
189.401303
 30
0.0
 10
112.202170
 20
189.328270
 30
0.0
 10
112.181970
 20
189.260290
 30
0.0
  0
SPLINE
  5
30e
100
AcDbEntity
  8
Шар_1
 62
3
100
AcDbSpline
 70
8
 71
3
 72
8
 73
4
 74
0
 40
0
 40
0
 40
0
 40
0
 40
1
 40
1
 40
1
 40
1
 10
112.181970
 20
189.260290
 30
0.0
 10
112.162703
 20
189.193223
 30
0.0
 10
112.133770
 20
189.129373
 30
0.0
 10
112.095170
 20
189.068740
 30
0.0
  0
SPLINE
  5
30f
100
AcDbEntity
  8
Шар_1
 62
3
100
AcDbSpline
 70
8
 71
3
 72
8
 73
4
 74
0
 40
0
 40
0
 40
0
 40
0
 40
1
 40
1
 40
1
 40
1
 10
112.095170
 20
189.068740
 30
0.0
 10
112.059370
 20
189.011807
 30
0.0
 10
112.017110
 20
188.955767
 30
0.0
 10
111.968390
 20
188.900620
 30
0.0
  0
SPLINE
  5
310
100
AcDbEntity
  8
Шар_1
 62
3
100
AcDbSpline
 70
8
 71
3
 72
8
 73
4
 74
0
 40
0
 40
0
 40
0
 40
0
 40
1
 40
1
 40
1
 40
1
 10
111.968390
 20
188.900620
 30
0.0
 10
111.920590
 20
188.845487
 30
0.0
 10
111.862253
 20
188.784393
 30
0.0
 10
111.793380
 20
188.717340
 30
0.0
  0
SPLINE
  5
311
100
AcDbEntity
  8
Шар_1
 62
3
100
AcDbSpline
 70
8
 71
3
 72
8
 73
4
 74
0
 40
0
 40
0
 40
0
 40
0
 40
1
 40
1
 40
1
 40
1
 10
111.793380
 20
188.717340
 30
0.0
 10
111.695080
 20
188.620873
 30
0.0
 10
111.593563
 20
188.527167
 30
0.0
 10
111.488830
 20
188.436220
 30
0.0
  0
SPLINE
  5
312
100
AcDbEntity
  8
Шар_1
 62
3
100
AcDbSpline
 70
8
 71
3
 72
8
 73
4
 74
0
 40
0
 40
0
 40
0
 40
0
 40
1
 40
1
 40
1
 40
1
 10
111.488830
 20
188.436220
 30
0.0
 10
111.384103
 20
188.346187
 30
0.0
 10
111.286263
 20
188.262583
 30
0.0
 10
111.195310
 20
188.185410
 30
0.0
  0
LWPOLYLINE
  5
313
100
AcDbEntity
  8
Шар_1
 62
3
100
AcDbPolyline
 90
3
 70
0
 10
110.974810
 20
189.626800
 30
0.0
 10
110.961010
 20
189.626800
 30
0.0
 10
110.961010
 20
189.916190
 30
0.0
  0
SPLINE
  5
314
100
AcDbEntity
  8
Шар_1
 62
3
100
AcDbSpline
 70
8
 71
3
 72
8
 73
4
 74
0
 40
0
 40
0
 40
0
 40
0
 40
1
 40
1
 40
1
 40
1
 10
116.733410
 20
181.215390
 30
0.0
 10
116.733410
 20
181.038083
 30
0.0
 10
116.664050
 20
180.890633
 30
0.0
 10
116.525330
 20
180.773040
 30
0.0
  0
SPLINE
  5
315
100
AcDbEntity
  8
Шар_1
 62
3
100
AcDbSpline
 70
8
 71
3
 72
8
 73
4
 74
0
 40
0
 40
0
 40
0
 40
0
 40
1
 40
1
 40
1
 40
1
 10
116.525330
 20
180.773040
 30
0.0
 10
116.387523
 20
180.655447
 30
0.0
 10
116.213890
 20
180.596650
 30
0.0
 10
116.004430
 20
180.596650
 30
0.0
  0
SPLINE
  5
316
100
AcDbEntity
  8
Шар_1
 62
3
100
AcDbSpline
 70
8
 71
3
 72
8
 73
4
 74
0
 40
0
 40
0
 40
0
 40
0
 40
1
 40
1
 40
1
 40
1
 10
116.004430
 20
180.596650
 30
0.0
 10
115.782103
 20
180.596650
 30
0.0
 10
115.604793
 20
180.654070
 30
0.0
 10
115.472500
 20
180.768910
 30
0.0
  0
SPLINE
  5
317
100
AcDbEntity
  8
Шар_1
 62
3
100
AcDbSpline
 70
8
 71
3
 72
8
 73
4
 74
0
 40
0
 40
0
 40
0
 40
0
 40
1
 40
1
 40
1
 40
1
 10
115.472500
 20
180.768910
 30
0.0
 10
115.341127
 20
180.883743
 30
0.0
 10
115.275440
 20
181.030733
 30
0.0
 10
115.275440
 20
181.209880
 30
0.0
  0
SPLINE
  5
318
100
AcDbEntity
  8
Шар_1
 62
3
100
AcDbSpline
 70
8
 71
3
 72
8
 73
4
 74
0
 40
0
 40
0
 40
0
 40
0
 40
1
 40
1
 40
1
 40
1
 10
115.275440
 20
181.209880
 30
0.0
 10
115.275440
 20
181.323800
 30
0.0
 10
115.308507
 20
181.426693
 30
0.0
 10
115.374640
 20
181.518560
 30
0.0
  0
SPLINE
  5
319
100
AcDbEntity
  8
Шар_1
 62
3
100
AcDbSpline
 70
8
 71
3
 72
8
 73
4
 74
0
 40
0
 40
0
 40
0
 40
0
 40
1
 40
1
 40
1
 40
1
 10
115.374640
 20
181.518560
 30
0.0
 10
115.440773
 20
181.611347
 30
0.0
 10
115.534023
 20
181.684843
 30
0.0
 10
115.654390
 20
181.739050
 30
0.0
  0
LWPOLYLINE
  5
31a
100
AcDbEntity
  8
Шар_1
 62
3
100
AcDbPolyline
 90
3
 70
0
 10
111.195310
 20
188.185410
 30
0.0
 10
112.299120
 20
188.185410
 30
0.0
 10
112.299150
 20
187.949780
 30
0.0
  0
SPLINE
  5
31b
100
AcDbEntity
  8
Шар_1
 62
3
100
AcDbSpline
 70
8
 71
3
 72
8
 73
4
 74
0
 40
0
 40
0
 40
0
 40
0
 40
1
 40
1
 40
1
 40
1
 10
115.654390
 20
181.747050
 30
0.0
 10
115.544143
 20
181.805850
 30
0.0
 10
115.462377
 20
181.870157
 30
0.0
 10
115.409090
 20
181.939970
 30
0.0
  0
SPLINE
  5
31c
100
AcDbEntity
  8
Шар_1
 62
3
100
AcDbSpline
 70
8
 71
3
 72
8
 73
4
 74
0
 40
0
 40
0
 40
0
 40
0
 40
1
 40
1
 40
1
 40
1
 10
115.409090
 20
181.939970
 30
0.0
 10
115.356757
 20
182.009797
 30
0.0
 10
115.330590
 20
182.097073
 30
0.0
 10
115.330590
 20
182.201800
 30
0.0
  0
SPLINE
  5
31d
100
AcDbEntity
  8
Шар_1
 62
3
100
AcDbSpline
 70
8
 71
3
 72
8
 73
4
 74
0
 40
0
 40
0
 40
0
 40
0
 40
1
 40
1
 40
1
 40
1
 10
115.330590
 20
182.201800
 30
0.0
 10
115.330590
 20
182.356140
 30
0.0
 10
115.393980
 20
182.484757
 30
0.0
 10
115.520760
 20
182.587650
 30
0.0
  0
SPLINE
  5
31e
100
AcDbEntity
  8
Шар_1
 62
3
100
AcDbSpline
 70
8
 71
3
 72
8
 73
4
 74
0
 40
0
 40
0
 40
0
 40
0
 40
1
 40
1
 40
1
 40
1
 10
115.520760
 20
182.587650
 30
0.0
 10
115.647540
 20
182.690543
 30
0.0
 10
115.808770
 20
182.741990
 30
0.0
 10
116.004450
 20
182.741990
 30
0.0
  0
SPLINE
  5
31f
100
AcDbEntity
  8
Шар_1
 62
3
100
AcDbSpline
 70
8
 71
3
 72
8
 73
4
 74
0
 40
0
 40
0
 40
0
 40
0
 40
1
 40
1
 40
1
 40
1
 10
116.004450
 20
182.741990
 30
0.0
 10
116.209317
 20
182.741990
 30
0.0
 10
116.372843
 20
182.692840
 30
0.0
 10
116.495030
 20
182.594540
 30
0.0
  0
SPLINE
  5
320
100
AcDbEntity
  8
Шар_1
 62
3
100
AcDbSpline
 70
8
 71
3
 72
8
 73
4
 74
0
 40
0
 40
0
 40
0
 40
0
 40
1
 40
1
 40
1
 40
1
 10
116.495030
 20
182.594540
 30
0.0
 10
116.617217
 20
182.496240
 30
0.0
 10
116.678310
 20
182.371300
 30
0.0
 10
116.678310
 20
182.219720
 30
0.0
  0
SPLINE
  5
321
100
AcDbEntity
  8
Шар_1
 62
3
100
AcDbSpline
 70
8
 71
3
 72
8
 73
4
 74
0
 40
0
 40
0
 40
0
 40
0
 40
1
 40
1
 40
1
 40
1
 10
116.678310
 20
182.219720
 30
0.0
 10
116.678310
 20
182.126927
 30
0.0
 10
116.649377
 20
182.035517
 30
0.0
 10
116.591510
 20
181.945490
 30
0.0
  0
SPLINE
  5
322
100
AcDbEntity
  8
Шар_1
 62
3
100
AcDbSpline
 70
8
 71
3
 72
8
 73
4
 74
0
 40
0
 40
0
 40
0
 40
0
 40
1
 40
1
 40
1
 40
1
 10
116.591510
 20
181.945490
 30
0.0
 10
116.533643
 20
181.856377
 30
0.0
 10
116.448667
 20
181.786553
 30
0.0
 10
116.336580
 20
181.736020
 30
0.0
  0
LWPOLYLINE
  5
323
100
AcDbEntity
  8
Шар_1
 62
3
100
AcDbPolyline
 90
2
 70
0
 10
115.654390
 20
181.739050
 30
0.0
 10
115.654390
 20
181.747050
 30
0.0
  0
SPLINE
  5
324
100
AcDbEntity
  8
Шар_1
 62
3
100
AcDbSpline
 70
8
 71
3
 72
8
 73
4
 74
0
 40
0
 40
0
 40
0
 40
0
 40
1
 40
1
 40
1
 40
1
 10
116.336580
 20
181.728020
 30
0.0
 10
116.465193
 20
181.672887
 30
0.0
 10
116.563493
 20
181.604903
 30
0.0
 10
116.631480
 20
181.524070
 30
0.0
  0
SPLINE
  5
325
100
AcDbEntity
  8
Шар_1
 62
3
100
AcDbSpline
 70
8
 71
3
 72
8
 73
4
 74
0
 40
0
 40
0
 40
0
 40
0
 40
1
 40
1
 40
1
 40
1
 10
116.631480
 20
181.524070
 30
0.0
 10
116.699460
 20
181.443230
 30
0.0
 10
116.733450
 20
181.340337
 30
0.0
 10
116.733450
 20
181.215390
 30
0.0
  0
LWPOLYLINE
  5
326
100
AcDbEntity
  8
Шар_1
 62
3
100
AcDbPolyline
 90
2
 70
0
 10
116.336580
 20
181.736020
 30
0.0
 10
116.336580
 20
181.728020
 30
0.0
  0
SPLINE
  5
327
100
AcDbEntity
  8
Шар_1
 62
3
100
AcDbSpline
 70
8
 71
3
 72
8
 73
4
 74
0
 40
0
 40
0
 40
0
 40
0
 40
1
 40
1
 40
1
 40
1
 10
116.406820
 20
182.217230
 30
0.0
 10
116.406820
 20
182.315530
 30
0.0
 10
116.368693
 20
182.393620
 30
0.0
 10
116.292440
 20
182.451500
 30
0.0
  0
SPLINE
  5
328
100
AcDbEntity
  8
Шар_1
 62
3
100
AcDbSpline
 70
8
 71
3
 72
8
 73
4
 74
0
 40
0
 40
0
 40
0
 40
0
 40
1
 40
1
 40
1
 40
1
 10
116.292440
 20
182.451500
 30
0.0
 10
116.217107
 20
182.510300
 30
0.0
 10
116.120643
 20
182.539700
 30
0.0
 10
116.003050
 20
182.539700
 30
0.0
  0
SPLINE
  5
329
100
AcDbEntity
  8
Шар_1
 62
3
100
AcDbSpline
 70
8
 71
3
 72
8
 73
4
 74
0
 40
0
 40
0
 40
0
 40
0
 40
1
 40
1
 40
1
 40
1
 10
116.003050
 20
182.539700
 30
0.0
 10
115.887297
 20
182.539700
 30
0.0
 10
115.792213
 20
182.512133
 30
0.0
 10
115.717800
 20
182.457000
 30
0.0
  0
SPLINE
  5
32a
100
AcDbEntity
  8
Шар_1
 62
3
100
AcDbSpline
 70
8
 71
3
 72
8
 73
4
 74
0
 40
0
 40
0
 40
0
 40
0
 40
1
 40
1
 40
1
 40
1
 10
115.717800
 20
182.457000
 30
0.0
 10
115.644300
 20
182.401867
 30
0.0
 10
115.607550
 20
182.327450
 30
0.0
 10
115.607550
 20
182.233750
 30
0.0
  0
SPLINE
  5
32b
100
AcDbEntity
  8
Шар_1
 62
3
100
AcDbSpline
 70
8
 71
3
 72
8
 73
4
 74
0
 40
0
 40
0
 40
0
 40
0
 40
1
 40
1
 40
1
 40
1
 10
115.607550
 20
182.233750
 30
0.0
 10
115.607550
 20
182.167617
 30
0.0
 10
115.625917
 20
182.110200
 30
0.0
 10
115.662650
 20
182.061500
 30
0.0
  0
SPLINE
  5
32c
100
AcDbEntity
  8
Шар_1
 62
3
100
AcDbSpline
 70
8
 71
3
 72
8
 73
4
 74
0
 40
0
 40
0
 40
0
 40
0
 40
1
 40
1
 40
1
 40
1
 10
115.662650
 20
182.061500
 30
0.0
 10
115.700317
 20
182.013700
 30
0.0
 10
115.756817
 20
181.970980
 30
0.0
 10
115.832150
 20
181.933340
 30
0.0
  0
SPLINE
  5
32d
100
AcDbEntity
  8
Шар_1
 62
3
100
AcDbSpline
 70
8
 71
3
 72
8
 73
4
 74
0
 40
0
 40
0
 40
0
 40
0
 40
1
 40
1
 40
1
 40
1
 10
115.832150
 20
181.933340
 30
0.0
 10
115.866150
 20
181.916807
 30
0.0
 10
115.914843
 20
181.895207
 30
0.0
 10
115.978230
 20
181.868540
 30
0.0
  0
SPLINE
  5
32e
100
AcDbEntity
  8
Шар_1
 62
3
100
AcDbSpline
 70
8
 71
3
 72
8
 73
4
 74
0
 40
0
 40
0
 40
0
 40
0
 40
1
 40
1
 40
1
 40
1
 10
115.978230
 20
181.868540
 30
0.0
 10
116.042563
 20
181.841873
 30
0.0
 10
116.105033
 20
181.819840
 30
0.0
 10
116.165640
 20
181.802440
 30
0.0
  0
SPLINE
  5
32f
100
AcDbEntity
  8
Шар_1
 62
3
100
AcDbSpline
 70
8
 71
3
 72
8
 73
4
 74
0
 40
0
 40
0
 40
0
 40
0
 40
1
 40
1
 40
1
 40
1
 10
116.165640
 20
181.802440
 30
0.0
 10
116.256593
 20
181.863040
 30
0.0
 10
116.319523
 20
181.925970
 30
0.0
 10
116.354430
 20
181.991230
 30
0.0
  0
SPLINE
  5
330
100
AcDbEntity
  8
Шар_1
 62
3
100
AcDbSpline
 70
8
 71
3
 72
8
 73
4
 74
0
 40
0
 40
0
 40
0
 40
0
 40
1
 40
1
 40
1
 40
1
 10
116.354430
 20
181.991230
 30
0.0
 10
116.389363
 20
182.056430
 30
0.0
 10
116.406830
 20
182.131763
 30
0.0
 10
116.406830
 20
182.217230
 30
0.0
  0
LWPOLYLINE
  5
331
100
AcDbEntity
  8
Шар_1
 62
3
100
AcDbPolyline
 90
1
 70
1
 10
116.733450
 20
181.215390
 30
0.0
  0
SPLINE
  5
332
100
AcDbEntity
  8
Шар_1
 62
3
100
AcDbSpline
 70
8
 71
3
 72
8
 73
4
 74
0
 40
0
 40
0
 40
0
 40
0
 40
1
 40
1
 40
1
 40
1
 10
116.449520
 20
181.189210
 30
0.0
 10
116.449520
 20
181.273730
 30
0.0
 10
116.430687
 20
181.341253
 30
0.0
 10
116.393020
 20
181.391780
 30
0.0
  0
SPLINE
  5
333
100
AcDbEntity
  8
Шар_1
 62
3
100
AcDbSpline
 70
8
 71
3
 72
8
 73
4
 74
0
 40
0
 40
0
 40
0
 40
0
 40
1
 40
1
 40
1
 40
1
 10
116.393020
 20
181.391780
 30
0.0
 10
116.356287
 20
181.443247
 30
0.0
 10
116.283710
 20
181.494693
 30
0.0
 10
116.175290
 20
181.546120
 30
0.0
  0
SPLINE
  5
334
100
AcDbEntity
  8
Шар_1
 62
3
100
AcDbSpline
 70
8
 71
3
 72
8
 73
4
 74
0
 40
0
 40
0
 40
0
 40
0
 40
1
 40
1
 40
1
 40
1
 10
116.175290
 20
181.546120
 30
0.0
 10
116.132090
 20
181.566320
 30
0.0
 10
116.084777
 20
181.585153
 30
0.0
 10
116.033350
 20
181.602620
 30
0.0
  0
SPLINE
  5
335
100
AcDbEntity
  8
Шар_1
 62
3
100
AcDbSpline
 70
8
 71
3
 72
8
 73
4
 74
0
 40
0
 40
0
 40
0
 40
0
 40
1
 40
1
 40
1
 40
1
 10
116.033350
 20
181.602620
 30
0.0
 10
115.981883
 20
181.620087
 30
0.0
 10
115.913440
 20
181.644420
 30
0.0
 10
115.828020
 20
181.675620
 30
0.0
  0
SPLINE
  5
336
100
AcDbEntity
  8
Шар_1
 62
3
100
AcDbSpline
 70
8
 71
3
 72
8
 73
4
 74
0
 40
0
 40
0
 40
0
 40
0
 40
1
 40
1
 40
1
 40
1
 10
115.828020
 20
181.675620
 30
0.0
 10
115.745340
 20
181.630620
 30
0.0
 10
115.678733
 20
181.569527
 30
0.0
 10
115.628200
 20
181.492340
 30
0.0
  0
SPLINE
  5
337
100
AcDbEntity
  8
Шар_1
 62
3
100
AcDbSpline
 70
8
 71
3
 72
8
 73
4
 74
0
 40
0
 40
0
 40
0
 40
0
 40
1
 40
1
 40
1
 40
1
 10
115.628200
 20
181.492340
 30
0.0
 10
115.578600
 20
181.415173
 30
0.0
 10
115.553800
 20
181.327897
 30
0.0
 10
115.553800
 20
181.230510
 30
0.0
  0
SPLINE
  5
338
100
AcDbEntity
  8
Шар_1
 62
3
100
AcDbSpline
 70
8
 71
3
 72
8
 73
4
 74
0
 40
0
 40
0
 40
0
 40
0
 40
1
 40
1
 40
1
 40
1
 10
115.553800
 20
181.230510
 30
0.0
 10
115.553800
 20
181.106490
 30
0.0
 10
115.596520
 20
181.004057
 30
0.0
 10
115.681960
 20
180.923210
 30
0.0
  0
SPLINE
  5
339
100
AcDbEntity
  8
Шар_1
 62
3
100
AcDbSpline
 70
8
 71
3
 72
8
 73
4
 74
0
 40
0
 40
0
 40
0
 40
0
 40
1
 40
1
 40
1
 40
1
 10
115.681960
 20
180.923210
 30
0.0
 10
115.767393
 20
180.842363
 30
0.0
 10
115.875797
 20
180.801940
 30
0.0
 10
116.007170
 20
180.801940
 30
0.0
  0
SPLINE
  5
33a
100
AcDbEntity
  8
Шар_1
 62
3
100
AcDbSpline
 70
8
 71
3
 72
8
 73
4
 74
0
 40
0
 40
0
 40
0
 40
0
 40
1
 40
1
 40
1
 40
1
 10
116.007170
 20
180.801940
 30
0.0
 10
116.141303
 20
180.801940
 30
0.0
 10
116.248333
 20
180.836393
 30
0.0
 10
116.328260
 20
180.905300
 30
0.0
  0
SPLINE
  5
33b
100
AcDbEntity
  8
Шар_1
 62
3
100
AcDbSpline
 70
8
 71
3
 72
8
 73
4
 74
0
 40
0
 40
0
 40
0
 40
0
 40
1
 40
1
 40
1
 40
1
 10
116.328260
 20
180.905300
 30
0.0
 10
116.409107
 20
180.974200
 30
0.0
 10
116.449530
 20
181.068823
 30
0.0
 10
116.449530
 20
181.189170
 30
0.0
  0
LWPOLYLINE
  5
33c
100
AcDbEntity
  8
Шар_1
 62
3
100
AcDbPolyline
 90
1
 70
1
 10
116.406830
 20
182.217230
 30
0.0
  0
LWPOLYLINE
  5
33d
100
AcDbEntity
  8
Шар_1
 62
3
100
AcDbPolyline
 90
1
 70
1
 10
116.449530
 20
181.189170
 30
0.0
  0
LWPOLYLINE
  5
33e
100
AcDbEntity
  8
Шар_1
 62
3
100
AcDbPolyline
 90
4
 70
1
 10
114.758680
 20
180.643500
 30
0.0
 10
114.429330
 20
180.643500
 30
0.0
 10
114.429330
 20
181.036250
 30
0.0
 10
114.758680
 20
181.036250
 30
0.0
  0
SPLINE
  5
33f
100
AcDbEntity
  8
Шар_1
 62
3
100
AcDbSpline
 70
8
 71
3
 72
8
 73
4
 74
0
 40
0
 40
0
 40
0
 40
0
 40
1
 40
1
 40
1
 40
1
 10
112.669570
 20
182.415670
 30
0.0
 10
112.727437
 20
182.415670
 30
0.0
 10
112.789447
 20
182.420270
 30
0.0
 10
112.855600
 20
182.429470
 30
0.0
  0
SPLINE
  5
340
100
AcDbEntity
  8
Шар_1
 62
3
100
AcDbSpline
 70
8
 71
3
 72
8
 73
4
 74
0
 40
0
 40
0
 40
0
 40
0
 40
1
 40
1
 40
1
 40
1
 10
112.855600
 20
182.429470
 30
0.0
 10
112.921733
 20
182.439603
 30
0.0
 10
112.971803
 20
182.453837
 30
0.0
 10
113.005810
 20
182.472170
 30
0.0
  0
SPLINE
  5
341
100
AcDbEntity
  8
Шар_1
 62
3
100
AcDbSpline
 70
8
 71
3
 72
8
 73
4
 74
0
 40
0
 40
0
 40
0
 40
0
 40
1
 40
1
 40
1
 40
1
 10
113.005810
 20
182.472170
 30
0.0
 10
113.048077
 20
182.495103
 30
0.0
 10
113.081143
 20
182.524037
 30
0.0
 10
113.105010
 20
182.558970
 30
0.0
  0
SPLINE
  5
342
100
AcDbEntity
  8
Шар_1
 62
3
100
AcDbSpline
 70
8
 71
3
 72
8
 73
4
 74
0
 40
0
 40
0
 40
0
 40
0
 40
1
 40
1
 40
1
 40
1
 10
113.105010
 20
182.558970
 30
0.0
 10
113.129810
 20
182.594770
 30
0.0
 10
113.144043
 20
182.642540
 30
0.0
 10
113.147710
 20
182.702280
 30
0.0
  0
LWPOLYLINE
  5
343
100
AcDbEntity
  8
Шар_1
 62
3
100
AcDbPolyline
 90
7
 70
0
 10
113.780270
 20
180.643500
 30
0.0
 10
112.669570
 20
180.643500
 30
0.0
 10
112.669570
 20
180.852970
 30
0.0
 10
113.096760
 20
180.852970
 30
0.0
 10
113.096760
 20
182.228250
 30
0.0
 10
112.669570
 20
182.228250
 30
0.0
 10
112.669570
 20
182.415670
 30
0.0
  0
LWPOLYLINE
  5
344
100
AcDbEntity
  8
Шар_1
 62
3
100
AcDbPolyline
 90
5
 70
0
 10
113.147710
 20
182.702280
 30
0.0
 10
113.361300
 20
182.702280
 30
0.0
 10
113.361300
 20
180.852950
 30
0.0
 10
113.780230
 20
180.852950
 30
0.0
 10
113.780270
 20
180.643500
 30
0.0
  0
LWPOLYLINE
  5
345
100
AcDbEntity
  8
Шар_1
 62
7
100
AcDbPolyline
 90
4
 70
0
 10
65.814794
 20
193.945550
 30
0.0
 10
100.814780
 20
193.945550
 30
0.0
 10
100.814780
 20
243.946508
 30
0.0
 10
65.814794
 20
243.946508
 30
0.0
  0
LWPOLYLINE
  5
346
100
AcDbEntity
  8
Шар_1
 62
1
100
AcDbPolyline
 90
2
 70
0
 10
85.814784
 20
234.445321
 30
0.0
 10
86.551804
 20
235.196738
 30
0.0
  0
LWPOLYLINE
  5
347
100
AcDbEntity
  8
Шар_1
 62
1
100
AcDbPolyline
 90
2
 70
0
 10
85.814784
 20
234.445321
 30
0.0
 10
85.024454
 20
235.196738
 30
0.0
  0
LWPOLYLINE
  5
348
100
AcDbEntity
  8
Шар_1
 62
1
100
AcDbPolyline
 90
2
 70
0
 10
81.605114
 20
235.196738
 30
0.0
 10
85.024454
 20
235.196738
 30
0.0
  0
LWPOLYLINE
  5
349
100
AcDbEntity
  8
Шар_1
 62
1
100
AcDbPolyline
 90
2
 70
0
 10
80.814784
 20
234.445321
 30
0.0
 10
81.605114
 20
235.196738
 30
0.0
  0
LWPOLYLINE
  5
34a
100
AcDbEntity
  8
Шар_1
 62
1
100
AcDbPolyline
 90
5
 70
0
 10
80.814784
 20
234.445321
 30
0.0
 10
80.077764
 20
235.196738
 30
0.0
 10
78.314794
 20
235.196738
 30
0.0
 10
78.314794
 20
230.696175
 30
0.0
 10
80.077764
 20
230.696175
 30
0.0
  0
LWPOLYLINE
  5
34b
100
AcDbEntity
  8
Шар_1
 62
1
100
AcDbPolyline
 90
2
 70
0
 10
80.814784
 20
231.444946
 30
0.0
 10
80.077764
 20
230.696175
 30
0.0
  0
LWPOLYLINE
  5
34c
100
AcDbEntity
  8
Шар_1
 62
1
100
AcDbPolyline
 90
3
 70
0
 10
80.814784
 20
231.444946
 30
0.0
 10
81.605114
 20
230.696175
 30
0.0
 10
85.051574
 20
230.696175
 30
0.0
  0
LWPOLYLINE
  5
34d
100
AcDbEntity
  8
Шар_1
 62
1
100
AcDbPolyline
 90
2
 70
0
 10
85.814784
 20
231.444946
 30
0.0
 10
85.051574
 20
230.696175
 30
0.0
  0
LWPOLYLINE
  5
34e
100
AcDbEntity
  8
Шар_1
 62
1
100
AcDbPolyline
 90
2
 70
0
 10
85.814784
 20
231.444946
 30
0.0
 10
86.577994
 20
230.696175
 30
0.0
  0
LWPOLYLINE
  5
34f
100
AcDbEntity
  8
Шар_1
 62
1
100
AcDbPolyline
 90
2
 70
0
 10
88.314774
 20
230.696175
 30
0.0
 10
86.577994
 20
230.696175
 30
0.0
  0
LWPOLYLINE
  5
350
100
AcDbEntity
  8
Шар_1
 62
1
100
AcDbPolyline
 90
2
 70
0
 10
88.314774
 20
235.196738
 30
0.0
 10
88.314774
 20
230.696175
 30
0.0
  0
LWPOLYLINE
  5
351
100
AcDbEntity
  8
Шар_1
 62
1
100
AcDbPolyline
 90
2
 70
0
 10
86.552414
 20
235.196738
 30
0.0
 10
88.314774
 20
235.196738
 30
0.0
  0
LWPOLYLINE
  5
352
100
AcDbEntity
  8
Шар_1
 62
1
100
AcDbPolyline
 90
2
 70
0
 10
80.893274
 20
217.498759
 30
0.0
 10
81.759914
 20
216.675904
 30
0.0
  0
LWPOLYLINE
  5
353
100
AcDbEntity
  8
Шар_1
 62
1
100
AcDbPolyline
 90
2
 70
0
 10
85.026644
 20
216.675904
 30
0.0
 10
81.759914
 20
216.675904
 30
0.0
  0
LWPOLYLINE
  5
354
100
AcDbEntity
  8
Шар_1
 62
1
100
AcDbPolyline
 90
2
 70
0
 10
85.893274
 20
217.498759
 30
0.0
 10
85.026644
 20
216.675904
 30
0.0
  0
LWPOLYLINE
  5
355
100
AcDbEntity
  8
Шар_1
 62
1
100
AcDbPolyline
 90
2
 70
0
 10
85.893274
 20
217.498759
 30
0.0
 10
86.701454
 20
216.675904
 30
0.0
  0
LWPOLYLINE
  5
356
100
AcDbEntity
  8
Шар_1
 62
1
100
AcDbPolyline
 90
2
 70
0
 10
88.314774
 20
216.675904
 30
0.0
 10
86.701454
 20
216.675904
 30
0.0
  0
LWPOLYLINE
  5
357
100
AcDbEntity
  8
Шар_1
 62
1
100
AcDbPolyline
 90
2
 70
0
 10
88.314774
 20
221.176467
 30
0.0
 10
88.314774
 20
216.675904
 30
0.0
  0
LWPOLYLINE
  5
358
100
AcDbEntity
  8
Шар_1
 62
1
100
AcDbPolyline
 90
2
 70
0
 10
86.657424
 20
221.176467
 30
0.0
 10
88.314774
 20
221.176467
 30
0.0
  0
LWPOLYLINE
  5
359
100
AcDbEntity
  8
Шар_1
 62
1
100
AcDbPolyline
 90
2
 70
0
 10
85.893274
 20
220.398592
 30
0.0
 10
86.657424
 20
221.176467
 30
0.0
  0
LWPOLYLINE
  5
35a
100
AcDbEntity
  8
Шар_1
 62
1
100
AcDbPolyline
 90
2
 70
0
 10
85.893274
 20
220.398592
 30
0.0
 10
85.073864
 20
221.176467
 30
0.0
  0
LWPOLYLINE
  5
35b
100
AcDbEntity
  8
Шар_1
 62
1
100
AcDbPolyline
 90
2
 70
0
 10
81.712694
 20
221.176467
 30
0.0
 10
85.073864
 20
221.176467
 30
0.0
  0
LWPOLYLINE
  5
35c
100
AcDbEntity
  8
Шар_1
 62
1
100
AcDbPolyline
 90
2
 70
0
 10
80.893274
 20
220.398592
 30
0.0
 10
81.712694
 20
221.176467
 30
0.0
  0
LWPOLYLINE
  5
35d
100
AcDbEntity
  8
Шар_1
 62
1
100
AcDbPolyline
 90
2
 70
0
 10
80.893274
 20
220.398592
 30
0.0
 10
80.129124
 20
221.176467
 30
0.0
  0
LWPOLYLINE
  5
35e
100
AcDbEntity
  8
Шар_1
 62
1
100
AcDbPolyline
 90
2
 70
0
 10
78.314794
 20
221.176467
 30
0.0
 10
80.129124
 20
221.176467
 30
0.0
  0
LWPOLYLINE
  5
35f
100
AcDbEntity
  8
Шар_1
 62
1
100
AcDbPolyline
 90
2
 70
0
 10
78.314794
 20
216.675904
 30
0.0
 10
78.314794
 20
221.176467
 30
0.0
  0
LWPOLYLINE
  5
360
100
AcDbEntity
  8
Шар_1
 62
1
100
AcDbPolyline
 90
2
 70
0
 10
80.085094
 20
216.675904
 30
0.0
 10
78.314794
 20
216.675904
 30
0.0
  0
LWPOLYLINE
  5
361
100
AcDbEntity
  8
Шар_1
 62
1
100
AcDbPolyline
 90
2
 70
0
 10
80.893274
 20
217.498759
 30
0.0
 10
80.085094
 20
216.675904
 30
0.0
  0
LWPOLYLINE
  5
362
100
AcDbEntity
  8
Шар_1
 62
1
100
AcDbPolyline
 90
2
 70
0
 10
80.814784
 20
206.346571
 30
0.0
 10
79.919064
 20
207.195884
 30
0.0
  0
LWPOLYLINE
  5
363
100
AcDbEntity
  8
Шар_1
 62
1
100
AcDbPolyline
 90
2
 70
0
 10
78.314794
 20
207.195884
 30
0.0
 10
79.919064
 20
207.195884
 30
0.0
  0
LWPOLYLINE
  5
364
100
AcDbEntity
  8
Шар_1
 62
1
100
AcDbPolyline
 90
2
 70
0
 10
78.314794
 20
202.695321
 30
0.0
 10
78.314794
 20
207.195884
 30
0.0
  0
LWPOLYLINE
  5
365
100
AcDbEntity
  8
Шар_1
 62
1
100
AcDbPolyline
 90
2
 70
0
 10
79.919064
 20
202.695321
 30
0.0
 10
78.314794
 20
202.695321
 30
0.0
  0
LWPOLYLINE
  5
366
100
AcDbEntity
  8
Шар_1
 62
1
100
AcDbPolyline
 90
2
 70
0
 10
80.814784
 20
203.547280
 30
0.0
 10
79.919064
 20
202.695321
 30
0.0
  0
LWPOLYLINE
  5
367
100
AcDbEntity
  8
Шар_1
 62
1
100
AcDbPolyline
 90
2
 70
0
 10
80.814784
 20
203.547280
 30
0.0
 10
81.650074
 20
202.695321
 30
0.0
  0
LWPOLYLINE
  5
368
100
AcDbEntity
  8
Шар_1
 62
1
100
AcDbPolyline
 90
2
 70
0
 10
84.979494
 20
202.695321
 30
0.0
 10
81.650074
 20
202.695321
 30
0.0
  0
LWPOLYLINE
  5
369
100
AcDbEntity
  8
Шар_1
 62
1
100
AcDbPolyline
 90
2
 70
0
 10
85.814784
 20
203.547280
 30
0.0
 10
84.979494
 20
202.695321
 30
0.0
  0
LWPOLYLINE
  5
36a
100
AcDbEntity
  8
Шар_1
 62
1
100
AcDbPolyline
 90
2
 70
0
 10
85.814784
 20
203.547280
 30
0.0
 10
86.710504
 20
202.695321
 30
0.0
  0
LWPOLYLINE
  5
36b
100
AcDbEntity
  8
Шар_1
 62
1
100
AcDbPolyline
 90
2
 70
0
 10
88.314774
 20
202.695321
 30
0.0
 10
86.710504
 20
202.695321
 30
0.0
  0
LWPOLYLINE
  5
36c
100
AcDbEntity
  8
Шар_1
 62
1
100
AcDbPolyline
 90
2
 70
0
 10
88.314774
 20
207.195884
 30
0.0
 10
88.314774
 20
202.695321
 30
0.0
  0
LWPOLYLINE
  5
36d
100
AcDbEntity
  8
Шар_1
 62
1
100
AcDbPolyline
 90
2
 70
0
 10
86.710504
 20
207.195884
 30
0.0
 10
88.314774
 20
207.195884
 30
0.0
  0
LWPOLYLINE
  5
36e
100
AcDbEntity
  8
Шар_1
 62
1
100
AcDbPolyline
 90
2
 70
0
 10
85.814784
 20
206.346571
 30
0.0
 10
86.710504
 20
207.195884
 30
0.0
  0
LWPOLYLINE
  5
36f
100
AcDbEntity
  8
Шар_1
 62
1
100
AcDbPolyline
 90
2
 70
0
 10
85.814784
 20
206.346571
 30
0.0
 10
84.979494
 20
207.195884
 30
0.0
  0
LWPOLYLINE
  5
370
100
AcDbEntity
  8
Шар_1
 62
1
100
AcDbPolyline
 90
2
 70
0
 10
81.650074
 20
207.195884
 30
0.0
 10
84.979494
 20
207.195884
 30
0.0
  0
SPLINE
  5
371
100
AcDbEntity
  8
Шар_1
 62
1
100
AcDbSpline
 70
8
 71
3
 72
8
 73
4
 74
0
 40
0
 40
0
 40
0
 40
0
 40
1
 40
1
 40
1
 40
1
 10
97.414784
 20
238.946121
 30
0.0
 10
97.414472
 20
239.829556
 30
0.0
 10
96.698219
 20
240.545555
 30
0.0
 10
95.814784
 20
240.545555
 30
0.0
  0
SPLINE
  5
372
100
AcDbEntity
  8
Шар_1
 62
1
100
AcDbSpline
 70
8
 71
3
 72
8
 73
4
 74
0
 40
0
 40
0
 40
0
 40
0
 40
1
 40
1
 40
1
 40
1
 10
95.814784
 20
240.545555
 30
0.0
 10
94.931349
 20
240.545555
 30
0.0
 10
94.215096
 20
239.829556
 30
0.0
 10
94.214784
 20
238.946121
 30
0.0
  0
SPLINE
  5
373
100
AcDbEntity
  8
Шар_1
 62
1
100
AcDbSpline
 70
8
 71
3
 72
8
 73
4
 74
0
 40
0
 40
0
 40
0
 40
0
 40
1
 40
1
 40
1
 40
1
 10
94.214784
 20
238.946121
 30
0.0
 10
94.215096
 20
238.062686
 30
0.0
 10
94.931349
 20
237.346687
 30
0.0
 10
95.814784
 20
237.346687
 30
0.0
  0
SPLINE
  5
374
100
AcDbEntity
  8
Шар_1
 62
1
100
AcDbSpline
 70
8
 71
3
 72
8
 73
4
 74
0
 40
0
 40
0
 40
0
 40
0
 40
1
 40
1
 40
1
 40
1
 10
95.814784
 20
237.346687
 30
0.0
 10
96.698219
 20
237.346687
 30
0.0
 10
97.414472
 20
238.062686
 30
0.0
 10
97.414784
 20
238.946121
 30
0.0
  0
LWPOLYLINE
  5
375
100
AcDbEntity
  8
Шар_1
 62
1
100
AcDbPolyline
 90
2
 70
0
 10
80.814784
 20
206.346571
 30
0.0
 10
81.650074
 20
207.195884
 30
0.0
  0
SPLINE
  5
376
100
AcDbEntity
  8
Шар_1
 62
1
100
AcDbSpline
 70
8
 71
3
 72
8
 73
4
 74
0
 40
0
 40
0
 40
0
 40
0
 40
1
 40
1
 40
1
 40
1
 10
72.414784
 20
238.946121
 30
0.0
 10
72.414472
 20
239.829556
 30
0.0
 10
71.698219
 20
240.545555
 30
0.0
 10
70.814784
 20
240.545555
 30
0.0
  0
SPLINE
  5
377
100
AcDbEntity
  8
Шар_1
 62
1
100
AcDbSpline
 70
8
 71
3
 72
8
 73
4
 74
0
 40
0
 40
0
 40
0
 40
0
 40
1
 40
1
 40
1
 40
1
 10
70.814784
 20
240.545555
 30
0.0
 10
69.931349
 20
240.545555
 30
0.0
 10
69.215096
 20
239.829556
 30
0.0
 10
69.214784
 20
238.946121
 30
0.0
  0
SPLINE
  5
378
100
AcDbEntity
  8
Шар_1
 62
1
100
AcDbSpline
 70
8
 71
3
 72
8
 73
4
 74
0
 40
0
 40
0
 40
0
 40
0
 40
1
 40
1
 40
1
 40
1
 10
69.214784
 20
238.946121
 30
0.0
 10
69.215096
 20
238.062686
 30
0.0
 10
69.931349
 20
237.346687
 30
0.0
 10
70.814784
 20
237.346687
 30
0.0
  0
SPLINE
  5
379
100
AcDbEntity
  8
Шар_1
 62
1
100
AcDbSpline
 70
8
 71
3
 72
8
 73
4
 74
0
 40
0
 40
0
 40
0
 40
0
 40
1
 40
1
 40
1
 40
1
 10
70.814784
 20
237.346687
 30
0.0
 10
71.698219
 20
237.346687
 30
0.0
 10
72.414472
 20
238.062686
 30
0.0
 10
72.414784
 20
238.946121
 30
0.0
  0
LWPOLYLINE
  5
37a
100
AcDbEntity
  8
Шар_1
 62
1
100
AcDbPolyline
 90
1
 70
1
 10
97.414784
 20
238.946121
 30
0.0
  0
SPLINE
  5
37b
100
AcDbEntity
  8
Шар_1
 62
1
100
AcDbSpline
 70
8
 71
3
 72
8
 73
4
 74
0
 40
0
 40
0
 40
0
 40
0
 40
1
 40
1
 40
1
 40
1
 10
97.414784
 20
198.946123
 30
0.0
 10
97.414472
 20
199.829558
 30
0.0
 10
96.698219
 20
200.545557
 30
0.0
 10
95.814784
 20
200.545557
 30
0.0
  0
SPLINE
  5
37c
100
AcDbEntity
  8
Шар_1
 62
1
100
AcDbSpline
 70
8
 71
3
 72
8
 73
4
 74
0
 40
0
 40
0
 40
0
 40
0
 40
1
 40
1
 40
1
 40
1
 10
95.814784
 20
200.545557
 30
0.0
 10
94.931349
 20
200.545557
 30
0.0
 10
94.215096
 20
199.829558
 30
0.0
 10
94.214784
 20
198.946123
 30
0.0
  0
SPLINE
  5
37d
100
AcDbEntity
  8
Шар_1
 62
1
100
AcDbSpline
 70
8
 71
3
 72
8
 73
4
 74
0
 40
0
 40
0
 40
0
 40
0
 40
1
 40
1
 40
1
 40
1
 10
94.214784
 20
198.946123
 30
0.0
 10
94.215096
 20
198.062688
 30
0.0
 10
94.931349
 20
197.346689
 30
0.0
 10
95.814784
 20
197.346689
 30
0.0
  0
SPLINE
  5
37e
100
AcDbEntity
  8
Шар_1
 62
1
100
AcDbSpline
 70
8
 71
3
 72
8
 73
4
 74
0
 40
0
 40
0
 40
0
 40
0
 40
1
 40
1
 40
1
 40
1
 10
95.814784
 20
197.346689
 30
0.0
 10
96.698219
 20
197.346689
 30
0.0
 10
97.414472
 20
198.062688
 30
0.0
 10
97.414784
 20
198.946123
 30
0.0
  0
LWPOLYLINE
  5
37f
100
AcDbEntity
  8
Шар_1
 62
1
100
AcDbPolyline
 90
1
 70
1
 10
72.414784
 20
238.946121
 30
0.0
  0
SPLINE
  5
380
100
AcDbEntity
  8
Шар_1
 62
1
100
AcDbSpline
 70
8
 71
3
 72
8
 73
4
 74
0
 40
0
 40
0
 40
0
 40
0
 40
1
 40
1
 40
1
 40
1
 10
72.414784
 20
198.946123
 30
0.0
 10
72.414472
 20
199.829558
 30
0.0
 10
71.698219
 20
200.545557
 30
0.0
 10
70.814784
 20
200.545557
 30
0.0
  0
SPLINE
  5
381
100
AcDbEntity
  8
Шар_1
 62
1
100
AcDbSpline
 70
8
 71
3
 72
8
 73
4
 74
0
 40
0
 40
0
 40
0
 40
0
 40
1
 40
1
 40
1
 40
1
 10
70.814784
 20
200.545557
 30
0.0
 10
69.931349
 20
200.545557
 30
0.0
 10
69.215096
 20
199.829558
 30
0.0
 10
69.214784
 20
198.946123
 30
0.0
  0
SPLINE
  5
382
100
AcDbEntity
  8
Шар_1
 62
1
100
AcDbSpline
 70
8
 71
3
 72
8
 73
4
 74
0
 40
0
 40
0
 40
0
 40
0
 40
1
 40
1
 40
1
 40
1
 10
69.214784
 20
198.946123
 30
0.0
 10
69.215096
 20
198.062688
 30
0.0
 10
69.931349
 20
197.346689
 30
0.0
 10
70.814784
 20
197.346689
 30
0.0
  0
SPLINE
  5
383
100
AcDbEntity
  8
Шар_1
 62
1
100
AcDbSpline
 70
8
 71
3
 72
8
 73
4
 74
0
 40
0
 40
0
 40
0
 40
0
 40
1
 40
1
 40
1
 40
1
 10
70.814784
 20
197.346689
 30
0.0
 10
71.698219
 20
197.346689
 30
0.0
 10
72.414472
 20
198.062688
 30
0.0
 10
72.414784
 20
198.946123
 30
0.0
  0
LWPOLYLINE
  5
384
100
AcDbEntity
  8
Шар_1
 62
1
100
AcDbPolyline
 90
1
 70
1
 10
97.414784
 20
198.946123
 30
0.0
  0
LWPOLYLINE
  5
385
100
AcDbEntity
  8
Шар_1
 62
1
100
AcDbPolyline
 90
1
 70
1
 10
72.414784
 20
198.946123
 30
0.0
  0
LWPOLYLINE
  5
386
100
AcDbEntity
  8
Шар_1
 62
7
100
AcDbPolyline
 90
4
 70
0
 10
100.810830
 20
193.945490
 30
0.0
 10
135.810820
 20
193.945490
 30
0.0
 10
135.810820
 20
243.946446
 30
0.0
 10
100.810830
 20
243.946446
 30
0.0
  0
LWPOLYLINE
  5
387
100
AcDbEntity
  8
Шар_1
 62
1
100
AcDbPolyline
 90
2
 70
0
 10
120.810820
 20
234.445259
 30
0.0
 10
121.547840
 20
235.196676
 30
0.0
  0
LWPOLYLINE
  5
388
100
AcDbEntity
  8
Шар_1
 62
1
100
AcDbPolyline
 90
2
 70
0
 10
120.810820
 20
234.445259
 30
0.0
 10
120.020490
 20
235.196676
 30
0.0
  0
LWPOLYLINE
  5
389
100
AcDbEntity
  8
Шар_1
 62
1
100
AcDbPolyline
 90
2
 70
0
 10
116.601150
 20
235.196676
 30
0.0
 10
120.020490
 20
235.196676
 30
0.0
  0
LWPOLYLINE
  5
38a
100
AcDbEntity
  8
Шар_1
 62
1
100
AcDbPolyline
 90
2
 70
0
 10
115.810820
 20
234.445259
 30
0.0
 10
116.601150
 20
235.196676
 30
0.0
  0
LWPOLYLINE
  5
38b
100
AcDbEntity
  8
Шар_1
 62
1
100
AcDbPolyline
 90
5
 70
0
 10
115.810820
 20
234.445259
 30
0.0
 10
115.073800
 20
235.196676
 30
0.0
 10
113.310830
 20
235.196676
 30
0.0
 10
113.310830
 20
230.696113
 30
0.0
 10
115.073800
 20
230.696113
 30
0.0
  0
LWPOLYLINE
  5
38c
100
AcDbEntity
  8
Шар_1
 62
1
100
AcDbPolyline
 90
2
 70
0
 10
115.810820
 20
231.444884
 30
0.0
 10
115.073800
 20
230.696113
 30
0.0
  0
LWPOLYLINE
  5
38d
100
AcDbEntity
  8
Шар_1
 62
1
100
AcDbPolyline
 90
3
 70
0
 10
115.810820
 20
231.444884
 30
0.0
 10
116.601150
 20
230.696113
 30
0.0
 10
120.047610
 20
230.696113
 30
0.0
  0
LWPOLYLINE
  5
38e
100
AcDbEntity
  8
Шар_1
 62
1
100
AcDbPolyline
 90
2
 70
0
 10
120.810820
 20
231.444884
 30
0.0
 10
120.047610
 20
230.696113
 30
0.0
  0
LWPOLYLINE
  5
38f
100
AcDbEntity
  8
Шар_1
 62
1
100
AcDbPolyline
 90
2
 70
0
 10
120.810820
 20
231.444884
 30
0.0
 10
121.574030
 20
230.696113
 30
0.0
  0
LWPOLYLINE
  5
390
100
AcDbEntity
  8
Шар_1
 62
1
100
AcDbPolyline
 90
2
 70
0
 10
123.310810
 20
230.696113
 30
0.0
 10
121.574030
 20
230.696113
 30
0.0
  0
LWPOLYLINE
  5
391
100
AcDbEntity
  8
Шар_1
 62
1
100
AcDbPolyline
 90
2
 70
0
 10
123.310810
 20
235.196676
 30
0.0
 10
123.310810
 20
230.696113
 30
0.0
  0
LWPOLYLINE
  5
392
100
AcDbEntity
  8
Шар_1
 62
1
100
AcDbPolyline
 90
2
 70
0
 10
121.548450
 20
235.196676
 30
0.0
 10
123.310810
 20
235.196676
 30
0.0
  0
LWPOLYLINE
  5
393
100
AcDbEntity
  8
Шар_1
 62
1
100
AcDbPolyline
 90
2
 70
0
 10
115.889310
 20
217.498697
 30
0.0
 10
116.755950
 20
216.675842
 30
0.0
  0
LWPOLYLINE
  5
394
100
AcDbEntity
  8
Шар_1
 62
1
100
AcDbPolyline
 90
2
 70
0
 10
120.022680
 20
216.675842
 30
0.0
 10
116.755950
 20
216.675842
 30
0.0
  0
LWPOLYLINE
  5
395
100
AcDbEntity
  8
Шар_1
 62
1
100
AcDbPolyline
 90
2
 70
0
 10
120.889310
 20
217.498697
 30
0.0
 10
120.022680
 20
216.675842
 30
0.0
  0
LWPOLYLINE
  5
396
100
AcDbEntity
  8
Шар_1
 62
1
100
AcDbPolyline
 90
2
 70
0
 10
120.889310
 20
217.498697
 30
0.0
 10
121.697490
 20
216.675842
 30
0.0
  0
LWPOLYLINE
  5
397
100
AcDbEntity
  8
Шар_1
 62
1
100
AcDbPolyline
 90
2
 70
0
 10
123.310810
 20
216.675842
 30
0.0
 10
121.697490
 20
216.675842
 30
0.0
  0
LWPOLYLINE
  5
398
100
AcDbEntity
  8
Шар_1
 62
1
100
AcDbPolyline
 90
2
 70
0
 10
123.310810
 20
221.176405
 30
0.0
 10
123.310810
 20
216.675842
 30
0.0
  0
LWPOLYLINE
  5
399
100
AcDbEntity
  8
Шар_1
 62
1
100
AcDbPolyline
 90
2
 70
0
 10
121.653460
 20
221.176405
 30
0.0
 10
123.310810
 20
221.176405
 30
0.0
  0
LWPOLYLINE
  5
39a
100
AcDbEntity
  8
Шар_1
 62
1
100
AcDbPolyline
 90
2
 70
0
 10
120.889310
 20
220.398530
 30
0.0
 10
121.653460
 20
221.176405
 30
0.0
  0
LWPOLYLINE
  5
39b
100
AcDbEntity
  8
Шар_1
 62
1
100
AcDbPolyline
 90
2
 70
0
 10
120.889310
 20
220.398530
 30
0.0
 10
120.069900
 20
221.176405
 30
0.0
  0
LWPOLYLINE
  5
39c
100
AcDbEntity
  8
Шар_1
 62
1
100
AcDbPolyline
 90
2
 70
0
 10
116.708730
 20
221.176405
 30
0.0
 10
120.069900
 20
221.176405
 30
0.0
  0
LWPOLYLINE
  5
39d
100
AcDbEntity
  8
Шар_1
 62
1
100
AcDbPolyline
 90
2
 70
0
 10
115.889310
 20
220.398530
 30
0.0
 10
116.708730
 20
221.176405
 30
0.0
  0
LWPOLYLINE
  5
39e
100
AcDbEntity
  8
Шар_1
 62
1
100
AcDbPolyline
 90
2
 70
0
 10
115.889310
 20
220.398530
 30
0.0
 10
115.125160
 20
221.176405
 30
0.0
  0
LWPOLYLINE
  5
39f
100
AcDbEntity
  8
Шар_1
 62
1
100
AcDbPolyline
 90
2
 70
0
 10
113.310830
 20
221.176405
 30
0.0
 10
115.125160
 20
221.176405
 30
0.0
  0
LWPOLYLINE
  5
3a0
100
AcDbEntity
  8
Шар_1
 62
1
100
AcDbPolyline
 90
2
 70
0
 10
113.310830
 20
216.675842
 30
0.0
 10
113.310830
 20
221.176405
 30
0.0
  0
LWPOLYLINE
  5
3a1
100
AcDbEntity
  8
Шар_1
 62
1
100
AcDbPolyline
 90
2
 70
0
 10
115.081130
 20
216.675842
 30
0.0
 10
113.310830
 20
216.675842
 30
0.0
  0
LWPOLYLINE
  5
3a2
100
AcDbEntity
  8
Шар_1
 62
1
100
AcDbPolyline
 90
2
 70
0
 10
115.889310
 20
217.498697
 30
0.0
 10
115.081130
 20
216.675842
 30
0.0
  0
LWPOLYLINE
  5
3a3
100
AcDbEntity
  8
Шар_1
 62
1
100
AcDbPolyline
 90
2
 70
0
 10
115.810820
 20
206.346509
 30
0.0
 10
114.915100
 20
207.195822
 30
0.0
  0
LWPOLYLINE
  5
3a4
100
AcDbEntity
  8
Шар_1
 62
1
100
AcDbPolyline
 90
2
 70
0
 10
113.310830
 20
207.195822
 30
0.0
 10
114.915100
 20
207.195822
 30
0.0
  0
LWPOLYLINE
  5
3a5
100
AcDbEntity
  8
Шар_1
 62
1
100
AcDbPolyline
 90
2
 70
0
 10
113.310830
 20
202.695259
 30
0.0
 10
113.310830
 20
207.195822
 30
0.0
  0
LWPOLYLINE
  5
3a6
100
AcDbEntity
  8
Шар_1
 62
1
100
AcDbPolyline
 90
2
 70
0
 10
114.915100
 20
202.695259
 30
0.0
 10
113.310830
 20
202.695259
 30
0.0
  0
LWPOLYLINE
  5
3a7
100
AcDbEntity
  8
Шар_1
 62
1
100
AcDbPolyline
 90
2
 70
0
 10
115.810820
 20
203.547218
 30
0.0
 10
114.915100
 20
202.695259
 30
0.0
  0
LWPOLYLINE
  5
3a8
100
AcDbEntity
  8
Шар_1
 62
1
100
AcDbPolyline
 90
2
 70
0
 10
115.810820
 20
203.547218
 30
0.0
 10
116.646110
 20
202.695259
 30
0.0
  0
LWPOLYLINE
  5
3a9
100
AcDbEntity
  8
Шар_1
 62
1
100
AcDbPolyline
 90
2
 70
0
 10
119.975530
 20
202.695259
 30
0.0
 10
116.646110
 20
202.695259
 30
0.0
  0
LWPOLYLINE
  5
3aa
100
AcDbEntity
  8
Шар_1
 62
1
100
AcDbPolyline
 90
2
 70
0
 10
120.810820
 20
203.547218
 30
0.0
 10
119.975530
 20
202.695259
 30
0.0
  0
LWPOLYLINE
  5
3ab
100
AcDbEntity
  8
Шар_1
 62
1
100
AcDbPolyline
 90
2
 70
0
 10
120.810820
 20
203.547218
 30
0.0
 10
121.706540
 20
202.695259
 30
0.0
  0
LWPOLYLINE
  5
3ac
100
AcDbEntity
  8
Шар_1
 62
1
100
AcDbPolyline
 90
2
 70
0
 10
123.310810
 20
202.695259
 30
0.0
 10
121.706540
 20
202.695259
 30
0.0
  0
LWPOLYLINE
  5
3ad
100
AcDbEntity
  8
Шар_1
 62
1
100
AcDbPolyline
 90
2
 70
0
 10
123.310810
 20
207.195822
 30
0.0
 10
123.310810
 20
202.695259
 30
0.0
  0
LWPOLYLINE
  5
3ae
100
AcDbEntity
  8
Шар_1
 62
1
100
AcDbPolyline
 90
2
 70
0
 10
121.706540
 20
207.195822
 30
0.0
 10
123.310810
 20
207.195822
 30
0.0
  0
LWPOLYLINE
  5
3af
100
AcDbEntity
  8
Шар_1
 62
1
100
AcDbPolyline
 90
2
 70
0
 10
120.810820
 20
206.346509
 30
0.0
 10
121.706540
 20
207.195822
 30
0.0
  0
LWPOLYLINE
  5
3b0
100
AcDbEntity
  8
Шар_1
 62
1
100
AcDbPolyline
 90
2
 70
0
 10
120.810820
 20
206.346509
 30
0.0
 10
119.975530
 20
207.195822
 30
0.0
  0
LWPOLYLINE
  5
3b1
100
AcDbEntity
  8
Шар_1
 62
1
100
AcDbPolyline
 90
2
 70
0
 10
116.646110
 20
207.195822
 30
0.0
 10
119.975530
 20
207.195822
 30
0.0
  0
SPLINE
  5
3b2
100
AcDbEntity
  8
Шар_1
 62
1
100
AcDbSpline
 70
8
 71
3
 72
8
 73
4
 74
0
 40
0
 40
0
 40
0
 40
0
 40
1
 40
1
 40
1
 40
1
 10
132.410820
 20
238.946059
 30
0.0
 10
132.410508
 20
239.829494
 30
0.0
 10
131.694255
 20
240.545493
 30
0.0
 10
130.810820
 20
240.545493
 30
0.0
  0
SPLINE
  5
3b3
100
AcDbEntity
  8
Шар_1
 62
1
100
AcDbSpline
 70
8
 71
3
 72
8
 73
4
 74
0
 40
0
 40
0
 40
0
 40
0
 40
1
 40
1
 40
1
 40
1
 10
130.810820
 20
240.545493
 30
0.0
 10
129.927385
 20
240.545493
 30
0.0
 10
129.211132
 20
239.829494
 30
0.0
 10
129.210820
 20
238.946059
 30
0.0
  0
SPLINE
  5
3b4
100
AcDbEntity
  8
Шар_1
 62
1
100
AcDbSpline
 70
8
 71
3
 72
8
 73
4
 74
0
 40
0
 40
0
 40
0
 40
0
 40
1
 40
1
 40
1
 40
1
 10
129.210820
 20
238.946059
 30
0.0
 10
129.211132
 20
238.062624
 30
0.0
 10
129.927385
 20
237.346625
 30
0.0
 10
130.810820
 20
237.346625
 30
0.0
  0
SPLINE
  5
3b5
100
AcDbEntity
  8
Шар_1
 62
1
100
AcDbSpline
 70
8
 71
3
 72
8
 73
4
 74
0
 40
0
 40
0
 40
0
 40
0
 40
1
 40
1
 40
1
 40
1
 10
130.810820
 20
237.346625
 30
0.0
 10
131.694255
 20
237.346625
 30
0.0
 10
132.410508
 20
238.062624
 30
0.0
 10
132.410820
 20
238.946059
 30
0.0
  0
LWPOLYLINE
  5
3b6
100
AcDbEntity
  8
Шар_1
 62
1
100
AcDbPolyline
 90
2
 70
0
 10
115.810820
 20
206.346509
 30
0.0
 10
116.646110
 20
207.195822
 30
0.0
  0
SPLINE
  5
3b7
100
AcDbEntity
  8
Шар_1
 62
1
100
AcDbSpline
 70
8
 71
3
 72
8
 73
4
 74
0
 40
0
 40
0
 40
0
 40
0
 40
1
 40
1
 40
1
 40
1
 10
107.410820
 20
238.946059
 30
0.0
 10
107.410508
 20
239.829494
 30
0.0
 10
106.694255
 20
240.545493
 30
0.0
 10
105.810820
 20
240.545493
 30
0.0
  0
SPLINE
  5
3b8
100
AcDbEntity
  8
Шар_1
 62
1
100
AcDbSpline
 70
8
 71
3
 72
8
 73
4
 74
0
 40
0
 40
0
 40
0
 40
0
 40
1
 40
1
 40
1
 40
1
 10
105.810820
 20
240.545493
 30
0.0
 10
104.927385
 20
240.545493
 30
0.0
 10
104.211132
 20
239.829494
 30
0.0
 10
104.210820
 20
238.946059
 30
0.0
  0
SPLINE
  5
3b9
100
AcDbEntity
  8
Шар_1
 62
1
100
AcDbSpline
 70
8
 71
3
 72
8
 73
4
 74
0
 40
0
 40
0
 40
0
 40
0
 40
1
 40
1
 40
1
 40
1
 10
104.210820
 20
238.946059
 30
0.0
 10
104.211132
 20
238.062624
 30
0.0
 10
104.927385
 20
237.346625
 30
0.0
 10
105.810820
 20
237.346625
 30
0.0
  0
SPLINE
  5
3ba
100
AcDbEntity
  8
Шар_1
 62
1
100
AcDbSpline
 70
8
 71
3
 72
8
 73
4
 74
0
 40
0
 40
0
 40
0
 40
0
 40
1
 40
1
 40
1
 40
1
 10
105.810820
 20
237.346625
 30
0.0
 10
106.694255
 20
237.346625
 30
0.0
 10
107.410508
 20
238.062624
 30
0.0
 10
107.410820
 20
238.946059
 30
0.0
  0
LWPOLYLINE
  5
3bb
100
AcDbEntity
  8
Шар_1
 62
1
100
AcDbPolyline
 90
1
 70
1
 10
132.410820
 20
238.946059
 30
0.0
  0
SPLINE
  5
3bc
100
AcDbEntity
  8
Шар_1
 62
1
100
AcDbSpline
 70
8
 71
3
 72
8
 73
4
 74
0
 40
0
 40
0
 40
0
 40
0
 40
1
 40
1
 40
1
 40
1
 10
132.410820
 20
198.946061
 30
0.0
 10
132.410508
 20
199.829496
 30
0.0
 10
131.694255
 20
200.545495
 30
0.0
 10
130.810820
 20
200.545495
 30
0.0
  0
SPLINE
  5
3bd
100
AcDbEntity
  8
Шар_1
 62
1
100
AcDbSpline
 70
8
 71
3
 72
8
 73
4
 74
0
 40
0
 40
0
 40
0
 40
0
 40
1
 40
1
 40
1
 40
1
 10
130.810820
 20
200.545495
 30
0.0
 10
129.927385
 20
200.545495
 30
0.0
 10
129.211132
 20
199.829496
 30
0.0
 10
129.210820
 20
198.946061
 30
0.0
  0
SPLINE
  5
3be
100
AcDbEntity
  8
Шар_1
 62
1
100
AcDbSpline
 70
8
 71
3
 72
8
 73
4
 74
0
 40
0
 40
0
 40
0
 40
0
 40
1
 40
1
 40
1
 40
1
 10
129.210820
 20
198.946061
 30
0.0
 10
129.211132
 20
198.062626
 30
0.0
 10
129.927385
 20
197.346627
 30
0.0
 10
130.810820
 20
197.346627
 30
0.0
  0
SPLINE
  5
3bf
100
AcDbEntity
  8
Шар_1
 62
1
100
AcDbSpline
 70
8
 71
3
 72
8
 73
4
 74
0
 40
0
 40
0
 40
0
 40
0
 40
1
 40
1
 40
1
 40
1
 10
130.810820
 20
197.346627
 30
0.0
 10
131.694255
 20
197.346627
 30
0.0
 10
132.410508
 20
198.062626
 30
0.0
 10
132.410820
 20
198.946061
 30
0.0
  0
LWPOLYLINE
  5
3c0
100
AcDbEntity
  8
Шар_1
 62
1
100
AcDbPolyline
 90
1
 70
1
 10
107.410820
 20
238.946059
 30
0.0
  0
SPLINE
  5
3c1
100
AcDbEntity
  8
Шар_1
 62
1
100
AcDbSpline
 70
8
 71
3
 72
8
 73
4
 74
0
 40
0
 40
0
 40
0
 40
0
 40
1
 40
1
 40
1
 40
1
 10
107.410820
 20
198.946061
 30
0.0
 10
107.410508
 20
199.829496
 30
0.0
 10
106.694255
 20
200.545495
 30
0.0
 10
105.810820
 20
200.545495
 30
0.0
  0
SPLINE
  5
3c2
100
AcDbEntity
  8
Шар_1
 62
1
100
AcDbSpline
 70
8
 71
3
 72
8
 73
4
 74
0
 40
0
 40
0
 40
0
 40
0
 40
1
 40
1
 40
1
 40
1
 10
105.810820
 20
200.545495
 30
0.0
 10
104.927385
 20
200.545495
 30
0.0
 10
104.211132
 20
199.829496
 30
0.0
 10
104.210820
 20
198.946061
 30
0.0
  0
SPLINE
  5
3c3
100
AcDbEntity
  8
Шар_1
 62
1
100
AcDbSpline
 70
8
 71
3
 72
8
 73
4
 74
0
 40
0
 40
0
 40
0
 40
0
 40
1
 40
1
 40
1
 40
1
 10
104.210820
 20
198.946061
 30
0.0
 10
104.211132
 20
198.062626
 30
0.0
 10
104.927385
 20
197.346627
 30
0.0
 10
105.810820
 20
197.346627
 30
0.0
  0
SPLINE
  5
3c4
100
AcDbEntity
  8
Шар_1
 62
1
100
AcDbSpline
 70
8
 71
3
 72
8
 73
4
 74
0
 40
0
 40
0
 40
0
 40
0
 40
1
 40
1
 40
1
 40
1
 10
105.810820
 20
197.346627
 30
0.0
 10
106.694255
 20
197.346627
 30
0.0
 10
107.410508
 20
198.062626
 30
0.0
 10
107.410820
 20
198.946061
 30
0.0
  0
LWPOLYLINE
  5
3c5
100
AcDbEntity
  8
Шар_1
 62
1
100
AcDbPolyline
 90
1
 70
1
 10
132.410820
 20
198.946061
 30
0.0
  0
LWPOLYLINE
  5
3c6
100
AcDbEntity
  8
Шар_1
 62
1
100
AcDbPolyline
 90
1
 70
1
 10
107.410820
 20
198.946061
 30
0.0
  0
LWPOLYLINE
  5
3c7
100
AcDbEntity
  8
Шар_1
 62
7
100
AcDbPolyline
 90
9
 70
0
 10
36.626501
 20
180.089415
 30
0.0
 10
37.626500
 20
179.589353
 30
0.0
 10
38.626499
 20
180.089415
 30
0.0
 10
40.126497
 20
180.089415
 30
0.0
 10
40.126497
 20
179.089291
 30
0.0
 10
42.526498
 20
179.089291
 30
0.0
 10
42.526498
 20
180.589476
 30
0.0
 10
41.026497
 20
180.589476
 30
0.0
 10
41.026497
 20
191.088130
 30
0.0
  0
LWPOLYLINE
  5
3c8
100
AcDbEntity
  8
Шар_1
 62
7
100
AcDbPolyline
 90
2
 70
0
 10
38.826498
 20
191.088130
 30
0.0
 10
41.026497
 20
191.088130
 30
0.0
  0
LWPOLYLINE
  5
3c9
100
AcDbEntity
  8
Шар_1
 62
7
100
AcDbPolyline
 90
2
 70
0
 10
38.826498
 20
191.088130
 30
0.0
 10
38.826498
 20
188.288842
 30
0.0
  0
LWPOLYLINE
  5
3ca
100
AcDbEntity
  8
Шар_1
 62
7
100
AcDbPolyline
 90
2
 70
0
 10
36.426502
 20
188.288842
 30
0.0
 10
38.826498
 20
188.288842
 30
0.0
  0
LWPOLYLINE
  5
3cb
100
AcDbEntity
  8
Шар_1
 62
7
100
AcDbPolyline
 90
2
 70
0
 10
36.426502
 20
191.088130
 30
0.0
 10
36.426502
 20
188.288842
 30
0.0
  0
LWPOLYLINE
  5
3cc
100
AcDbEntity
  8
Шар_1
 62
7
100
AcDbPolyline
 90
2
 70
0
 10
34.226503
 20
191.088130
 30
0.0
 10
36.426502
 20
191.088130
 30
0.0
  0
LWPOLYLINE
  5
3cd
100
AcDbEntity
  8
Шар_1
 62
7
100
AcDbPolyline
 90
2
 70
0
 10
34.226503
 20
180.589476
 30
0.0
 10
34.226503
 20
191.088130
 30
0.0
  0
LWPOLYLINE
  5
3ce
100
AcDbEntity
  8
Шар_1
 62
7
100
AcDbPolyline
 90
2
 70
0
 10
32.726502
 20
180.589476
 30
0.0
 10
34.226503
 20
180.589476
 30
0.0
  0
LWPOLYLINE
  5
3cf
100
AcDbEntity
  8
Шар_1
 62
7
100
AcDbPolyline
 90
2
 70
0
 10
32.726502
 20
179.089291
 30
0.0
 10
32.726502
 20
180.589476
 30
0.0
  0
LWPOLYLINE
  5
3d0
100
AcDbEntity
  8
Шар_1
 62
7
100
AcDbPolyline
 90
2
 70
0
 10
35.126503
 20
179.089291
 30
0.0
 10
32.726502
 20
179.089291
 30
0.0
  0
LWPOLYLINE
  5
3d1
100
AcDbEntity
  8
Шар_1
 62
7
100
AcDbPolyline
 90
2
 70
0
 10
35.126503
 20
180.089415
 30
0.0
 10
35.126503
 20
179.089291
 30
0.0
  0
LWPOLYLINE
  5
3d2
100
AcDbEntity
  8
Шар_1
 62
7
100
AcDbPolyline
 90
2
 70
0
 10
36.626501
 20
180.089415
 30
0.0
 10
35.126503
 20
180.089415
 30
0.0
  0
LWPOLYLINE
  5
3d3
100
AcDbEntity
  8
Шар_1
 62
7
100
AcDbPolyline
 90
9
 70
0
 10
68.915601
 20
180.467415
 30
0.0
 10
69.915600
 20
179.967353
 30
0.0
 10
70.915599
 20
180.467415
 30
0.0
 10
72.415597
 20
180.467415
 30
0.0
 10
72.415597
 20
179.467291
 30
0.0
 10
74.815598
 20
179.467291
 30
0.0
 10
74.815598
 20
180.967476
 30
0.0
 10
73.315597
 20
180.967476
 30
0.0
 10
73.315597
 20
191.466130
 30
0.0
  0
LWPOLYLINE
  5
3d4
100
AcDbEntity
  8
Шар_1
 62
7
100
AcDbPolyline
 90
2
 70
0
 10
71.115598
 20
191.466130
 30
0.0
 10
73.315597
 20
191.466130
 30
0.0
  0
LWPOLYLINE
  5
3d5
100
AcDbEntity
  8
Шар_1
 62
7
100
AcDbPolyline
 90
2
 70
0
 10
71.115598
 20
191.466130
 30
0.0
 10
71.115598
 20
188.666842
 30
0.0
  0
LWPOLYLINE
  5
3d6
100
AcDbEntity
  8
Шар_1
 62
7
100
AcDbPolyline
 90
2
 70
0
 10
68.715602
 20
188.666842
 30
0.0
 10
71.115598
 20
188.666842
 30
0.0
  0
LWPOLYLINE
  5
3d7
100
AcDbEntity
  8
Шар_1
 62
7
100
AcDbPolyline
 90
2
 70
0
 10
68.715602
 20
191.466130
 30
0.0
 10
68.715602
 20
188.666842
 30
0.0
  0
LWPOLYLINE
  5
3d8
100
AcDbEntity
  8
Шар_1
 62
7
100
AcDbPolyline
 90
2
 70
0
 10
66.515603
 20
191.466130
 30
0.0
 10
68.715602
 20
191.466130
 30
0.0
  0
LWPOLYLINE
  5
3d9
100
AcDbEntity
  8
Шар_1
 62
7
100
AcDbPolyline
 90
2
 70
0
 10
66.515603
 20
180.967476
 30
0.0
 10
66.515603
 20
191.466130
 30
0.0
  0
LWPOLYLINE
  5
3da
100
AcDbEntity
  8
Шар_1
 62
7
100
AcDbPolyline
 90
2
 70
0
 10
65.015602
 20
180.967476
 30
0.0
 10
66.515603
 20
180.967476
 30
0.0
  0
LWPOLYLINE
  5
3db
100
AcDbEntity
  8
Шар_1
 62
7
100
AcDbPolyline
 90
2
 70
0
 10
65.015602
 20
179.467291
 30
0.0
 10
65.015602
 20
180.967476
 30
0.0
  0
LWPOLYLINE
  5
3dc
100
AcDbEntity
  8
Шар_1
 62
7
100
AcDbPolyline
 90
2
 70
0
 10
67.415603
 20
179.467291
 30
0.0
 10
65.015602
 20
179.467291
 30
0.0
  0
LWPOLYLINE
  5
3dd
100
AcDbEntity
  8
Шар_1
 62
7
100
AcDbPolyline
 90
2
 70
0
 10
67.415603
 20
180.467415
 30
0.0
 10
67.415603
 20
179.467291
 30
0.0
  0
LWPOLYLINE
  5
3de
100
AcDbEntity
  8
Шар_1
 62
7
100
AcDbPolyline
 90
2
 70
0
 10
68.915601
 20
180.467415
 30
0.0
 10
67.415603
 20
180.467415
 30
0.0
  0
LWPOLYLINE
  5
3df
100
AcDbEntity
  8
Шар_1
 62
7
100
AcDbPolyline
 90
9
 70
0
 10
98.352901
 20
180.284415
 30
0.0
 10
99.352900
 20
179.784353
 30
0.0
 10
100.352899
 20
180.284415
 30
0.0
 10
101.852897
 20
180.284415
 30
0.0
 10
101.852897
 20
179.284291
 30
0.0
 10
104.252898
 20
179.284291
 30
0.0
 10
104.252898
 20
180.784476
 30
0.0
 10
102.752897
 20
180.784476
 30
0.0
 10
102.752897
 20
191.283130
 30
0.0
  0
LWPOLYLINE
  5
3e0
100
AcDbEntity
  8
Шар_1
 62
7
100
AcDbPolyline
 90
2
 70
0
 10
100.552898
 20
191.283130
 30
0.0
 10
102.752897
 20
191.283130
 30
0.0
  0
LWPOLYLINE
  5
3e1
100
AcDbEntity
  8
Шар_1
 62
7
100
AcDbPolyline
 90
2
 70
0
 10
100.552898
 20
191.283130
 30
0.0
 10
100.552898
 20
188.483842
 30
0.0
  0
LWPOLYLINE
  5
3e2
100
AcDbEntity
  8
Шар_1
 62
7
100
AcDbPolyline
 90
2
 70
0
 10
98.152902
 20
188.483842
 30
0.0
 10
100.552898
 20
188.483842
 30
0.0
  0
LWPOLYLINE
  5
3e3
100
AcDbEntity
  8
Шар_1
 62
7
100
AcDbPolyline
 90
2
 70
0
 10
98.152902
 20
191.283130
 30
0.0
 10
98.152902
 20
188.483842
 30
0.0
  0
LWPOLYLINE
  5
3e4
100
AcDbEntity
  8
Шар_1
 62
7
100
AcDbPolyline
 90
2
 70
0
 10
95.952903
 20
191.283130
 30
0.0
 10
98.152902
 20
191.283130
 30
0.0
  0
LWPOLYLINE
  5
3e5
100
AcDbEntity
  8
Шар_1
 62
7
100
AcDbPolyline
 90
2
 70
0
 10
95.952903
 20
180.784476
 30
0.0
 10
95.952903
 20
191.283130
 30
0.0
  0
LWPOLYLINE
  5
3e6
100
AcDbEntity
  8
Шар_1
 62
7
100
AcDbPolyline
 90
2
 70
0
 10
94.452902
 20
180.784476
 30
0.0
 10
95.952903
 20
180.784476
 30
0.0
  0
LWPOLYLINE
  5
3e7
100
AcDbEntity
  8
Шар_1
 62
7
100
AcDbPolyline
 90
2
 70
0
 10
94.452902
 20
179.284291
 30
0.0
 10
94.452902
 20
180.784476
 30
0.0
  0
LWPOLYLINE
  5
3e8
100
AcDbEntity
  8
Шар_1
 62
7
100
AcDbPolyline
 90
2
 70
0
 10
96.852903
 20
179.284291
 30
0.0
 10
94.452902
 20
179.284291
 30
0.0
  0
LWPOLYLINE
  5
3e9
100
AcDbEntity
  8
Шар_1
 62
7
100
AcDbPolyline
 90
2
 70
0
 10
96.852903
 20
180.284415
 30
0.0
 10
96.852903
 20
179.284291
 30
0.0
  0
LWPOLYLINE
  5
3ea
100
AcDbEntity
  8
Шар_1
 62
7
100
AcDbPolyline
 90
2
 70
0
 10
98.352901
 20
180.284415
 30
0.0
 10
96.852903
 20
180.284415
 30
0.0
  0
ENDSEC
  0
SECTION
  2
OBJECTS
  0
DICTIONARY
  5
C
330
0
100
AcDbDictionary
  3
ACAD_GROUP
350
D
  3
ACAD_MLINESTYLE
350
17
  0
DICTIONARY
  5
D
330
C
100
AcDbDictionary
  0
DICTIONARY
  5
1A
330
C
100
AcDbDictionary
  0
DICTIONARY
  5
17
330
C
100
AcDbDictionary
  3
STANDARD
350
18
  0
DICTIONARY
  5
19
330
C
100
AcDbDictionary
  0
ENDSEC
  0
EOF
